<?xml version="1.0" encoding="UTF-8"?>
<!DOCTYPE svg PUBLIC "-//W3C//DTD SVG 1.1//EN" "http://www.w3.org/Graphics/SVG/1.1/DTD/svg11.dtd">
<!-- Creator: CorelDRAW 2019 (64-Bit) -->
<svg xmlns="http://www.w3.org/2000/svg" xml:space="preserve" width="92.8533mm" height="15.5849mm" version="1.1" style="shape-rendering:geometricPrecision; text-rendering:geometricPrecision; image-rendering:optimizeQuality; fill-rule:evenodd; clip-rule:evenodd"
viewBox="0 0 20357.9 3416.96"
 xmlns:xlink="http://www.w3.org/1999/xlink">
 <defs>
  <style type="text/css">
   <![CDATA[
    .fil0 {fill:white;fill-rule:nonzero}
   ]]>
  </style>
 </defs>
 <g id="Слой_x0020_1">
  <metadata id="CorelCorpID_0Corel-Layer"/>
  <g id="_2544431425856">
   <polygon class="fil0" points="1131.89,2040.56 637.68,1179.71 637.68,2040.56 -0,2040.56 -0,31.88 637.68,31.88 637.68,876.79 1068.11,31.88 1785.51,31.88 1211.59,1020.27 1849.27,2040.56 "/>
   <path id="1" class="fil0" d="M3794.2 31.88l0 2008.68 -637.68 0 0 -1402.9 -366.67 0 -63.76 797.1c-17.01,199.82 -81.3,356.04 -192.89,468.71 -111.6,112.65 -259.85,168.97 -444.79,168.97 -63.76,0 -122.23,-5.31 -175.35,-15.94 -27.65,-4.25 -54.2,-9.56 -79.72,-15.94l0 -573.9 79.72 0c63.76,0 112.65,-17.01 146.66,-51.02 34.01,-34.01 54.2,-91.4 60.58,-172.18l95.66 -1211.59 1578.26 0z"/>
   <path id="2" class="fil0" d="M4973.9 701.44l-127.54 478.27 255.07 0 -127.54 -478.27zm-271.01 988.39l-95.66 350.73 -685.5 0 669.56 -2008.68 765.22 0 669.56 2008.68 -685.52 0 -95.64 -350.73 -542.03 0z"/>
   <path id="3" class="fil0" d="M7508.65 972.45c72.29,25.5 136.04,60.58 191.32,105.22 48.89,38.26 92.98,90.33 132.32,156.24 39.33,65.88 58.98,148.78 58.98,248.69 0,76.52 -15.41,148.26 -46.22,215.21 -30.83,66.96 -75.99,125.94 -135.52,176.96 -59.5,51.02 -131.26,91.4 -215.21,121.16 -83.97,29.75 -180.13,44.64 -288.55,44.64l-1052.17 0 0 -2008.68 988.41 0c108.4,0 204.05,13.81 286.95,41.44 82.9,27.65 152.51,64.83 208.83,111.6 56.32,46.77 99.36,100.96 129.14,162.62 29.75,61.63 44.64,126.46 44.64,194.49 0,80.77 -15.94,148.26 -47.84,202.45 -31.88,54.2 -66.96,98.31 -105.22,132.32 -44.64,38.26 -94.58,70.16 -149.86,95.66zm-717.38 -175.35l191.29 0c48.89,0 87.7,-13.83 116.38,-41.46 28.7,-27.63 43.06,-61.63 43.06,-102.02 0,-40.39 -14.36,-74.41 -43.06,-102.04 -28.68,-27.63 -67.48,-41.46 -116.38,-41.46l-191.29 0 0 286.97zm239.13 765.2c55.25,0 98.31,-14.34 129.12,-43.04 30.83,-28.7 46.24,-67.48 46.24,-116.38 0,-48.89 -15.41,-87.68 -46.24,-116.38 -30.8,-28.7 -73.86,-43.04 -129.12,-43.04l-239.13 0 0 318.83 239.13 0z"/>
   <path id="4" class="fil0" d="M9517.36 1036.21c0,-59.5 -11.16,-115.3 -33.48,-167.37 -22.32,-52.09 -52.62,-97.78 -90.88,-137.12 -38.26,-39.31 -82.37,-70.14 -132.32,-92.46 -49.94,-22.32 -102.56,-33.48 -157.81,-33.48 -55.27,0 -107.89,11.16 -157.84,33.48 -49.94,22.32 -94.06,53.15 -132.32,92.46 -38.26,39.33 -68.56,85.02 -90.88,137.12 -22.3,52.07 -33.46,107.87 -33.46,167.37 0,59.53 11.16,115.32 33.46,167.4 22.32,52.07 52.62,97.78 90.88,137.1 38.26,39.33 82.37,70.16 132.32,92.48 49.94,22.32 102.56,33.48 157.84,33.48 55.25,0 107.87,-11.16 157.81,-33.48 49.94,-22.32 94.06,-53.15 132.32,-92.48 38.26,-39.31 68.56,-85.02 90.88,-137.1 22.32,-52.07 33.48,-107.87 33.48,-167.4zm637.68 0c0,144.55 -27.12,279.52 -81.32,404.93 -54.2,125.41 -128.59,234.88 -223.17,328.41 -94.61,93.53 -206.2,167.4 -334.79,221.59 -128.59,54.2 -266.23,81.3 -412.89,81.3 -146.68,0 -284.3,-27.1 -412.91,-81.3 -128.59,-54.2 -240.19,-128.06 -334.77,-221.59 -94.61,-93.53 -169,-203 -223.19,-328.41 -54.2,-125.41 -81.3,-260.38 -81.3,-404.93 0,-142.4 27.1,-276.84 81.3,-403.33 54.2,-126.46 128.59,-236.46 223.19,-329.99 94.58,-93.53 206.18,-167.4 334.77,-221.59 128.61,-54.2 266.23,-81.3 412.91,-81.3 146.66,0 284.3,27.1 412.89,81.3 128.59,54.2 240.19,128.06 334.79,221.59 94.58,93.53 168.97,203.53 223.17,329.99 54.2,126.48 81.32,260.93 81.32,403.33z"/>
   <polygon id="5" class="fil0" points="10410.09,31.88 11844.88,31.88 11844.88,637.66 11047.78,637.66 11047.78,2040.56 10410.09,2040.56 "/>
   <path id="6" class="fil0" d="M13375.31 1036.21c0,-59.5 -11.16,-115.3 -33.48,-167.37 -22.32,-52.09 -52.62,-97.78 -90.88,-137.12 -38.26,-39.31 -82.37,-70.14 -132.32,-92.46 -49.94,-22.32 -102.56,-33.48 -157.81,-33.48 -55.27,0 -107.89,11.16 -157.84,33.48 -49.94,22.32 -94.06,53.15 -132.32,92.46 -38.26,39.33 -68.56,85.02 -90.88,137.12 -22.3,52.07 -33.46,107.87 -33.46,167.37 0,59.53 11.16,115.32 33.46,167.4 22.32,52.07 52.62,97.78 90.88,137.1 38.26,39.33 82.37,70.16 132.32,92.48 49.94,22.32 102.56,33.48 157.84,33.48 55.25,0 107.87,-11.16 157.81,-33.48 49.94,-22.32 94.06,-53.15 132.32,-92.48 38.26,-39.31 68.56,-85.02 90.88,-137.1 22.32,-52.07 33.48,-107.87 33.48,-167.4zm637.68 0c0,144.55 -27.12,279.52 -81.32,404.93 -54.2,125.41 -128.59,234.88 -223.17,328.41 -94.61,93.53 -206.2,167.4 -334.79,221.59 -128.59,54.2 -266.23,81.3 -412.89,81.3 -146.68,0 -284.3,-27.1 -412.91,-81.3 -128.59,-54.2 -240.19,-128.06 -334.77,-221.59 -94.61,-93.53 -169,-203 -223.19,-328.41 -54.2,-125.41 -81.3,-260.38 -81.3,-404.93 0,-142.4 27.1,-276.84 81.3,-403.33 54.2,-126.46 128.59,-236.46 223.19,-329.99 94.58,-93.53 206.18,-167.4 334.77,-221.59 128.61,-54.2 266.23,-81.3 412.91,-81.3 146.66,0 284.3,27.1 412.89,81.3 128.59,54.2 240.19,128.06 334.79,221.59 94.58,93.53 168.97,203.53 223.17,329.99 54.2,126.48 81.32,260.93 81.32,403.33z"/>
   <polygon id="7" class="fil0" points="16149.2,31.88 16149.2,2040.56 15511.54,2040.56 15511.54,1323.18 14905.73,1323.18 14905.73,2040.56 14268.05,2040.56 14268.05,31.88 14905.73,31.88 14905.73,717.38 15511.54,717.38 15511.54,31.88 "/>
   <polygon id="8" class="fil0" points="17599.94,2040.56 17105.73,1179.71 17105.73,2040.56 16468.05,2040.56 16468.05,31.88 17105.73,31.88 17105.73,876.79 17536.16,31.88 18253.56,31.88 17679.64,1020.27 18317.32,2040.56 "/>
   <polygon id="9" class="fil0" points="19082.54,31.88 19082.54,1068.11 19783.98,31.88 20357.9,31.88 20357.9,2040.56 19720.22,2040.56 19720.22,1004.33 19018.78,2040.56 18444.86,2040.56 18444.86,31.88 "/>
   <polygon class="fil0" points="3926.29,2757.5 3748.4,2757.5 3748.4,3251.12 3675.87,3251.12 3675.87,2757.5 3498.34,2757.5 3498.34,2697.56 3926.29,2697.56 "/>
   <path id="1" class="fil0" d="M4104.59 3148.09l95.77 -308.07 75.27 0 -165.33 474.41c-25.67,68.38 -66.3,102.52 -122.1,102.52l-13.24 -1.16 -26.2 -4.93 0 -56.98 18.94 1.56c23.88,0 42.42,-4.8 55.67,-14.38 13.37,-9.6 24.27,-27.25 32.95,-52.82l15.59 -41.66 -146.76 -406.55 76.82 0 102.63 308.07z"/>
   <path id="2" class="fil0" d="M4685.92 3050.11c0,62.68 -14.4,113.02 -42.95,151.3 -28.68,38.28 -67.46,57.49 -116.4,57.49 -49.81,0 -89.15,-15.83 -117.82,-47.49l0 197.76 -70.31 0 0 -569.15 64.22 0 3.51 45.43c28.55,-35.43 68.38,-53.21 119.25,-53.21 49.44,0 88.62,18.68 117.3,55.93 28.81,37.25 43.21,89.01 43.21,155.45l0 6.49zm-70.31 -7.91c0,-46.33 -9.87,-82.92 -29.73,-109.78 -19.71,-26.86 -46.83,-40.23 -81.36,-40.23 -42.56,0 -74.48,18.83 -95.77,56.59l0 196.34c21.03,37.49 53.21,56.17 96.56,56.17 33.74,0 60.6,-13.35 80.44,-40.1 19.86,-26.73 29.86,-66.3 29.86,-118.99z"/>
   <polygon id="3" class="fil0" points="5111.29,3251.12 5040.97,3251.12 5040.97,3075.94 4852.02,3075.94 4852.02,3251.12 4781.32,3251.12 4781.32,2840.03 4852.02,2840.03 4852.02,3018.32 5040.97,3018.32 5040.97,2840.03 5111.29,2840.03 "/>
   <polygon id="4" class="fil0" points="5490.32,2840.03 5560.66,2840.03 5560.66,3251.12 5490.32,3251.12 5490.32,2951.36 5300.63,3251.12 5230.29,3251.12 5230.29,2840.03 5300.63,2840.03 5300.63,3140.18 "/>
   <path id="5" class="fil0" d="M6021.06 3050.11c0,62.68 -14.4,113.02 -42.95,151.3 -28.68,38.28 -67.46,57.49 -116.4,57.49 -49.81,0 -89.15,-15.83 -117.82,-47.49l0 197.76 -70.31 0 0 -569.15 64.22 0 3.51 45.43c28.55,-35.43 68.38,-53.21 119.25,-53.21 49.44,0 88.62,18.68 117.3,55.93 28.81,37.25 43.21,89.01 43.21,155.45l0 6.49zm-70.31 -7.91c0,-46.33 -9.87,-82.92 -29.73,-109.78 -19.71,-26.86 -46.83,-40.23 -81.36,-40.23 -42.56,0 -74.48,18.83 -95.77,56.59l0 196.34c21.03,37.49 53.21,56.17 96.56,56.17 33.74,0 60.6,-13.35 80.44,-40.1 19.86,-26.73 29.86,-66.3 29.86,-118.99z"/>
   <polygon id="6" class="fil0" points="6539.86,3158.07 6679.87,2840.03 6767.6,2840.03 6767.6,3251.12 6697.26,3251.12 6697.26,2952.15 6564.26,3251.12 6515.59,3251.12 6379.85,2945.66 6379.85,3251.12 6309.54,3251.12 6309.54,2840.03 6400.75,2840.03 "/>
   <path id="7" class="fil0" d="M7134.42 3251.12c-4.01,-8.05 -7.26,-22.45 -9.87,-43.21 -32.69,34.01 -71.76,51 -117.03,51 -40.63,0 -73.84,-11.42 -99.8,-34.38 -25.94,-22.98 -38.92,-52.05 -38.92,-87.22 0,-42.82 16.22,-76.17 48.78,-99.78 32.58,-23.74 78.38,-35.56 137.42,-35.56l68.38 0 0 -32.3c0,-24.53 -7.26,-44.13 -21.92,-58.78 -14.8,-14.54 -36.46,-21.82 -65.01,-21.82 -25.19,0 -46.2,6.36 -63.21,18.94 -16.99,12.72 -25.43,28.04 -25.43,45.95l-70.71 0c0,-20.5 7.26,-40.36 21.79,-59.57 14.67,-19.07 34.38,-34.25 59.44,-45.41 24.91,-11.16 52.29,-16.75 82.26,-16.75 47.36,0 84.48,11.82 111.33,35.56 26.86,23.61 40.87,56.3 41.79,97.83l0 189.32c0,37.78 4.93,67.75 14.54,90.07l0 6.1 -73.84 0zm-116.66 -52.16c22.08,0 42.95,-5.72 62.68,-17.25 19.86,-11.42 34.14,-26.49 42.95,-44.77l0 -85.13 -55.01 0c-86.16,0 -129.25,25.43 -129.25,76.3 0,22.19 7.26,39.57 21.92,52.05 14.8,12.58 33.61,18.81 56.7,18.81z"/>
   <path id="8" class="fil0" d="M7468.82 3201.28c25.17,0 47.09,-7.52 65.8,-22.69 18.81,-15.19 29.18,-34.14 31.13,-56.98l66.56 0c-1.29,23.63 -9.34,46.06 -24.25,67.35 -15.06,21.29 -35.04,38.28 -59.96,51 -24.91,12.58 -51.37,18.94 -79.28,18.94 -55.93,0 -100.57,-18.68 -133.65,-56.06 -32.95,-37.36 -49.57,-88.62 -49.57,-153.5l0 -11.82c0,-39.97 7.41,-75.64 22.06,-106.8 14.67,-31.13 35.83,-55.4 63.34,-72.66 27.49,-17.25 59.94,-25.83 97.43,-25.83 46.2,0 84.48,13.75 115.11,41.39 30.5,27.65 46.72,63.58 48.78,107.59l-66.56 0c-1.95,-26.62 -12.06,-48.54 -30.23,-65.66 -18.02,-17.12 -40.47,-25.7 -67.09,-25.7 -35.67,0 -63.32,12.85 -83.05,38.54 -19.58,25.81 -29.45,62.92 -29.45,111.73l0 13.22c0,47.36 9.73,83.95 29.34,109.51 19.45,25.56 47.36,38.41 83.56,38.41z"/>
   <polygon id="9" class="fil0" points="8017.33,2896.86 7879.25,2896.86 7879.25,3251.12 7808.91,3251.12 7808.91,2896.86 7673.57,2896.86 7673.57,2840.03 8017.33,2840.03 "/>
   <path id="10" class="fil0" d="M8225.97 3258.9c-55.67,0 -101.07,-18.29 -136.11,-54.88 -34.9,-36.72 -52.42,-85.66 -52.42,-147.03l0 -12.98c0,-40.74 7.78,-77.2 23.35,-109.25 15.57,-32.05 37.38,-57.22 65.4,-75.27 28.02,-18.18 58.39,-27.25 91.1,-27.25 53.45,0 94.98,17.65 124.69,52.82 29.6,35.3 44.53,85.77 44.53,151.43l0 29.31 -278.73 0c1.03,40.5 12.85,73.18 35.54,98.11 22.71,24.91 51.52,37.36 86.56,37.36 24.78,0 45.8,-5.06 63.06,-15.17 17.25,-10.13 32.32,-23.48 45.3,-40.1l42.95 33.48c-34.51,52.95 -86.3,79.41 -155.21,79.41zm-8.68 -369.04c-28.41,0 -52.16,10.37 -71.5,31.13 -19.21,20.76 -31.16,49.84 -35.69,87.22l206.07 0 0 -5.33c-2.08,-35.96 -11.69,-63.71 -28.94,-83.45 -17.25,-19.71 -40.63,-29.58 -69.94,-29.58z"/>
   <path id="11" class="fil0" d="M8815.22 3050.11c0,62.68 -14.4,113.02 -42.95,151.3 -28.68,38.28 -67.46,57.49 -116.4,57.49 -49.81,0 -89.15,-15.83 -117.82,-47.49l0 197.76 -70.31 0 0 -569.15 64.22 0 3.51 45.43c28.55,-35.43 68.38,-53.21 119.25,-53.21 49.44,0 88.62,18.68 117.3,55.93 28.81,37.25 43.21,89.01 43.21,155.45l0 6.49zm-70.31 -7.91c0,-46.33 -9.87,-82.92 -29.73,-109.78 -19.71,-26.86 -46.83,-40.23 -81.36,-40.23 -42.56,0 -74.48,18.83 -95.77,56.59l0 196.34c21.03,37.49 53.21,56.17 96.56,56.17 33.74,0 60.6,-13.35 80.44,-40.1 19.86,-26.73 29.86,-66.3 29.86,-118.99z"/>
   <path id="12" class="fil0" d="M8885.82 3041.8c0,-40.34 7.91,-76.54 23.74,-108.73 15.83,-32.32 37.91,-57.09 66.19,-74.61 28.15,-17.52 60.47,-26.22 96.67,-26.22 56.06,0 101.34,19.34 136,58.14 34.51,38.78 51.76,90.44 51.76,154.79l0 4.93c0,40.1 -7.65,76.04 -22.96,107.85 -15.33,31.79 -37.25,56.57 -65.8,74.35 -28.41,17.78 -61.26,26.59 -98.22,26.59 -55.8,0 -100.96,-19.34 -135.47,-58.12 -34.66,-38.81 -51.92,-90.2 -51.92,-154.04l0 -4.93zm70.73 8.18c0,45.56 10.5,82.28 31.66,109.91 21.16,27.65 49.57,41.39 85,41.39 35.67,0 64.09,-14.01 85.11,-42.03 21.03,-28.04 31.53,-67.22 31.53,-117.69 0,-45.17 -10.63,-81.63 -32.05,-109.67 -21.4,-28.02 -49.81,-42.03 -85.38,-42.03 -34.64,0 -62.68,13.75 -83.95,41.39 -21.29,27.65 -31.92,67.22 -31.92,118.72z"/>
   <path id="13" class="fil0" d="M9354.92 3251.12l0 -411.09 160.38 0c54.75,0 96.8,9.6 126.13,28.68 29.18,19.07 43.85,47.12 43.85,84.08 0,19.07 -5.7,36.22 -17.12,51.52 -11.42,15.3 -28.28,26.99 -50.47,35.17 24.78,5.83 44.75,17.12 59.81,34.11 15.06,17.01 22.58,37.25 22.58,60.86 0,37.78 -13.88,66.56 -41.66,86.69 -27.65,19.97 -66.96,29.97 -117.56,29.97l-185.94 0zm70.31 -180.64l0 123.81 116.4 0c29.34,0 51.39,-5.46 65.93,-16.36 14.54,-10.9 21.79,-26.22 21.79,-45.93 0,-41 -30.1,-61.52 -90.44,-61.52l-113.68 0zm0 -56.04l90.83 0c65.93,0 98.88,-19.34 98.88,-57.88 0,-38.54 -31.13,-58.39 -93.55,-59.7l-96.16 0 0 117.58z"/>
   <path id="14" class="fil0" d="M10150.88 3201.28c25.17,0 47.09,-7.52 65.8,-22.69 18.81,-15.19 29.18,-34.14 31.13,-56.98l66.56 0c-1.29,23.63 -9.34,46.06 -24.25,67.35 -15.06,21.29 -35.04,38.28 -59.96,51 -24.91,12.58 -51.37,18.94 -79.28,18.94 -55.93,0 -100.57,-18.68 -133.65,-56.06 -32.95,-37.36 -49.57,-88.62 -49.57,-153.5l0 -11.82c0,-39.97 7.41,-75.64 22.06,-106.8 14.67,-31.13 35.83,-55.4 63.34,-72.66 27.49,-17.25 59.94,-25.83 97.43,-25.83 46.2,0 84.48,13.75 115.11,41.39 30.5,27.65 46.72,63.58 48.78,107.59l-66.56 0c-1.95,-26.62 -12.06,-48.54 -30.23,-65.66 -18.02,-17.12 -40.47,-25.7 -67.09,-25.7 -35.67,0 -63.32,12.85 -83.05,38.54 -19.58,25.81 -29.45,62.92 -29.45,111.73l0 13.22c0,47.36 9.73,83.95 29.34,109.51 19.45,25.56 47.36,38.41 83.56,38.41z"/>
   <polygon id="15" class="fil0" points="10521.74,3075.94 10470.48,3075.94 10470.48,3251.12 10399.77,3251.12 10399.77,2840.03 10470.48,2840.03 10470.48,3013.65 10516.41,3013.65 10654.88,2840.03 10740,2840.03 10577.27,3037.4 10753.74,3251.12 10664.36,3251.12 "/>
   <path id="16" class="fil0" d="M10787.49 3041.8c0,-40.34 7.91,-76.54 23.74,-108.73 15.83,-32.32 37.91,-57.09 66.19,-74.61 28.15,-17.52 60.47,-26.22 96.67,-26.22 56.06,0 101.34,19.34 136,58.14 34.51,38.78 51.76,90.44 51.76,154.79l0 4.93c0,40.1 -7.65,76.04 -22.96,107.85 -15.33,31.79 -37.25,56.57 -65.8,74.35 -28.41,17.78 -61.26,26.59 -98.22,26.59 -55.8,0 -100.96,-19.34 -135.47,-58.12 -34.66,-38.81 -51.92,-90.2 -51.92,-154.04l0 -4.93zm70.73 8.18c0,45.56 10.5,82.28 31.66,109.91 21.16,27.65 49.57,41.39 85,41.39 35.67,0 64.09,-14.01 85.11,-42.03 21.03,-28.04 31.53,-67.22 31.53,-117.69 0,-45.17 -10.63,-81.63 -32.05,-109.67 -21.4,-28.02 -49.81,-42.03 -85.38,-42.03 -34.64,0 -62.68,13.75 -83.95,41.39 -21.29,27.65 -31.92,67.22 -31.92,118.72z"/>
   <path id="17" class="fil0" d="M11597.72 3050.11c0,62.68 -14.4,113.02 -42.95,151.3 -28.68,38.28 -67.46,57.49 -116.4,57.49 -49.81,0 -89.15,-15.83 -117.82,-47.49l0 197.76 -70.31 0 0 -569.15 64.22 0 3.51 45.43c28.55,-35.43 68.38,-53.21 119.25,-53.21 49.44,0 88.62,18.68 117.3,55.93 28.81,37.25 43.21,89.01 43.21,155.45l0 6.49zm-70.31 -7.91c0,-46.33 -9.87,-82.92 -29.73,-109.78 -19.71,-26.86 -46.83,-40.23 -81.36,-40.23 -42.56,0 -74.48,18.83 -95.77,56.59l0 196.34c21.03,37.49 53.21,56.17 96.56,56.17 33.74,0 60.6,-13.35 80.44,-40.1 19.86,-26.73 29.86,-66.3 29.86,-118.99z"/>
   <path id="18" class="fil0" d="M11668.32 3041.8c0,-40.34 7.91,-76.54 23.74,-108.73 15.83,-32.32 37.91,-57.09 66.19,-74.61 28.15,-17.52 60.47,-26.22 96.67,-26.22 56.06,0 101.34,19.34 136,58.14 34.51,38.78 51.76,90.44 51.76,154.79l0 4.93c0,40.1 -7.65,76.04 -22.96,107.85 -15.33,31.79 -37.25,56.57 -65.8,74.35 -28.41,17.78 -61.26,26.59 -98.22,26.59 -55.8,0 -100.96,-19.34 -135.47,-58.12 -34.66,-38.81 -51.92,-90.2 -51.92,-154.04l0 -4.93zm70.73 8.18c0,45.56 10.5,82.28 31.66,109.91 21.16,27.65 49.57,41.39 85,41.39 35.67,0 64.09,-14.01 85.11,-42.03 21.03,-28.04 31.53,-67.22 31.53,-117.69 0,-45.17 -10.63,-81.63 -32.05,-109.67 -21.4,-28.02 -49.81,-42.03 -85.38,-42.03 -34.64,0 -62.68,13.75 -83.95,41.39 -21.29,27.65 -31.92,67.22 -31.92,118.72z"/>
   <path id="19" class="fil0" d="M12295.85 3201.28c25.17,0 47.09,-7.52 65.8,-22.69 18.81,-15.19 29.18,-34.14 31.13,-56.98l66.56 0c-1.29,23.63 -9.34,46.06 -24.25,67.35 -15.06,21.29 -35.04,38.28 -59.96,51 -24.91,12.58 -51.37,18.94 -79.28,18.94 -55.93,0 -100.57,-18.68 -133.65,-56.06 -32.95,-37.36 -49.57,-88.62 -49.57,-153.5l0 -11.82c0,-39.97 7.41,-75.64 22.06,-106.8 14.67,-31.13 35.83,-55.4 63.34,-72.66 27.49,-17.25 59.94,-25.83 97.43,-25.83 46.2,0 84.48,13.75 115.11,41.39 30.5,27.65 46.72,63.58 48.78,107.59l-66.56 0c-1.95,-26.62 -12.06,-48.54 -30.23,-65.66 -18.02,-17.12 -40.47,-25.7 -67.09,-25.7 -35.67,0 -63.32,12.85 -83.05,38.54 -19.58,25.81 -29.45,62.92 -29.45,111.73l0 13.22c0,47.36 9.73,83.95 29.34,109.51 19.45,25.56 47.36,38.41 83.56,38.41z"/>
   <polygon id="20" class="fil0" points="12844.36,2896.86 12706.28,2896.86 12706.28,3251.12 12635.94,3251.12 12635.94,2896.86 12500.6,2896.86 12500.6,2840.03 12844.36,2840.03 "/>
   <polygon id="21" class="fil0" points="13248.81,3251.12 13178.5,3251.12 13178.5,3075.94 12989.55,3075.94 12989.55,3251.12 12918.84,3251.12 12918.84,2840.03 12989.55,2840.03 12989.55,3018.32 13178.5,3018.32 13178.5,2840.03 13248.81,2840.03 "/>
   <path id="22" class="fil0" d="M13343.02 3041.8c0,-40.34 7.91,-76.54 23.74,-108.73 15.83,-32.32 37.91,-57.09 66.19,-74.61 28.15,-17.52 60.47,-26.22 96.67,-26.22 56.06,0 101.34,19.34 136,58.14 34.51,38.78 51.76,90.44 51.76,154.79l0 4.93c0,40.1 -7.65,76.04 -22.96,107.85 -15.33,31.79 -37.25,56.57 -65.8,74.35 -28.41,17.78 -61.26,26.59 -98.22,26.59 -55.8,0 -100.96,-19.34 -135.47,-58.12 -34.66,-38.81 -51.92,-90.2 -51.92,-154.04l0 -4.93zm70.73 8.18c0,45.56 10.5,82.28 31.66,109.91 21.16,27.65 49.57,41.39 85,41.39 35.67,0 64.09,-14.01 85.11,-42.03 21.03,-28.04 31.53,-67.22 31.53,-117.69 0,-45.17 -10.63,-81.63 -32.05,-109.67 -21.4,-28.02 -49.81,-42.03 -85.38,-42.03 -34.64,0 -62.68,13.75 -83.95,41.39 -21.29,27.65 -31.92,67.22 -31.92,118.72z"/>
   <path id="23" class="fil0" d="M14071.89 2840.03l70.33 0 0 411.09 -70.33 0 0 -299.76 -189.69 299.76 -70.33 0 0 -411.09 70.33 0 0 300.15 189.69 -300.15zm19.07 -151.04c0,30.89 -10.5,55.8 -31.4,74.61 -20.89,18.81 -48.39,28.17 -82.26,28.17 -34.01,0 -61.52,-9.49 -82.52,-28.44 -21.03,-18.81 -31.55,-43.72 -31.55,-74.35l57.36 0c0,17.78 4.8,31.66 14.4,41.79 9.73,10 23.74,15.04 42.31,15.04 17.65,0 31.53,-4.93 41.53,-14.91 10.11,-9.87 15.04,-23.88 15.04,-41.92l57.09 0z"/>
   <polygon id="24" class="fil0" points="14784.29,3251.12 14713.96,3251.12 14713.96,2898.44 14524.63,2898.44 14524.63,3251.12 14453.93,3251.12 14453.93,2840.03 14784.29,2840.03 "/>
   <path id="25" class="fil0" d="M15067.95 3258.9c-55.67,0 -101.07,-18.29 -136.11,-54.88 -34.9,-36.72 -52.42,-85.66 -52.42,-147.03l0 -12.98c0,-40.74 7.78,-77.2 23.35,-109.25 15.57,-32.05 37.38,-57.22 65.4,-75.27 28.02,-18.18 58.39,-27.25 91.1,-27.25 53.45,0 94.98,17.65 124.69,52.82 29.6,35.3 44.53,85.77 44.53,151.43l0 29.31 -278.73 0c1.03,40.5 12.85,73.18 35.54,98.11 22.71,24.91 51.52,37.36 86.56,37.36 24.78,0 45.8,-5.06 63.06,-15.17 17.25,-10.13 32.32,-23.48 45.3,-40.1l42.95 33.48c-34.51,52.95 -86.3,79.41 -155.21,79.41zm-8.68 -369.04c-28.41,0 -52.16,10.37 -71.5,31.13 -19.21,20.76 -31.16,49.84 -35.69,87.22l206.07 0 0 -5.33c-2.08,-35.96 -11.69,-63.71 -28.94,-83.45 -17.25,-19.71 -40.63,-29.58 -69.94,-29.58z"/>
   <path id="26" class="fil0" d="M15620.11 3251.12l-70.6 0 0 -149.22c-31.02,8.18 -62.68,12.19 -95.11,12.19 -51.39,0 -90.7,-13.24 -117.69,-39.57 -26.99,-26.35 -40.76,-63.85 -41.15,-112.5l0 -122.76 70.33 0 0 125.08c1.18,61.39 30.76,92.13 88.51,92.13 32.43,0 64.09,-4.01 95.11,-12.19l0 -204.25 70.6 0 0 411.09z"/>
   <path id="27" class="fil0" d="M15986.8 3251.12c-4.01,-8.05 -7.26,-22.45 -9.87,-43.21 -32.69,34.01 -71.76,51 -117.03,51 -40.63,0 -73.84,-11.42 -99.8,-34.38 -25.94,-22.98 -38.92,-52.05 -38.92,-87.22 0,-42.82 16.22,-76.17 48.78,-99.78 32.58,-23.74 78.38,-35.56 137.42,-35.56l68.38 0 0 -32.3c0,-24.53 -7.26,-44.13 -21.92,-58.78 -14.8,-14.54 -36.46,-21.82 -65.01,-21.82 -25.19,0 -46.2,6.36 -63.21,18.94 -16.99,12.72 -25.43,28.04 -25.43,45.95l-70.71 0c0,-20.5 7.26,-40.36 21.79,-59.57 14.67,-19.07 34.38,-34.25 59.44,-45.41 24.91,-11.16 52.29,-16.75 82.26,-16.75 47.36,0 84.48,11.82 111.33,35.56 26.86,23.61 40.87,56.3 41.79,97.83l0 189.32c0,37.78 4.93,67.75 14.54,90.07l0 6.1 -73.84 0zm-116.66 -52.16c22.08,0 42.95,-5.72 62.68,-17.25 19.86,-11.42 34.14,-26.49 42.95,-44.77l0 -85.13 -55.01 0c-86.16,0 -129.25,25.43 -129.25,76.3 0,22.19 7.26,39.57 21.92,52.05 14.8,12.58 33.61,18.81 56.7,18.81z"/>
   <polygon id="28" class="fil0" points="16456.03,2896.86 16317.95,2896.86 16317.95,3251.12 16247.62,3251.12 16247.62,2896.86 16112.28,2896.86 16112.28,2840.03 16456.03,2840.03 "/>
   <polygon id="29" class="fil0" points="16790.54,2840.03 16860.88,2840.03 16860.88,3251.12 16790.54,3251.12 16790.54,2951.36 16600.85,3251.12 16530.51,3251.12 16530.51,2840.03 16600.85,2840.03 16600.85,3140.18 "/>
  </g>
 </g>
</svg>
