<?xml version="1.0" encoding="UTF-8"?>
<!DOCTYPE svg PUBLIC "-//W3C//DTD SVG 1.1//EN" "http://www.w3.org/Graphics/SVG/1.1/DTD/svg11.dtd">
<!-- Creator: CorelDRAW 2020 (64-Bit) -->
<svg xmlns="http://www.w3.org/2000/svg" xml:space="preserve" width="500px" height="517px" version="1.1" style="shape-rendering:geometricPrecision; text-rendering:geometricPrecision; image-rendering:optimizeQuality; fill-rule:evenodd; clip-rule:evenodd"
viewBox="0 0 5669 5867.77"
 xmlns:xlink="http://www.w3.org/1999/xlink"
 xmlns:xodm="http://www.corel.com/coreldraw/odm/2003">
 <defs>
  <style type="text/css">
   <![CDATA[
    .fil0 {fill:#052E59}
    .fil1 {fill:#09021F}
    .fil2 {fill:#10043B}
    .fil3 {fill:#E2FF0D}
    .fil5 {fill:white}
    .fil4 {fill:white;fill-rule:nonzero}
   ]]>
  </style>
 </defs>
 <g id="Слой_x0020_1">
  <metadata id="CorelCorpID_0Corel-Layer"/>
  <g id="_2232058847440">
   <g>
    <g>
     <polygon class="fil0" points="2834.5,149.57 3693.91,703.37 4553.32,1257.17 691.16,3745.95 903.42,2501.56 1115.68,1257.17 1975.09,703.37 "/>
     <polygon class="fil1" points="4977.84,3745.95 4383.11,4743.87 3788.38,5741.79 2834.5,5741.79 1880.62,5741.79 1285.9,4743.87 691.16,3745.95 "/>
     <polygon class="fil2" points="4977.84,3745.95 4553.32,1257.17 691.16,3745.95 "/>
    </g>
    <path class="fil3" d="M2902.42 43.76l1765.63 1137.77c147.23,862.87 294.47,1725.75 441.55,2588.65 -416.64,699.23 -833.42,1398.39 -1250.1,2097.59l-2049.99 0c-416.73,-699.17 -833.46,-1398.36 -1250.1,-2097.59 147.07,-862.9 294.31,-1725.78 441.55,-2588.65l1833.54 -1181.53 67.92 43.76zm-67.92 105.81l1718.82 1107.6 424.52 2488.78 -1189.46 1995.84 -1907.76 0 -1189.46 -1995.84 424.52 -2488.78 1718.82 -1107.6z"/>
   </g>
   <polygon class="fil2" points="125.99,3070.34 5543.02,3070.34 5543.02,5132.98 125.99,5132.98 "/>
   <path class="fil3" d="M125.99 2944.35l574.22 0 -21.49 125.99 -552.73 0 0 2062.64 1245.56 0 75.1 125.98 -1446.65 0 0 -2314.61 125.99 0zm4842.8 0l700.21 0 0 2314.61 -1446.67 0 75.1 -125.98 1245.59 0 0 -2062.64 -552.74 0 -21.49 -125.99z"/>
   <g>
    <path class="fil4" d="M1248.61 3699.97l-229.09 0 0 -225.81c0,-18.55 -11.73,-27.82 -35.18,-27.82 -24.55,0 -36.82,9.27 -36.82,27.82l0 791.99c0,18.54 12.27,27.81 36.82,27.81 23.45,0 35.18,-9.27 35.18,-28.09l0 -282.81 229.09 0 0 291.27c0,54.27 -26.73,97.91 -80.18,130.91 -53.45,32.72 -113.73,49.09 -181.09,49.09 -194.46,0 -291.81,-68.73 -291.81,-205.91l0 -736.63c0,-148.36 97.35,-222.54 291.81,-222.54 174.27,0 261.27,67.63 261.27,202.91l0 207.81zm52.64 285.27l229.08 0 0 262.91c0,26.18 15.82,39.27 47.46,39.27 30.54,0 45.82,-13.09 45.82,-39l0 -135.54c0,-41.46 -27.82,-90.27 -83.18,-146.18 -107.18,-103.64 -173.73,-173.46 -199.91,-208.91 -26.18,-35.73 -39.27,-74.73 -39.27,-117.55l0 -128.45c0,-148.36 97.36,-222.54 291.81,-222.54 174.27,0 261.27,67.63 261.27,202.91l0 198.27 -229.09 0 0 -210c0,-22.64 -12.82,-34.09 -38.45,-34.09 -30,0 -45,21.54 -45,64.64l4.91 74.45c0,42.54 28.36,91.91 85.09,148.36 105.27,100.63 172.36,170.73 201,210.54 28.63,40.09 42.81,85.09 42.81,135.82l0 145.9c0,152.19 -97.36,228.28 -292.36,228.28 -187.9,0 -281.99,-69.28 -281.99,-207.82l0 -261.27zm1505.16 459.27l-224.18 0 0 -643.08 -131.18 643.08 -173.45 0 -150.27 -643.08 0 643.08 -196.36 0 0 -1145.44 323.45 0 115.09 594.26 100.09 -594.26 336.81 0 0 1145.44zm898.35 -744.54l-229.09 0 0 -225.81c0,-18.55 -11.73,-27.82 -35.18,-27.82 -24.55,0 -36.82,9.27 -36.82,27.82l0 791.99c0,18.54 12.27,27.81 36.82,27.81 23.45,0 35.18,-9.27 35.18,-28.09l0 -282.81 229.09 0 0 291.27c0,54.27 -26.73,97.91 -80.18,130.91 -53.45,32.72 -113.73,49.09 -181.09,49.09 -194.45,0 -291.81,-68.73 -291.81,-205.91l0 -736.63c0,-148.36 97.36,-222.54 291.81,-222.54 174.27,0 261.27,67.63 261.27,202.91l0 207.81zm52.64 -400.9l251.99 0 0 960.53c0,22.91 14.19,34.36 42.27,34.36 27.55,0 41.19,-11.45 41.19,-34.36l0 -960.53 252 0 0 947.72c0,65.99 -27.55,116.99 -82.37,153.26 -54.82,36.27 -125.18,54.28 -210.82,54.28 -79.63,0 -148.36,-16.37 -206.72,-48.82 -58.36,-32.46 -87.54,-84.82 -87.54,-157.09l0 -949.35zm887.16 723.26l0 422.18 -245.44 0 0 -1145.44 264.54 0c104.73,0 182.72,13.36 233.45,39.81 51,26.73 76.36,81 76.36,163.1l0 317.45c0,75.27 -20.72,128.17 -62.18,159.27 -41.72,31.36 -130.36,45.81 -266.73,43.63zm83.46 -224.18l0 -274.9c0,-40.37 -27.82,-60.55 -83.46,-60.55l0 396c55.64,0 83.46,-20.19 83.46,-60.55z"/>
    <path class="fil4" d="M1129.74 4860.13c-30.41,0 -55.57,-10.05 -75.47,-30.14 -19.89,-20.08 -29.84,-44.66 -29.84,-73.75 0,-29.07 9.95,-53.65 29.84,-73.74 19.9,-20.09 45.06,-30.13 75.47,-30.13 18.56,0 35.59,4.44 51.08,13.34 15.5,8.89 27.46,20.9 35.87,36.01l-17.79 10.34c-6.31,-12.25 -15.69,-22.01 -28.12,-29.28 -12.44,-7.26 -26.11,-10.9 -41.04,-10.9 -25.06,0 -45.53,8.13 -61.4,24.39 -15.88,16.26 -23.82,36.25 -23.82,59.97 0,23.73 7.94,43.72 23.82,59.98 15.87,16.26 36.34,24.39 61.4,24.39 14.93,0 28.6,-3.63 41.04,-10.91 12.43,-7.26 21.81,-17.02 28.12,-29.26l17.79 10.04c-8.22,15.11 -20.13,27.16 -35.72,36.16 -15.6,8.99 -32.67,13.49 -51.23,13.49zm236.02 -21.67c-14.63,14.44 -32.47,21.67 -53.51,21.67 -21.05,0 -38.89,-7.23 -53.52,-21.67 -14.63,-14.45 -21.96,-32.28 -21.96,-53.52 0,-21.23 7.33,-39.07 21.96,-53.52 14.63,-14.44 32.47,-21.66 53.52,-21.66 21.04,0 38.88,7.22 53.51,21.66 14.64,14.45 21.95,32.29 21.95,53.52 0,21.24 -7.31,39.07 -21.95,53.52zm-93.69 -13.2c10.9,11 24.3,16.5 40.18,16.5 15.88,0 29.26,-5.5 40.17,-16.5 10.9,-11 16.35,-24.44 16.35,-40.32 0,-15.88 -5.45,-29.32 -16.35,-40.31 -10.91,-11 -24.29,-16.51 -40.17,-16.51 -15.88,0 -29.28,5.51 -40.18,16.51 -10.9,10.99 -16.36,24.43 -16.36,40.31 0,15.88 5.46,29.32 16.36,40.32zm248.22 -112.06l18.94 0 0 143.48 -18.94 0 0 -22.38c-10.71,17.21 -26.78,25.83 -48.21,25.83 -17.41,0 -31.13,-5.31 -41.18,-15.93 -10.04,-10.62 -15.06,-24.92 -15.06,-42.9l0 -88.1 18.94 0 0 88.1c0,12.82 3.4,22.76 10.19,29.84 6.79,7.08 16.4,10.62 28.83,10.62 13.78,0 24.97,-4.35 33.58,-13.06 8.61,-8.7 12.91,-22.14 12.91,-40.31l0 -75.19zm126.26 -3.44c17.41,0 31.14,5.31 41.18,15.93 10.05,10.61 15.06,24.91 15.06,42.89l0 88.1 -18.93 0 0 -88.1c0,-12.81 -3.4,-22.76 -10.19,-29.84 -6.79,-7.08 -16.4,-10.62 -28.84,-10.62 -13.77,0 -24.96,4.36 -33.57,13.06 -8.61,8.7 -12.91,22.14 -12.91,40.32l0 75.18 -18.94 0 0 -143.48 18.94 0 0 22.38c10.71,-17.22 26.77,-25.82 48.2,-25.82zm169.02 21.81l-41.32 0 0 86.94c0,7.85 1.53,13.44 4.59,16.79 3.06,3.35 7.65,5.07 13.78,5.17 6.12,0.09 13.77,-0.05 22.95,-0.43l0 16.64c-20.08,3.06 -35.15,1.62 -45.2,-4.3 -10.04,-5.94 -15.06,-17.22 -15.06,-33.87l0 -86.94 -30.13 0 0 -18.37 30.13 0 0 -34.43 18.94 -5.74 0 40.17 41.32 0 0 18.37zm89.25 -21.81c21.23,0 38.4,7.5 51.5,22.53 13.11,15.01 19.66,32.76 19.66,53.23 0,2.1 -0.19,5.06 -0.57,8.89l-125.97 0c1.91,14.54 8.08,26.06 18.5,34.58 10.43,8.51 23.3,12.77 38.6,12.77 10.9,0 20.33,-2.25 28.27,-6.75 7.93,-4.49 13.91,-10.38 17.93,-17.64l16.64 9.75c-6.31,10.14 -14.92,18.18 -25.82,24.11 -10.91,5.93 -23.34,8.9 -37.31,8.9 -22.57,0 -40.94,-7.09 -55.09,-21.24 -14.16,-14.16 -21.24,-32.14 -21.24,-53.95 0,-21.43 6.99,-39.31 20.95,-53.66 13.96,-14.35 31.95,-21.52 53.95,-21.52zm0 18.36c-14.92,0 -27.41,4.45 -37.45,13.34 -10.04,8.9 -16.02,20.43 -17.93,34.59l107.03 0c-1.91,-15.12 -7.75,-26.88 -17.5,-35.3 -9.76,-8.42 -21.14,-12.63 -34.15,-12.63zm120.23 8.9c8.8,-17.41 23.91,-26.11 45.34,-26.11l0 18.36c-13.01,0 -23.81,3.83 -32.43,11.48 -8.6,7.65 -12.91,19.7 -12.91,36.15l0 79.78 -18.94 0 0 -143.48 18.94 0 0 23.82zm286.38 123.11c-18.36,0 -34.1,-4.36 -47.2,-13.06 -13.11,-8.71 -22.24,-20.71 -27.41,-36.02l17.22 -10.04c3.64,12.43 10.33,22.14 20.09,29.12 9.76,6.99 22.28,10.48 37.59,10.48 14.92,0 26.54,-3.3 34.86,-9.9 8.33,-6.6 12.49,-15.35 12.49,-26.25 0,-10.53 -3.83,-18.47 -11.48,-23.82 -7.65,-5.36 -20.28,-10.91 -37.88,-16.65 -20.85,-6.88 -34.62,-12.43 -41.32,-16.64 -15.31,-9.18 -22.96,-22.48 -22.96,-39.89 0,-17.02 5.93,-30.46 17.8,-40.31 11.86,-9.86 26.49,-14.78 43.9,-14.78 15.69,0 29.27,4.06 40.75,12.19 11.48,8.13 19.99,18.51 25.54,31.14l-16.94 9.47c-9.18,-22.2 -25.63,-33.29 -49.35,-33.29 -12.44,0 -22.48,3.06 -30.13,9.18 -7.66,6.12 -11.48,14.64 -11.48,25.54 0,9.95 3.44,17.41 10.33,22.38 6.89,4.98 18.27,10.04 34.15,15.21 7.27,2.49 12.48,4.26 15.64,5.31 3.15,1.05 7.74,2.77 13.77,5.17 6.03,2.39 10.48,4.49 13.35,6.31 2.87,1.82 6.35,4.3 10.47,7.46 4.11,3.15 7.08,6.31 8.9,9.47 1.81,3.15 3.44,6.98 4.88,11.48 1.43,4.49 2.14,9.32 2.14,14.49 0,17.03 -6.21,30.66 -18.65,40.89 -12.43,10.24 -28.79,15.36 -49.07,15.36zm171.03 -128.56l-41.33 0 0 86.94c0,7.85 1.53,13.44 4.6,16.79 3.06,3.35 7.65,5.07 13.77,5.17 6.12,0.09 13.78,-0.05 22.96,-0.43l0 16.64c-20.09,3.06 -35.15,1.62 -45.2,-4.3 -10.04,-5.94 -15.07,-17.22 -15.07,-33.87l0 -86.94 -30.13 0 0 -18.37 30.13 0 0 -34.43 18.94 -5.74 0 40.17 41.33 0 0 18.37zm50.5 5.45c8.8,-17.41 23.91,-26.11 45.34,-26.11l0 18.36c-13.01,0 -23.81,3.83 -32.43,11.48 -8.6,7.65 -12.91,19.7 -12.91,36.15l0 79.78 -18.94 0 0 -143.48 18.94 0 0 23.82zm90.39 -58.25c-2.68,2.67 -5.93,4.01 -9.75,4.01 -3.83,0 -7.08,-1.34 -9.76,-4.01 -2.68,-2.68 -4.02,-5.93 -4.02,-9.76 0,-3.83 1.34,-7.08 4.02,-9.76 2.68,-2.67 5.93,-4.01 9.76,-4.01 3.82,0 7.07,1.34 9.75,4.01 2.68,2.68 4.02,5.93 4.02,9.76 0,3.83 -1.34,7.08 -4.02,9.76zm-19.22 177.91l0 -143.48 18.94 0 0 143.48 -18.94 0zm175.04 0l-25.26 0 -71.73 -69.16 0 69.16 -18.94 0 0 -200.87 18.94 0 0 120.81 68.29 -63.42 25.83 0 -74.04 68.87 76.91 74.61zm77.77 -146.92c21.23,0 38.4,7.5 51.5,22.53 13.11,15.01 19.66,32.76 19.66,53.23 0,2.1 -0.19,5.06 -0.58,8.89l-125.97 0c1.91,14.54 8.08,26.06 18.51,34.58 10.42,8.51 23.29,12.77 38.6,12.77 10.9,0 20.32,-2.25 28.26,-6.75 7.94,-4.49 13.92,-10.38 17.94,-17.64l16.64 9.75c-6.32,10.14 -14.92,18.18 -25.83,24.11 -10.9,5.93 -23.34,8.9 -37.3,8.9 -22.58,0 -40.94,-7.09 -55.1,-21.24 -14.15,-14.16 -21.24,-32.14 -21.24,-53.95 0,-21.43 6.99,-39.31 20.96,-53.66 13.96,-14.35 31.94,-21.52 53.95,-21.52zm0 18.36c-14.93,0 -27.41,4.45 -37.46,13.34 -10.04,8.9 -16.02,20.43 -17.93,34.59l107.03 0c-1.91,-15.12 -7.74,-26.88 -17.5,-35.3 -9.76,-8.42 -21.14,-12.63 -34.14,-12.63zm359.55 -72.31l0 200.87 -20.09 0 0 -170.45 -70.3 117.65 -2.87 0 -70.3 -117.65 0 170.45 -20.09 0 0 -200.87 24.96 0 66.86 111.92 66.87 -111.92 24.96 0zm166.43 57.39l18.94 0 0 143.48 -18.94 0 0 -28.12c-13.19,21.04 -32.51,31.57 -57.96,31.57 -20.47,0 -37.93,-7.28 -52.37,-21.82 -14.44,-14.53 -21.67,-32.32 -21.67,-53.37 0,-21.04 7.23,-38.83 21.67,-53.37 14.44,-14.54 31.9,-21.81 52.37,-21.81 25.45,0 44.77,10.52 57.96,31.56l0 -28.12zm-96.7 112.06c10.9,11 24.29,16.5 40.18,16.5 15.88,0 29.26,-5.5 40.17,-16.5 10.9,-11 16.35,-24.44 16.35,-40.32 0,-15.88 -5.45,-29.32 -16.35,-40.31 -10.91,-11 -24.29,-16.51 -40.17,-16.51 -15.89,0 -29.28,5.51 -40.18,16.51 -10.91,10.99 -16.36,24.43 -16.36,40.31 0,15.88 5.45,29.32 16.36,40.32zm170.74 -74.47c0,6.51 2.87,11.67 8.61,15.5 5.73,3.82 12.72,6.79 20.94,8.89 8.23,2.11 16.46,4.45 24.69,7.03 8.22,2.59 15.2,6.89 20.94,12.92 5.74,6.02 8.61,13.91 8.61,23.67 0,12.24 -4.83,22.19 -14.49,29.84 -9.66,7.66 -22.15,11.49 -37.45,11.49 -13.77,0 -25.49,-3.07 -35.15,-9.19 -9.66,-6.12 -16.41,-14.06 -20.23,-23.82l16.07 -9.47c2.67,7.47 7.51,13.35 14.49,17.65 6.98,4.3 15.26,6.46 24.82,6.46 9.37,0 17.22,-1.87 23.53,-5.6 6.31,-3.73 9.47,-9.51 9.47,-17.36 0,-6.51 -2.87,-11.67 -8.61,-15.49 -5.74,-3.83 -12.72,-6.79 -20.94,-8.9 -8.23,-2.1 -16.46,-4.45 -24.68,-7.03 -8.23,-2.58 -15.21,-6.89 -20.95,-12.91 -5.74,-6.03 -8.61,-13.92 -8.61,-23.68 0,-11.66 4.64,-21.43 13.92,-29.26 9.28,-7.85 20.99,-11.77 35.15,-11.77 11.67,0 21.9,2.63 30.7,7.89 8.8,5.26 15.31,12.39 19.52,21.37l-15.79 9.19c-5.54,-13.39 -17.02,-20.09 -34.43,-20.09 -8.23,0 -15.3,1.96 -21.24,5.89 -5.93,3.92 -8.89,9.51 -8.89,16.78zm185.66 -19.22l-41.32 0 0 86.94c0,7.85 1.53,13.44 4.59,16.79 3.06,3.35 7.65,5.07 13.78,5.17 6.12,0.09 13.77,-0.05 22.95,-0.43l0 16.64c-20.08,3.06 -35.15,1.62 -45.2,-4.3 -10.04,-5.94 -15.06,-17.22 -15.06,-33.87l0 -86.94 -30.13 0 0 -18.37 30.13 0 0 -34.43 18.94 -5.74 0 40.17 41.32 0 0 18.37zm89.25 -21.81c21.23,0 38.4,7.5 51.5,22.53 13.11,15.01 19.66,32.76 19.66,53.23 0,2.1 -0.19,5.06 -0.57,8.89l-125.97 0c1.91,14.54 8.08,26.06 18.5,34.58 10.43,8.51 23.3,12.77 38.6,12.77 10.9,0 20.33,-2.25 28.27,-6.75 7.93,-4.49 13.91,-10.38 17.93,-17.64l16.64 9.75c-6.31,10.14 -14.92,18.18 -25.82,24.11 -10.91,5.93 -23.34,8.9 -37.31,8.9 -22.57,0 -40.94,-7.09 -55.09,-21.24 -14.16,-14.16 -21.24,-32.14 -21.24,-53.95 0,-21.43 6.99,-39.31 20.95,-53.66 13.96,-14.35 31.95,-21.52 53.95,-21.52zm0 18.36c-14.92,0 -27.41,4.45 -37.45,13.34 -10.04,8.9 -16.02,20.43 -17.93,34.59l107.03 0c-1.91,-15.12 -7.75,-26.88 -17.5,-35.3 -9.76,-8.42 -21.14,-12.63 -34.15,-12.63zm120.23 8.9c8.8,-17.41 23.91,-26.11 45.34,-26.11l0 18.36c-13.01,0 -23.81,3.83 -32.43,11.48 -8.6,7.65 -12.91,19.7 -12.91,36.15l0 79.78 -18.94 0 0 -143.48 18.94 0 0 23.82zm80.35 13.77c0,6.51 2.87,11.67 8.61,15.5 5.73,3.82 12.72,6.79 20.94,8.89 8.23,2.11 16.46,4.45 24.69,7.03 8.22,2.59 15.2,6.89 20.94,12.92 5.74,6.02 8.61,13.91 8.61,23.67 0,12.24 -4.83,22.19 -14.49,29.84 -9.66,7.66 -22.15,11.49 -37.45,11.49 -13.77,0 -25.49,-3.07 -35.15,-9.19 -9.66,-6.12 -16.41,-14.06 -20.23,-23.82l16.07 -9.47c2.67,7.47 7.51,13.35 14.49,17.65 6.98,4.3 15.25,6.46 24.82,6.46 9.37,0 17.22,-1.87 23.53,-5.6 6.31,-3.73 9.47,-9.51 9.47,-17.36 0,-6.51 -2.87,-11.67 -8.61,-15.49 -5.74,-3.83 -12.72,-6.79 -20.94,-8.9 -8.23,-2.1 -16.46,-4.45 -24.68,-7.03 -8.23,-2.58 -15.22,-6.89 -20.95,-12.91 -5.74,-6.03 -8.61,-13.92 -8.61,-23.68 0,-11.66 4.64,-21.43 13.92,-29.26 9.28,-7.85 20.99,-11.77 35.15,-11.77 11.67,0 21.9,2.63 30.7,7.89 8.8,5.26 15.31,12.39 19.52,21.37l-15.79 9.19c-5.55,-13.39 -17.02,-20.09 -34.43,-20.09 -8.23,0 -15.3,1.96 -21.24,5.89 -5.93,3.92 -8.89,9.51 -8.89,16.78zm283.8 109.34c-30.41,0 -55.57,-10.05 -75.47,-30.14 -19.89,-20.08 -29.84,-44.66 -29.84,-73.75 0,-29.07 9.95,-53.65 29.84,-73.74 19.9,-20.09 45.06,-30.13 75.47,-30.13 18.56,0 35.58,4.44 51.08,13.34 15.5,8.89 27.45,20.9 35.87,36.01l-17.79 10.34c-6.32,-12.25 -15.69,-22.01 -28.12,-29.28 -12.44,-7.26 -26.12,-10.9 -41.04,-10.9 -25.06,0 -45.53,8.13 -61.41,24.39 -15.88,16.26 -23.82,36.25 -23.82,59.97 0,23.73 7.94,43.72 23.82,59.98 15.88,16.26 36.35,24.39 61.41,24.39 14.92,0 28.6,-3.63 41.04,-10.91 12.43,-7.26 21.8,-17.02 28.12,-29.26l17.79 10.04c-8.23,15.11 -20.14,27.16 -35.72,36.16 -15.6,8.99 -32.67,13.49 -51.23,13.49zm218.09 -146.93l18.94 0 0 143.48 -18.94 0 0 -22.38c-10.72,17.21 -26.79,25.83 -48.21,25.83 -17.41,0 -31.13,-5.31 -41.18,-15.93 -10.04,-10.62 -15.07,-24.92 -15.07,-42.9l0 -88.1 18.94 0 0 88.1c0,12.82 3.4,22.76 10.19,29.84 6.79,7.08 16.41,10.62 28.84,10.62 13.77,0 24.96,-4.35 33.58,-13.06 8.6,-8.7 12.91,-22.14 12.91,-40.31l0 -75.19zm136.01 -3.44c20.47,0 37.93,7.27 52.38,21.81 14.44,14.54 21.66,32.33 21.66,53.37 0,21.05 -7.22,38.84 -21.66,53.37 -14.45,14.54 -31.91,21.82 -52.38,21.82 -25.44,0 -44.76,-10.53 -57.96,-31.57l0 85.51 -18.94 0 0 -200.87 18.94 0 0 28.12c13.2,-21.04 32.52,-31.56 57.96,-31.56zm-41.6 115.5c10.9,11 24.3,16.5 40.17,16.5 15.88,0 29.27,-5.5 40.18,-16.5 10.9,-11 16.35,-24.44 16.35,-40.32 0,-15.88 -5.45,-29.32 -16.35,-40.31 -10.91,-11 -24.3,-16.51 -40.18,-16.51 -15.87,0 -29.27,5.51 -40.17,16.51 -10.91,10.99 -16.36,24.43 -16.36,40.31 0,15.88 5.45,29.32 16.36,40.32zm-2429.67 -48.06l0 -18.37 103.31 0 0 18.37 -103.31 0z"/>
   </g>
   <g>
    <path class="fil4" d="M2657.83 2668.42c-14.17,0 -27.69,-2.89 -40.57,-8.62 -12.87,-5.79 -24.15,-13.82 -33.84,-24.03 -9.67,-10.28 -17.41,-22.27 -23.2,-36.02 -5.73,-13.71 -8.62,-28.59 -8.62,-44.65 0,-15.76 2.89,-30.58 8.62,-44.46 5.79,-13.82 13.53,-25.87 23.2,-36.14 9.69,-10.27 20.97,-18.24 33.84,-24.03 12.88,-5.79 26.4,-8.68 40.57,-8.68 12.22,0 23.68,2.06 34.3,6.14 10.69,4.13 20.08,9.63 28.23,16.48 8.15,6.85 15.06,14.76 20.73,23.79 5.73,8.98 9.86,18.31 12.4,27.99l-35.49 0c-1.83,-5.67 -4.49,-11.22 -7.91,-16.71 -3.49,-5.43 -7.74,-10.16 -12.81,-14.17 -5.09,-3.96 -10.93,-7.21 -17.48,-9.68 -6.56,-2.49 -13.88,-3.72 -21.97,-3.72 -9.21,0 -18.19,2.06 -26.93,6.13 -8.68,4.08 -16.41,9.87 -23.14,17.31 -6.79,7.44 -12.23,16.23 -16.36,26.39 -4.14,10.16 -6.26,21.26 -6.26,33.36 0,11.99 2.12,23.09 6.26,33.25 4.13,10.16 9.57,18.95 16.36,26.39 6.73,7.44 14.46,13.23 23.14,17.36 8.74,4.14 17.72,6.26 26.93,6.26 8.74,0 16.83,-1.47 24.27,-4.43 7.44,-2.95 13.99,-6.91 19.66,-11.86 5.67,-4.96 10.34,-10.75 14,-17.37 3.72,-6.67 6.25,-13.69 7.61,-21.19l-67.31 0 0 -32.01 99.14 0 0 115.21 -24.74 0 -8.8 -21.26c-4.72,4.49 -10.33,8.38 -16.77,11.75 -5.43,2.89 -12.1,5.49 -20.02,7.79 -7.85,2.31 -16.88,3.43 -27.04,3.43z"/>
    <path id="1" class="fil4" d="M2859.72 2505.51c9.21,0 17.65,1.41 25.33,4.36 7.68,2.96 14.23,6.97 19.66,12.05 5.43,5.08 9.63,11.04 12.64,17.89 3.01,6.85 4.49,14.35 4.49,22.38l0 104.52 -23.03 0 -7.09 -15.95c-3.13,3.37 -6.79,6.32 -11.04,8.86 -3.84,2.3 -8.62,4.37 -14.41,6.14 -5.73,1.77 -12.64,2.66 -20.73,2.66 -17.77,0 -31.35,-4.37 -40.74,-13.23 -9.39,-8.8 -14.11,-20.31 -14.11,-34.48 0,-8.09 1.53,-15.41 4.61,-21.91 3.07,-6.49 8.32,-12.05 15.7,-16.59 7.44,-4.55 17.54,-8.15 30.29,-10.75 12.76,-2.6 28.94,-3.9 48.54,-3.9l0 -5.37c0,-8.03 -2.54,-14.53 -7.62,-19.37 -5.07,-4.84 -12.57,-7.26 -22.49,-7.26 -10.64,0 -18.31,1.89 -23.15,5.73 -4.84,3.77 -7.73,8.44 -8.68,13.81l-31.83 0c0.94,-14.17 6.85,-25.98 17.84,-35.42 10.92,-9.45 26.21,-14.17 45.82,-14.17zm-12.28 134.57c13.52,0 23.91,-3.49 31.29,-10.4 7.38,-6.91 11.1,-15.35 11.1,-25.27l0 -8.62c-14.17,0 -25.63,0.65 -34.36,1.95 -8.68,1.36 -15.53,3.12 -20.5,5.37 -4.96,2.24 -8.26,5.02 -9.91,8.33 -1.66,3.3 -2.55,6.97 -2.55,10.98 0,4.48 2.13,8.56 6.44,12.22 4.25,3.6 10.4,5.44 18.49,5.44z"/>
    <path id="2" class="fil4" d="M3123.73 2505.51c7.61,0 14.7,1.41 21.25,4.36 6.61,2.96 12.35,7.27 17.3,12.99 4.96,5.73 8.92,12.64 11.87,20.79 2.95,8.09 4.43,17.24 4.43,27.4l0 95.66 -31.88 0 0 -95.66c0,-10.63 -3.02,-19.2 -9.04,-25.69 -6.08,-6.55 -13.05,-9.8 -21.02,-9.8 -8.09,0 -15.12,3.25 -21.14,9.8 -5.96,6.49 -8.97,15.06 -8.97,25.69l0 95.66 -32.01 0 0 -95.66c0,-10.63 -3.01,-19.2 -8.97,-25.69 -6.03,-6.55 -13.06,-9.8 -21.15,-9.8 -8.09,0 -15.11,3.25 -21.07,9.8 -6.03,6.49 -9.04,15.06 -9.04,25.69l0 95.66 -31.83 0 0 -159.5 23.03 0 7.09 16.07c2.89,-3.31 6.31,-6.32 10.21,-8.98 3.37,-2.06 7.44,-4.07 12.29,-5.96 4.84,-1.89 10.33,-2.83 16.41,-2.83 7.62,0 14.17,1.23 19.54,3.83 5.44,2.6 10.04,5.49 13.88,8.56 4.25,3.84 7.91,7.97 10.87,12.46 0,0 1.06,-1.24 3.13,-3.78 1.94,-2.41 4.96,-5.25 8.97,-8.5 4.07,-3.19 9.04,-6.14 14.88,-8.74 5.91,-2.6 12.88,-3.83 20.97,-3.83z"/>
    <path id="3" class="fil4" d="M3252.93 2666.71l-31.83 0 0 -159.5 31.83 0 0 159.5zm-15.89 -184.23c-5.43,0 -10.03,-1.9 -13.81,-5.62 -3.84,-3.78 -5.73,-8.38 -5.73,-13.93 0,-5.43 1.89,-10.04 5.73,-13.76 3.78,-3.78 8.38,-5.61 13.81,-5.61 5.44,0 10.04,1.83 13.82,5.61 3.84,3.72 5.73,8.33 5.73,13.76 0,5.43 -1.89,10.04 -5.73,13.82 -3.78,3.83 -8.38,5.73 -13.82,5.73z"/>
    <path id="4" class="fil4" d="M3371.61 2505.51c8.8,0 17.07,1.7 24.87,5.13 7.79,3.48 14.52,8.21 20.3,14.23 5.8,5.97 10.34,13.23 13.71,21.67 3.3,8.5 4.95,17.89 4.95,28.11l0 92.06 -31.82 0 0 -92.06c0,-5.14 -1,-10.1 -3.01,-14.88 -2.01,-4.73 -4.72,-8.86 -8.21,-12.4 -3.48,-3.6 -7.44,-6.44 -11.93,-8.62 -4.49,-2.13 -9.21,-3.19 -14.17,-3.19 -5.43,0 -10.51,1.06 -15.23,3.19 -4.73,2.18 -8.86,5.02 -12.41,8.62 -3.48,3.54 -6.25,7.67 -8.26,12.34 -2.01,4.66 -3.07,9.69 -3.07,14.94l0 92.06 -31.83 0 0 -159.5 23.03 0 7.09 16.07c3.13,-3.31 6.73,-6.32 10.92,-8.98 3.78,-2.06 8.56,-4.07 14.35,-5.96 5.72,-1.89 12.69,-2.83 20.72,-2.83z"/>
    <path id="5" class="fil4" d="M3616.07 2507.21l0 152.41c0,9.69 -1.71,18.66 -5.13,26.87 -3.49,8.26 -8.33,15.41 -14.59,21.49 -6.2,6.02 -13.82,10.69 -22.79,14 -9.03,3.3 -19.01,4.96 -30.12,4.96 -9.68,0 -18.42,-1.36 -26.21,-4.08 -7.8,-2.72 -14.53,-6.32 -20.31,-10.8 -5.79,-4.55 -10.57,-9.75 -14.35,-15.77 -3.84,-6.03 -6.56,-12.34 -8.15,-19.01l31.82 0c2.66,5.37 6.85,10.33 12.64,14.7 5.79,4.37 13.93,6.55 24.56,6.55 12.58,0 22.5,-3.6 29.82,-10.8 7.33,-7.21 10.99,-16.6 10.99,-28.11l0 -15.94c-3.08,3.36 -6.8,6.31 -11.05,8.85 -3.83,2.31 -8.44,4.31 -13.81,6.15 -5.43,1.76 -11.93,2.65 -19.43,2.65 -9.68,0 -18.96,-2 -27.81,-5.96 -8.92,-3.95 -16.66,-9.45 -23.27,-16.42 -6.67,-6.96 -11.87,-15.23 -15.77,-24.68 -3.83,-9.45 -5.78,-19.72 -5.78,-30.76 0,-11.1 1.95,-21.32 5.78,-30.83 3.9,-9.44 9.1,-17.65 15.77,-24.62 6.61,-6.97 14.35,-12.52 23.27,-16.54 8.85,-4.01 18.13,-6.01 27.81,-6.01 8.09,0 15,0.94 20.79,2.83 5.78,1.89 10.51,3.9 14.17,5.96 4.31,2.66 7.97,5.67 11.1,8.98l7.08 -16.07 22.97 0zm-72.27 124.01c5.67,0 11.1,-1.24 16.41,-3.72 5.32,-2.48 9.98,-5.9 14,-10.28 4.07,-4.37 7.32,-9.45 9.8,-15.23 2.48,-5.73 3.72,-11.93 3.72,-18.48 0,-6.61 -1.24,-12.82 -3.72,-18.6 -2.48,-5.85 -5.73,-10.93 -9.8,-15.3 -4.02,-4.43 -8.74,-7.85 -14.17,-10.33 -5.44,-2.48 -10.93,-3.72 -16.6,-3.72 -5.66,0 -11.16,1.24 -16.59,3.72 -5.43,2.48 -10.15,5.9 -14.17,10.33 -4.07,4.37 -7.32,9.45 -9.8,15.18 -2.48,5.78 -3.73,12.05 -3.73,18.72 0,6.55 1.25,12.75 3.73,18.48 2.48,5.78 5.79,10.86 9.92,15.23 4.19,4.38 8.91,7.8 14.23,10.28 5.31,2.48 10.86,3.72 16.77,3.72z"/>
    <g>
     <polygon class="fil5" points="2871.75,1362.45 2303,1034.09 1734.25,1362.45 2303,1690.82 "/>
     <polygon class="fil5" points="2281.27,1728.34 1712.57,1400 1712.57,2056.74 2281.27,2385.08 "/>
     <path class="fil5" d="M2893.43 1400l-568.7 328.34 0 656.74 568.7 -328.34 0 -656.74zm-341.83 854.1l101.1 -58.37 0 -152.28 125.48 0 0 -97.6 -352.08 0 0 97.6 125.5 0 0 210.65z"/>
    </g>
    <path class="fil5" d="M2652.7 2385.08l-101.1 0 0 -130.98 101.1 -58.37 0 189.35zm442.71 -94.12c-4.19,13.01 -10.46,25.56 -18.83,37.64 -8.36,12.09 -18.82,22.9 -31.37,32.42 -12.55,9.53 -27.07,17.08 -43.57,22.66 -16.51,5.58 -35.21,8.37 -56.13,8.37 -21.85,0 -42.41,-4.3 -61.7,-12.9 -19.29,-8.6 -36.26,-20.45 -50.9,-35.56 -14.63,-15.11 -26.26,-32.77 -34.85,-52.98 -8.6,-20.22 -12.9,-42.18 -12.9,-65.89 0,-23.7 4.3,-45.66 12.9,-65.88 8.59,-20.22 20.33,-37.89 35.2,-52.99 14.88,-15.1 32.19,-26.95 51.94,-35.56 19.76,-8.6 41.02,-12.89 63.8,-12.89 21.84,0 42.29,3.95 61.35,11.85 19.05,7.9 35.67,19.17 49.85,33.81 14.17,14.64 25.33,32.3 33.46,52.99 8.14,20.68 12.2,43.57 12.2,68.67 0,3.72 -0.23,7.32 -0.69,10.8 -0.47,3.49 -0.93,6.86 -1.4,10.12 -0.47,3.72 -0.93,7.21 -1.39,10.45l-219.61 0c3.71,12.09 11.26,23.24 22.65,33.47 11.39,10.22 25.92,15.34 43.58,15.34 8.83,0 16.38,-1.05 22.66,-3.14 6.27,-2.09 11.27,-4.53 14.98,-7.32 4.65,-2.79 8.37,-6.28 11.16,-10.46l97.61 6.98zm-146.41 -146.41c-17.66,0 -32.19,5.22 -43.58,15.68 -11.39,10.46 -18.94,22.66 -22.65,36.61l132.46 0c-3.72,-13.95 -11.27,-26.15 -22.66,-36.61 -11.38,-10.46 -25.91,-15.68 -43.57,-15.68zm400.88 240.53l-97.61 -142.93 0 142.93 -94.12 0 0 -439.23 94.12 0 0 247.5 87.15 -128.98 108.06 0 -108.06 153.38 118.52 167.33 -108.06 0zm230.07 0l-94.12 0 0 -439.23 94.12 0 0 439.23zm34.86 -320.71l101.1 0 69.71 198.7 69.72 -198.7 101.09 0 -128.98 320.71c-16.26,39.97 -33.81,69.13 -52.64,87.49 -18.82,18.36 -43.1,27.54 -72.85,27.54 -3.72,0 -7.32,-0.12 -10.81,-0.35 -3.49,-0.23 -6.86,-0.58 -10.11,-1.05 -3.72,-0.46 -7.2,-1.16 -10.45,-2.08l0 -80.18c19.52,0 34.16,-4.07 43.92,-12.2 9.76,-8.14 17.2,-19.17 22.31,-33.12l-122.01 -306.76z"/>
   </g>
  </g>
 </g>
</svg>
