<?xml version="1.0" encoding="UTF-8"?>
<!DOCTYPE svg PUBLIC "-//W3C//DTD SVG 1.1//EN" "http://www.w3.org/Graphics/SVG/1.1/DTD/svg11.dtd">
<!-- Creator: CorelDRAW 2020 (64-Bit) -->
<svg xmlns="http://www.w3.org/2000/svg" xml:space="preserve" width="200px" height="48px" version="1.1" style="shape-rendering:geometricPrecision; text-rendering:geometricPrecision; image-rendering:optimizeQuality; fill-rule:evenodd; clip-rule:evenodd"
viewBox="0 0 37.88 9.19"
 xmlns:xlink="http://www.w3.org/1999/xlink"
 xmlns:xodm="http://www.corel.com/coreldraw/odm/2003">
 <defs>
  <style type="text/css">
   <![CDATA[
    .fil0 {fill:white}
    .fil2 {fill:white;fill-rule:nonzero}
    .fil1 {fill:url(#id0);fill-rule:nonzero}
   ]]>
  </style>
  <linearGradient id="id0" gradientUnits="objectBoundingBox" x1="50.0006%" y1="0.000258976%" x2="50.0006%" y2="100%">
   <stop offset="0" style="stop-opacity:1; stop-color:#FB7622"/>
   <stop offset="1" style="stop-opacity:1; stop-color:#F53144"/>
  </linearGradient>
 </defs>
 <g id="Слой_x0020_1">
  <metadata id="CorelCorpID_0Corel-Layer"/>
  <path class="fil0" d="M11.92 6.37l0 -1.48 1.71 0 0 -0.66 -1.71 0 0 -0.74 1.75 0 0 -0.67 -2.51 0 0 3.55 0.76 0zm5.99 0l-1.37 -3.55 -0.94 0 -1.37 3.55 0.86 0 0.22 -0.6 1.52 0 0.23 0.6 0.85 0zm-1.29 -1.27l-1.1 0 0.55 -1.52 0.55 1.52zm3.49 1.33c0.95,0 1.42,-0.49 1.42,-1.14 0,-1.32 -2.04,-0.94 -2.04,-1.5 0,-0.21 0.18,-0.35 0.5,-0.35 0.36,0 0.74,0.12 1.03,0.39l0.42 -0.57c-0.35,-0.32 -0.82,-0.49 -1.38,-0.49 -0.84,0 -1.35,0.49 -1.35,1.08 0,1.33 2.04,0.9 2.04,1.52 0,0.2 -0.19,0.39 -0.61,0.39 -0.49,0 -0.88,-0.22 -1.13,-0.48l-0.41 0.59c0.33,0.33 0.82,0.56 1.51,0.56l0 0zm4.07 -0.06l0 -2.88 1.03 0 0 -0.67 -2.83 0 0 0.67 1.04 0 0 2.88 0.76 0zm3.74 0.06c0.78,0 1.23,-0.43 1.48,-0.87l-0.65 -0.32c-0.15,0.29 -0.46,0.52 -0.83,0.52 -0.64,0 -1.11,-0.49 -1.11,-1.16 0,-0.67 0.47,-1.17 1.11,-1.17 0.37,0 0.68,0.23 0.83,0.52l0.65 -0.32c-0.25,-0.45 -0.7,-0.87 -1.48,-0.87 -1.06,0 -1.89,0.74 -1.89,1.84 0,1.09 0.83,1.83 1.89,1.83zm4.17 0c1.08,0 1.6,-0.61 1.6,-1.48l0 -2.13 -0.77 0 0 2.11c0,0.49 -0.28,0.83 -0.83,0.83 -0.55,0 -0.83,-0.34 -0.83,-0.83l0 -2.11 -0.77 0 0 2.13c0,0.87 0.52,1.48 1.6,1.48l0 0zm3.7 -0.06l0 -1.27 0.9 0c0.76,0 1.19,-0.52 1.19,-1.14 0,-0.62 -0.42,-1.14 -1.19,-1.14l-1.66 0 0 3.55 0.76 0zm0.79 -1.93l-0.79 0 0 -0.95 0.79 0c0.3,0 0.53,0.18 0.53,0.47 0,0.3 -0.23,0.48 -0.53,0.48l0 0z"/>
  <g id="_2006641037104">
   <path class="fil1" d="M3.97 0.76l3.22 0.49 0 5.27c-1.15,0.64 -2.58,1.44 -3.22,1.8 -0.08,-0.04 -0.17,-0.09 -0.26,-0.14 -0.37,-0.21 -0.86,-0.49 -1.36,-0.77l-1.59 -0.89 0 -5.26 3.21 -0.5 0 0zm0 -0.76l-3.97 0.61 0 6.36c0,0 3.97,2.22 3.95,2.22 0.02,0 3.99,-2.22 3.99,-2.22l0 -6.36 -3.97 -0.61z"/>
   <path class="fil2" d="M4.82 3.85l-0.85 -1.04 -0.86 1.04 -0.84 -1.04 0 2.74 3.4 0 0 -2.74 -0.85 1.04zm0.85 1.23l-3.4 0 0 -0.38 3.4 0 0 0.38 0 0z"/>
  </g>
  <path class="fil0" d="M11.92 6.37l0 -1.48 1.71 0 0 -0.66 -1.71 0 0 -0.74 1.75 0 0 -0.67 -2.51 0 0 3.55 0.76 0zm5.99 0l-1.37 -3.55 -0.94 0 -1.37 3.55 0.86 0 0.22 -0.6 1.52 0 0.23 0.6 0.85 0zm-1.29 -1.27l-1.1 0 0.55 -1.52 0.55 1.52zm3.49 1.33c0.95,0 1.42,-0.49 1.42,-1.14 0,-1.32 -2.04,-0.94 -2.04,-1.5 0,-0.21 0.18,-0.35 0.5,-0.35 0.36,0 0.74,0.12 1.03,0.39l0.42 -0.57c-0.35,-0.32 -0.82,-0.49 -1.38,-0.49 -0.84,0 -1.35,0.49 -1.35,1.08 0,1.33 2.04,0.9 2.04,1.52 0,0.2 -0.19,0.39 -0.61,0.39 -0.49,0 -0.88,-0.22 -1.13,-0.48l-0.41 0.59c0.33,0.33 0.82,0.56 1.51,0.56l0 0zm4.07 -0.06l0 -2.88 1.03 0 0 -0.67 -2.83 0 0 0.67 1.04 0 0 2.88 0.76 0zm3.74 0.06c0.78,0 1.23,-0.43 1.48,-0.87l-0.65 -0.32c-0.15,0.29 -0.46,0.52 -0.83,0.52 -0.64,0 -1.11,-0.49 -1.11,-1.16 0,-0.67 0.47,-1.17 1.11,-1.17 0.37,0 0.68,0.23 0.83,0.52l0.65 -0.32c-0.25,-0.45 -0.7,-0.87 -1.48,-0.87 -1.06,0 -1.89,0.74 -1.89,1.84 0,1.09 0.83,1.83 1.89,1.83zm4.17 0c1.08,0 1.6,-0.61 1.6,-1.48l0 -2.13 -0.77 0 0 2.11c0,0.49 -0.28,0.83 -0.83,0.83 -0.55,0 -0.83,-0.34 -0.83,-0.83l0 -2.11 -0.77 0 0 2.13c0,0.87 0.52,1.48 1.6,1.48l0 0zm3.7 -0.06l0 -1.27 0.9 0c0.76,0 1.19,-0.52 1.19,-1.14 0,-0.62 -0.42,-1.14 -1.19,-1.14l-1.66 0 0 3.55 0.76 0zm0.79 -1.93l-0.79 0 0 -0.95 0.79 0c0.3,0 0.53,0.18 0.53,0.47 0,0.3 -0.23,0.48 -0.53,0.48l0 0z"/>
  <g id="_2006641040464">
   <path class="fil1" d="M3.97 0.76l3.22 0.49 0 5.27c-1.15,0.64 -2.58,1.44 -3.22,1.8 -0.08,-0.04 -0.17,-0.09 -0.26,-0.14 -0.37,-0.21 -0.86,-0.49 -1.36,-0.77l-1.59 -0.89 0 -5.26 3.21 -0.5 0 0zm0 -0.76l-3.97 0.61 0 6.36c0,0 3.97,2.22 3.95,2.22 0.02,0 3.99,-2.22 3.99,-2.22l0 -6.36 -3.97 -0.61z"/>
   <path class="fil2" d="M4.82 3.85l-0.85 -1.04 -0.86 1.04 -0.84 -1.04 0 2.74 3.4 0 0 -2.74 -0.85 1.04zm0.85 1.23l-3.4 0 0 -0.38 3.4 0 0 0.38 0 0z"/>
  </g>
 </g>
</svg>
