<?xml version="1.0" encoding="UTF-8"?>
<!DOCTYPE svg PUBLIC "-//W3C//DTD SVG 1.1//EN" "http://www.w3.org/Graphics/SVG/1.1/DTD/svg11.dtd">
<!-- Creator: CorelDRAW 2019 (64-Bit) -->
<svg xmlns="http://www.w3.org/2000/svg" xml:space="preserve" width="62.8416mm" height="14.8639mm" version="1.1" style="shape-rendering:geometricPrecision; text-rendering:geometricPrecision; image-rendering:optimizeQuality; fill-rule:evenodd; clip-rule:evenodd"
viewBox="0 0 3371.29 797.41"
 xmlns:xlink="http://www.w3.org/1999/xlink">
 <defs>
  <style type="text/css">
   <![CDATA[
    .fil0 {fill:#FEFEFE;fill-rule:nonzero}
   ]]>
  </style>
 </defs>
 <g id="Слой_x0020_1">
  <metadata id="CorelCorpID_0Corel-Layer"/>
  <g id="_1312196671600">
   <polygon class="fil0" points="394.83,7.59 554.29,7.59 554.29,485.95 402.43,485.95 402.43,261.96 299.92,485.95 254.36,485.95 151.86,261.96 151.86,485.95 -0,485.95 -0,7.59 159.45,7.59 277.14,258.16 "/>
   <path id="1" class="fil0" d="M865.6 349.28c15.18,0 27.97,-2.66 38.34,-7.97 10.38,-5.32 19.11,-11.52 26.2,-18.6 7.59,-7.59 13.92,-16.45 18.98,-26.58l151.86 15.19c-7.59,33.92 -21.26,64.29 -41,91.11 -8.61,11.64 -18.73,22.91 -30.38,33.79 -11.64,10.89 -25.31,20.5 -41,28.86 -15.69,8.35 -33.66,15.18 -53.91,20.5 -20.25,5.32 -43.28,7.97 -69.09,7.97 -34.93,0 -67.71,-6.45 -98.33,-19.36 -30.63,-12.91 -57.2,-30.5 -79.73,-52.77 -22.53,-22.27 -40.25,-48.35 -53.15,-78.21 -12.91,-29.87 -19.36,-62.01 -19.36,-96.43 0,-33.91 6.45,-65.93 19.36,-96.05 12.91,-30.12 30.63,-56.31 53.15,-78.59 22.53,-22.27 49.1,-39.86 79.73,-52.77 30.62,-12.91 63.4,-19.36 98.33,-19.36 25.82,0 48.85,2.66 69.09,7.97 20.25,5.31 38.22,12.15 53.91,20.5 15.69,8.35 29.36,18.1 41,29.23 11.64,11.14 21.76,22.27 30.38,33.41 19.74,26.83 33.41,57.2 41,91.11l-151.86 15.19c-5.06,-9.62 -11.39,-18.48 -18.98,-26.58 -7.09,-6.58 -15.82,-12.66 -26.2,-18.22 -10.38,-5.57 -23.16,-8.35 -38.34,-8.35 -13.17,0 -25.69,2.66 -37.59,7.97 -11.9,5.32 -22.4,12.66 -31.51,22.02 -9.11,9.36 -16.32,20.25 -21.64,32.65 -5.32,12.4 -7.97,25.69 -7.97,39.86 0,14.17 2.66,27.46 7.97,39.87 5.32,12.4 12.53,23.28 21.64,32.65 9.11,9.37 19.61,16.71 31.51,22.02 11.89,5.31 24.42,7.97 37.59,7.97z"/>
   <path id="2" class="fil0" d="M1381.93 349.28c15.18,0 27.97,-2.66 38.34,-7.97 10.38,-5.32 19.11,-11.52 26.2,-18.6 7.59,-7.59 13.92,-16.45 18.98,-26.58l151.86 15.19c-7.59,33.92 -21.26,64.29 -41,91.11 -8.61,11.64 -18.73,22.91 -30.38,33.79 -11.64,10.89 -25.31,20.5 -41,28.86 -15.69,8.35 -33.66,15.18 -53.91,20.5 -20.25,5.32 -43.28,7.97 -69.09,7.97 -34.93,0 -67.71,-6.45 -98.33,-19.36 -30.63,-12.91 -57.2,-30.5 -79.73,-52.77 -22.53,-22.27 -40.25,-48.35 -53.15,-78.21 -12.91,-29.87 -19.36,-62.01 -19.36,-96.43 0,-33.91 6.45,-65.93 19.36,-96.05 12.91,-30.12 30.63,-56.31 53.15,-78.59 22.53,-22.27 49.1,-39.86 79.73,-52.77 30.62,-12.91 63.4,-19.36 98.33,-19.36 25.82,0 48.85,2.66 69.09,7.97 20.25,5.31 38.22,12.15 53.91,20.5 15.69,8.35 29.36,18.1 41,29.23 11.64,11.14 21.76,22.27 30.38,33.41 19.74,26.83 33.41,57.2 41,91.11l-151.86 15.19c-5.06,-9.62 -11.39,-18.48 -18.98,-26.58 -7.09,-6.58 -15.82,-12.66 -26.2,-18.22 -10.38,-5.57 -23.16,-8.35 -38.34,-8.35 -13.17,0 -25.69,2.66 -37.59,7.97 -11.9,5.32 -22.4,12.66 -31.51,22.02 -9.11,9.36 -16.32,20.25 -21.64,32.65 -5.32,12.4 -7.97,25.69 -7.97,39.86 0,14.17 2.66,27.46 7.97,39.87 5.32,12.4 12.53,23.28 21.64,32.65 9.11,9.37 19.61,16.71 31.51,22.02 11.89,5.31 24.42,7.97 37.59,7.97z"/>
   <path id="3" class="fil0" d="M2012.15 341.68l0 144.27 -356.87 0 0 -98.71 155.66 -163.25c7.09,-6.58 13.41,-13.16 18.98,-19.74 4.55,-5.57 8.86,-11.77 12.91,-18.6 4.05,-6.83 6.07,-13.04 6.07,-18.6 0,-7.59 -2.53,-13.29 -7.59,-17.08 -5.06,-3.8 -11.39,-5.7 -18.98,-5.7 -7.6,0 -14.55,3.42 -20.88,10.25 -6.33,6.83 -9.5,16.07 -9.5,27.71l-148.06 -15.19c1.01,-23.79 6.07,-45.81 15.19,-66.06 9.11,-20.25 21.76,-37.84 37.96,-52.77 16.2,-14.93 35.56,-26.7 58.09,-35.31 22.53,-8.61 47.46,-12.91 74.79,-12.91 28.35,0 53.78,4.05 76.31,12.15 22.53,8.1 41.64,18.99 57.33,32.65 15.69,13.67 27.71,29.74 36.07,48.22 8.35,18.48 12.53,38.09 12.53,58.85 0,21.26 -4.56,41 -13.67,59.22 -9.11,18.22 -19.24,34.17 -30.38,47.84 -13.16,16.2 -27.59,31.13 -43.28,44.8l-37.97 37.96 125.29 0z"/>
   <path id="4" class="fil0" d="M2338.64 246.77c0,-35.94 -6.45,-62.01 -19.36,-78.21 -12.91,-16.2 -27.97,-24.3 -45.18,-24.3 -17.22,0 -32.27,8.1 -45.18,24.3 -12.91,16.2 -19.36,42.27 -19.36,78.21 0,35.94 6.45,62.01 19.36,78.21 12.91,16.2 27.97,24.3 45.18,24.3 17.21,0 32.27,-8.1 45.18,-24.3 12.91,-16.2 19.36,-42.27 19.36,-78.21zm151.86 0c0,37.97 -5.57,72.13 -16.71,102.51 -11.14,30.37 -26.45,56.31 -45.94,77.83 -19.48,21.51 -42.39,37.97 -68.72,49.36 -26.32,11.39 -54.67,17.08 -85.04,17.08 -30.38,0 -58.72,-5.69 -85.04,-17.08 -26.32,-11.39 -49.23,-27.84 -68.72,-49.36 -19.49,-21.51 -34.8,-47.46 -45.94,-77.83 -11.14,-30.38 -16.71,-64.54 -16.71,-102.51 0,-37.96 5.57,-72.13 16.71,-102.5 11.14,-30.37 26.45,-56.31 45.94,-77.83 19.48,-21.51 42.39,-37.97 68.72,-49.36 26.32,-11.39 54.67,-17.08 85.04,-17.08 30.37,0 58.72,5.69 85.04,17.08 26.32,11.39 49.23,27.84 68.72,49.36 19.49,21.51 34.8,47.46 45.94,77.83 11.14,30.38 16.71,64.54 16.71,102.5z"/>
   <path id="5" class="fil0" d="M2892.94 341.68l0 144.27 -356.87 0 0 -98.71 155.66 -163.25c7.09,-6.58 13.41,-13.16 18.98,-19.74 4.55,-5.57 8.86,-11.77 12.91,-18.6 4.05,-6.83 6.07,-13.04 6.07,-18.6 0,-7.59 -2.53,-13.29 -7.59,-17.08 -5.06,-3.8 -11.39,-5.7 -18.98,-5.7 -7.6,0 -14.55,3.42 -20.88,10.25 -6.33,6.83 -9.5,16.07 -9.5,27.71l-148.06 -15.19c1.01,-23.79 6.07,-45.81 15.19,-66.06 9.11,-20.25 21.76,-37.84 37.96,-52.77 16.2,-14.93 35.56,-26.7 58.09,-35.31 22.53,-8.61 47.46,-12.91 74.79,-12.91 28.35,0 53.78,4.05 76.31,12.15 22.53,8.1 41.64,18.99 57.33,32.65 15.69,13.67 27.71,29.74 36.07,48.22 8.35,18.48 12.53,38.09 12.53,58.85 0,21.26 -4.56,41 -13.67,59.22 -9.11,18.22 -19.24,34.17 -30.38,47.84 -13.16,16.2 -27.59,31.13 -43.28,44.8l-37.97 37.96 125.29 0z"/>
   <path id="6" class="fil0" d="M3219.43 246.77c0,-35.94 -6.45,-62.01 -19.36,-78.21 -12.91,-16.2 -27.97,-24.3 -45.18,-24.3 -17.22,0 -32.27,8.1 -45.18,24.3 -12.91,16.2 -19.36,42.27 -19.36,78.21 0,35.94 6.45,62.01 19.36,78.21 12.91,16.2 27.97,24.3 45.18,24.3 17.21,0 32.27,-8.1 45.18,-24.3 12.91,-16.2 19.36,-42.27 19.36,-78.21zm151.86 0c0,37.97 -5.57,72.13 -16.71,102.51 -11.14,30.37 -26.45,56.31 -45.94,77.83 -19.48,21.51 -42.39,37.97 -68.72,49.36 -26.32,11.39 -54.67,17.08 -85.04,17.08 -30.38,0 -58.72,-5.69 -85.04,-17.08 -26.32,-11.39 -49.23,-27.84 -68.72,-49.36 -19.49,-21.51 -34.8,-47.46 -45.94,-77.83 -11.14,-30.38 -16.71,-64.54 -16.71,-102.51 0,-37.96 5.57,-72.13 16.71,-102.5 11.14,-30.37 26.45,-56.31 45.94,-77.83 19.48,-21.51 42.39,-37.97 68.72,-49.36 26.32,-11.39 54.67,-17.08 85.04,-17.08 30.37,0 58.72,5.69 85.04,17.08 26.32,11.39 49.23,27.84 68.72,49.36 19.49,21.51 34.8,47.46 45.94,77.83 11.14,30.38 16.71,64.54 16.71,102.5z"/>
   <path class="fil0" d="M410.9 774.24l0 -139.07 23.18 0 0 23.18 69.53 0 0 -23.18 23.18 0 0 139.07 -23.18 0 0 -92.71 -69.53 0 0 92.71 -23.18 0zm23.18 -139.07l0 -23.18 69.53 0 0 23.18 -69.53 0z"/>
   <path id="1" class="fil0" d="M642.68 681.53l0 -23.18 23.18 0 0 23.18 -23.18 0zm-46.36 92.71l0 -162.24 23.18 0 0 23.18 23.18 0 0 23.18 -23.18 0 0 115.88 -23.18 0zm92.71 0l0 -115.88 -23.18 0 0 -23.18 23.18 0 0 -23.18 23.18 0 0 162.24 -23.18 0z"/>
   <path id="2" class="fil0" d="M735.39 774.24l0 -115.88 23.18 0 0 115.88 -23.18 0zm0 -139.07l0 -23.18 23.18 0 0 23.18 -23.18 0z"/>
   <path id="3" class="fil0" d="M874.45 774.24l0 -92.71 23.18 0 0 92.71 -23.18 0zm-92.71 0l0 -115.88 92.71 0 0 23.18 -69.53 0 0 92.71 -23.18 0z"/>
   <path id="4" class="fil0" d="M943.99 774.24l0 -23.18 92.71 0 0 23.18 -92.71 0zm-23.18 -23.18l0 -69.53 23.18 0 0 23.18 69.53 0 0 -23.18 23.18 0 0 46.35 -92.71 0 0 23.18 -23.18 0zm23.18 -69.53l0 -23.18 69.53 0 0 23.18 -69.53 0z"/>
   <path id="5" class="fil0" d="M1083.05 774.24l0 -23.18 69.53 0 0 23.18 -69.53 0zm69.53 -23.18l0 -23.18 23.18 0 0 23.18 -23.18 0zm-92.71 0l0 -69.53 23.18 0 0 69.53 -23.18 0zm92.71 -46.36l0 -23.18 23.18 0 0 23.18 -23.18 0zm-69.53 -23.18l0 -23.18 69.53 0 0 23.18 -69.53 0z"/>
   <path id="6" class="fil0" d="M1291.65 704.7l0 -23.18 23.18 0 0 23.18 -23.18 0zm-92.71 69.53l0 -115.88 23.18 0 0 23.18 23.18 0 0 23.18 -23.18 0 0 69.53 -23.18 0zm46.36 -92.71l0 -23.18 46.35 0 0 23.18 -46.35 0z"/>
   <path id="7" class="fil0" d="M1338.01 751.06l0 -23.18 23.18 0 0 23.18 -23.18 0zm23.18 23.18l0 -23.18 69.53 0 0 -23.18 -69.53 0 0 -23.18 69.53 0 0 -23.18 23.18 0 0 92.71 -92.71 0zm0 -92.71l0 -23.18 69.53 0 0 23.18 -69.53 0z"/>
   <path id="8" class="fil0" d="M1500.25 774.24l0 -92.71 -23.18 0 0 -23.18 23.18 0 0 -23.18 23.18 0 0 23.18 46.35 0 0 23.18 -46.35 0 0 92.71 -23.18 0zm23.18 -139.07l0 -23.18 46.35 0 0 23.18 -46.35 0z"/>
   <path id="9" class="fil0" d="M1639.31 774.24l0 -23.18 23.18 0 0 23.18 -23.18 0zm-23.18 -23.18l0 -69.53 -23.18 0 0 -23.18 23.18 0 0 -46.36 23.18 0 0 46.36 23.18 0 0 23.18 -23.18 0 0 69.53 -23.18 0z"/>
   <path id="10" class="fil0" d="M1755.2 774.24l0 -23.18 69.53 0 0 23.18 -69.53 0zm69.53 -23.18l0 -23.18 23.18 0 0 23.18 -23.18 0zm-92.71 0l0 -115.89 23.18 0 0 115.89 -23.18 0zm92.71 -92.71l0 -23.18 23.18 0 0 23.18 -23.18 0zm-69.53 -23.18l0 -23.18 69.53 0 0 23.18 -69.53 0z"/>
   <path id="11" class="fil0" d="M1894.26 774.24l0 -23.18 69.53 0 0 23.18 -69.53 0zm-23.18 -23.18l0 -69.53 23.18 0 0 69.53 -23.18 0zm92.71 0l0 -69.53 23.18 0 0 69.53 -23.18 0zm-69.53 -69.53l0 -23.18 69.53 0 0 23.18 -69.53 0z"/>
   <path id="12" class="fil0" d="M2056.51 727.88l0 -46.35 23.18 0 0 46.35 -23.18 0zm46.35 46.36l0 -92.71 23.18 0 0 92.71 -23.18 0zm-92.71 0l0 -115.88 46.36 0 0 23.18 -23.18 0 0 92.71 -23.18 0zm69.53 -92.71l0 -23.18 23.18 0 0 23.18 -23.18 0z"/>
   <path id="13" class="fil0" d="M2241.92 727.88l0 -46.35 23.18 0 0 46.35 -23.18 0zm-92.71 69.53l0 -139.06 23.18 0 0 23.18 23.18 0 0 23.18 -23.18 0 0 23.18 69.53 0 0 23.18 -69.53 0 0 46.35 -23.18 0zm46.36 -115.88l0 -23.18 46.35 0 0 23.18 -46.35 0z"/>
   <path id="14" class="fil0" d="M2311.46 774.24l0 -23.18 92.71 0 0 23.18 -92.71 0zm-23.18 -23.18l0 -69.53 23.18 0 0 23.18 69.53 0 0 -23.18 23.18 0 0 46.35 -92.71 0 0 23.18 -23.18 0zm23.18 -69.53l0 -23.18 69.53 0 0 23.18 -69.53 0z"/>
   <path id="15" class="fil0" d="M2473.7 774.24l0 -23.18 23.18 0 0 23.18 -23.18 0zm-23.18 -23.18l0 -69.53 -23.18 0 0 -23.18 23.18 0 0 -46.36 23.18 0 0 46.36 23.18 0 0 23.18 -23.18 0 0 69.53 -23.18 0z"/>
   <path id="16" class="fil0" d="M2520.05 774.24l0 -115.88 23.18 0 0 115.88 -23.18 0zm0 -139.07l0 -23.18 23.18 0 0 23.18 -23.18 0z"/>
   <path id="17" class="fil0" d="M2612.77 774.24l0 -23.18 23.18 0 0 23.18 -23.18 0zm-23.18 -23.18l0 -69.53 -23.18 0 0 -23.18 23.18 0 0 -46.36 23.18 0 0 46.36 23.18 0 0 23.18 -23.18 0 0 69.53 -23.18 0z"/>
   <path id="18" class="fil0" d="M2659.12 774.24l0 -115.88 23.18 0 0 115.88 -23.18 0zm0 -139.07l0 -23.18 23.18 0 0 23.18 -23.18 0z"/>
   <path id="19" class="fil0" d="M2728.65 774.24l0 -23.18 69.53 0 0 23.18 -69.53 0zm-23.18 -23.18l0 -69.53 23.18 0 0 69.53 -23.18 0zm92.71 0l0 -69.53 23.18 0 0 69.53 -23.18 0zm-69.53 -69.53l0 -23.18 69.53 0 0 23.18 -69.53 0z"/>
   <path id="20" class="fil0" d="M2937.25 774.24l0 -92.71 23.18 0 0 92.71 -23.18 0zm-92.71 0l0 -115.88 92.71 0 0 23.18 -69.53 0 0 92.71 -23.18 0z"/>
  </g>
 </g>
</svg>
