<?xml version="1.0" encoding="UTF-8"?>
<!DOCTYPE svg PUBLIC "-//W3C//DTD SVG 1.1//EN" "http://www.w3.org/Graphics/SVG/1.1/DTD/svg11.dtd">
<!-- Creator: CorelDRAW 2019 (64-Bit) -->
<svg xmlns="http://www.w3.org/2000/svg" xml:space="preserve" width="69.4811mm" height="52.4191mm" version="1.1" style="shape-rendering:geometricPrecision; text-rendering:geometricPrecision; image-rendering:optimizeQuality; fill-rule:evenodd; clip-rule:evenodd"
viewBox="0 0 14935.94 11268.22"
 xmlns:xlink="http://www.w3.org/1999/xlink">
 <defs>
  <style type="text/css">
   <![CDATA[
    .fil1 {fill:white}
    .fil0 {fill:white;fill-rule:nonzero}
   ]]>
  </style>
 </defs>
 <g id="Слой_x0020_1">
  <metadata id="CorelCorpID_0Corel-Layer"/>
  <g id="_1312181710480">
   <path class="fil0" d="M6291.95 10878.71c-94.33,0 -184.35,-19.26 -270.04,-57.37 -85.68,-38.52 -160.75,-91.98 -225.22,-159.98 -64.45,-68.4 -115.95,-148.17 -154.45,-239.77 -38.13,-91.19 -57.4,-190.22 -57.4,-297.14 0,-104.95 19.26,-203.59 57.4,-295.96 38.5,-91.98 90.01,-172.16 154.45,-240.54 64.47,-68.4 139.53,-121.45 225.22,-159.98 85.68,-38.52 175.71,-57.78 270.04,-57.78 81.36,0 157.61,13.76 228.36,40.89 71.15,27.52 133.64,64.06 187.88,109.65 54.24,45.59 100.24,98.26 137.96,158.41 38.13,59.74 65.65,121.84 82.55,186.31l-236.22 0c-12.19,-37.75 -29.88,-74.68 -52.67,-111.24 -23.19,-36.16 -51.51,-67.61 -85.3,-94.33 -33.81,-26.33 -72.72,-47.96 -116.34,-64.47 -43.64,-16.51 -92.37,-24.76 -146.22,-24.76 -61.33,0 -121.07,13.76 -179.24,40.89 -57.78,27.13 -109.27,65.65 -154.06,115.16 -45.21,49.53 -81.36,108.11 -108.88,175.71 -27.52,67.58 -41.66,141.49 -41.66,222.06 0,79.79 14.14,153.7 41.66,221.28 27.52,67.61 63.67,126.18 108.88,175.71 44.8,49.51 96.28,88.03 154.06,115.54 58.17,27.52 117.91,41.66 179.24,41.66 58.17,0 112.02,-9.82 161.55,-29.47 49.53,-19.65 93.14,-45.98 130.89,-79 37.73,-33.02 68.77,-71.54 93.14,-115.56 24.76,-44.41 41.66,-91.19 50.71,-141.1l-448.09 0 0 -213.03 659.94 0 0 766.84 -164.68 0 -58.58 -141.49c-31.43,29.86 -68.77,55.8 -111.61,78.2 -36.18,19.26 -80.59,36.57 -133.26,51.89 -52.28,15.33 -112.4,22.79 -180.01,22.79z"/>
   <path id="1" class="fil0" d="M7635.8 9794.28c61.31,0 117.52,9.44 168.62,29.08 51.1,19.67 94.71,46.39 130.89,80.18 36.16,33.81 64.06,73.52 84.12,119.11 20.03,45.59 29.86,95.51 29.86,148.95l0 695.71 -153.29 0 -47.16 -106.13c-20.83,22.4 -45.21,42.07 -73.5,58.96 -25.56,15.33 -57.4,29.08 -95.92,40.86 -38.11,11.8 -84.09,17.69 -137.94,17.69 -118.32,0 -208.71,-29.08 -271.22,-88.03 -62.49,-58.58 -93.94,-135.21 -93.94,-229.56 0,-53.85 10.23,-102.58 30.65,-145.81 20.44,-43.23 55.44,-80.18 104.56,-110.45 49.53,-30.27 116.75,-54.24 201.64,-71.54 84.91,-17.28 192.61,-25.95 323.09,-25.95l0 -35.77c0,-53.44 -16.9,-96.69 -50.71,-128.91 -33.79,-32.22 -83.71,-48.35 -149.74,-48.35 -70.74,0 -121.84,12.58 -154.09,38.13 -32.22,25.15 -51.48,56.19 -57.76,91.96l-211.87 0c6.3,-94.33 45.59,-172.94 118.7,-235.82 72.72,-62.9 174.51,-94.35 305.01,-94.35zm-81.75 895.78c90.01,0 159.18,-23.19 208.3,-69.18 49.14,-46 73.9,-102.19 73.9,-168.23l0 -57.4c-94.33,0 -170.6,4.32 -228.76,12.98 -57.76,9.03 -103.35,20.83 -136.37,35.77 -33.02,14.92 -55.03,33.41 -66.04,55.42 -11.01,22.01 -16.9,46.37 -16.9,73.11 0,29.86 14.14,56.99 42.84,81.36 28.29,23.97 69.18,36.16 123.02,36.16z"/>
   <path id="2" class="fil0" d="M9393.11 9794.28c50.71,0 97.87,9.44 141.51,29.08 44.02,19.67 82.14,48.35 115.16,86.48 33.02,38.13 59.35,84.12 79,138.35 19.67,53.85 29.49,114.77 29.49,182.38l0 636.74 -212.26 0 0 -636.74c0,-70.74 -20.03,-127.73 -60.13,-170.98 -40.5,-43.62 -86.87,-65.24 -139.94,-65.24 -53.85,0 -100.62,21.63 -140.72,65.24 -39.68,43.25 -59.74,100.24 -59.74,170.98l0 636.74 -213.03 0 0 -636.74c0,-70.74 -20.06,-127.73 -59.74,-170.98 -40.09,-43.62 -86.87,-65.24 -140.72,-65.24 -53.85,0 -100.62,21.63 -140.33,65.24 -40.09,43.25 -60.13,100.24 -60.13,170.98l0 636.74 -211.87 0 0 -1061.62 153.29 0 47.18 106.9c19.24,-22.01 42.05,-42.05 67.99,-59.74 22.4,-13.76 49.53,-27.13 81.75,-39.7 32.22,-12.58 68.79,-18.87 109.27,-18.87 50.71,0 94.33,8.25 130.1,25.56 36.16,17.28 66.83,36.54 92.37,56.99 28.31,25.56 52.67,53.05 72.31,82.93 0,0 7.07,-8.25 20.83,-25.15 12.98,-16.12 33.02,-34.97 59.76,-56.6 27.11,-21.22 60.13,-40.89 99.03,-58.17 39.32,-17.3 85.68,-25.56 139.53,-25.56z"/>
   <path id="3" class="fil0" d="M10253.12 10867.31l-211.87 0 0 -1061.62 211.87 0 0 1061.62zm-105.74 -1226.33c-36.16,0 -66.81,-12.58 -91.96,-37.34 -25.56,-25.15 -38.13,-55.8 -38.13,-92.76 0,-36.16 12.58,-66.81 38.13,-91.57 25.15,-25.15 55.8,-37.34 91.96,-37.34 36.16,0 66.83,12.19 91.98,37.34 25.54,24.76 38.11,55.42 38.11,91.57 0,36.16 -12.58,66.83 -38.11,91.98 -25.15,25.54 -55.83,38.11 -91.98,38.11z"/>
   <path id="4" class="fil0" d="M11043.13 9794.28c58.58,0 113.59,11.41 165.48,34.2 51.87,23.19 96.69,54.64 135.21,94.73 38.52,39.68 68.79,88.03 91.19,144.24 22.01,56.6 33.02,119.09 33.02,187.08l0 612.78 -211.87 0 0 -612.78c0,-34.18 -6.66,-67.2 -20.03,-99.03 -13.37,-31.45 -31.45,-58.96 -54.64,-82.55 -23.19,-23.97 -49.53,-42.84 -79.39,-57.4 -29.88,-14.14 -61.33,-21.22 -94.33,-21.22 -36.18,0 -69.97,7.07 -101.42,21.22 -31.45,14.55 -58.96,33.43 -82.55,57.4 -23.17,23.58 -41.66,51.1 -55.01,82.14 -13.37,31.06 -20.44,64.47 -20.44,99.44l0 612.78 -211.87 0 0 -1061.62 153.29 0 47.18 106.9c20.83,-22.01 44.8,-42.05 72.7,-59.74 25.15,-13.76 56.99,-27.13 95.51,-39.7 38.13,-12.58 84.5,-18.87 137.96,-18.87z"/>
   <path id="5" class="fil0" d="M12670.37 9805.69l0 1014.46c0,64.47 -11.41,124.21 -34.2,178.83 -23.19,55.03 -55.42,102.6 -97.08,143.08 -41.27,40.09 -91.98,71.13 -151.72,93.14 -60.15,22.01 -126.57,33.02 -200.45,33.02 -64.47,0 -122.64,-9.03 -174.53,-27.11 -51.87,-18.1 -96.69,-42.07 -135.19,-71.95 -38.52,-30.25 -70.36,-64.83 -95.53,-104.92 -25.54,-40.09 -43.62,-82.16 -54.24,-126.57l211.87 0c17.67,35.77 45.59,68.79 84.09,97.87 38.52,29.08 92.78,43.62 163.52,43.62 83.71,0 149.74,-23.97 198.48,-71.93 48.75,-47.94 73.11,-110.45 73.11,-187.08l0 -106.13c-20.42,22.4 -45.19,42.05 -73.5,58.96 -25.54,15.33 -56.21,28.68 -91.96,40.86 -36.18,11.8 -79.41,17.69 -129.32,17.69 -64.47,0 -126.16,-13.37 -185.13,-39.7 -59.35,-26.33 -110.84,-62.88 -154.86,-109.27 -44.41,-46.37 -79,-101.4 -104.95,-164.3 -25.56,-62.88 -38.52,-131.28 -38.52,-204.77 0,-73.88 12.96,-141.9 38.52,-205.16 25.95,-62.9 60.53,-117.52 104.95,-163.91 44.02,-46.39 95.51,-83.32 154.86,-110.06 58.96,-26.72 120.66,-40.09 185.13,-40.09 53.85,0 99.83,6.3 138.35,18.87 38.52,12.58 69.97,25.95 94.33,39.7 28.7,17.69 53.07,37.73 73.9,59.74l47.16 -106.9 152.9 0zm-481.11 825.4c37.75,0 73.9,-8.25 109.29,-24.76 35.36,-16.51 66.42,-39.3 93.14,-68.38 27.13,-29.08 48.73,-62.9 65.24,-101.42 16.51,-38.11 24.76,-79.39 24.76,-123.02 0,-44.02 -8.25,-85.3 -24.76,-123.8 -16.51,-38.93 -38.11,-72.72 -65.24,-101.81 -26.72,-29.49 -58.17,-52.28 -94.33,-68.79 -36.16,-16.51 -72.72,-24.76 -110.45,-24.76 -37.75,0 -74.29,8.25 -110.45,24.76 -36.16,16.51 -67.61,39.3 -94.33,68.79 -27.13,29.08 -48.75,62.88 -65.26,101.01 -16.51,38.52 -24.76,80.18 -24.76,124.59 0,43.64 8.25,84.91 24.76,123.02 16.51,38.52 38.52,72.34 66.04,101.42 27.9,29.08 59.35,51.87 94.73,68.38 35.36,16.51 72.31,24.76 111.61,24.76z"/>
   <g>
    <polygon class="fil1" points="7715.9,2185.73 3930.1,0 144.31,2185.73 3930.1,4371.49 "/>
    <polygon class="fil1" points="3785.45,4621.21 -0,2435.69 -0,6807.18 3785.45,8992.72 "/>
    <path class="fil1" d="M7860.2 2435.69l-3785.43 2185.52 0 4371.51 3785.43 -2185.54 0 -4371.49zm-2275.33 5685.15l672.9 -388.5 0 -1013.62 835.33 0 0 -649.71 -2343.56 0 0 649.71 835.33 0 0 1402.12z"/>
   </g>
   <path class="fil1" d="M6257.77 8992.68l-672.9 0 0 -871.83 672.9 -388.5 0 1260.33zm2946.86 -626.49c-27.86,86.61 -69.63,170.17 -125.3,250.58 -55.68,80.46 -125.3,152.37 -208.84,215.8 -83.54,63.41 -180.2,113.69 -290.03,150.82 -109.85,37.12 -234.35,55.7 -373.59,55.7 -145.42,0 -282.31,-28.61 -410.71,-85.86 -128.38,-57.24 -241.3,-136.14 -338.76,-236.68 -97.46,-100.56 -174.81,-218.12 -232.05,-352.69 -57.22,-134.59 -85.84,-280.79 -85.84,-438.55 0,-157.78 28.61,-303.96 85.84,-438.57 57.24,-134.57 135.36,-252.15 234.35,-352.69 99.01,-100.54 214.25,-179.43 345.75,-236.68 131.47,-57.22 273.03,-85.86 424.64,-85.86 145.4,0 281.52,26.31 408.37,78.89 126.85,52.6 237.45,127.62 331.82,225.09 94.35,97.44 168.62,215.01 222.75,352.69 54.15,137.66 81.21,290.05 81.21,457.12 0,24.74 -1.55,48.73 -4.62,71.91 -3.1,23.22 -6.19,45.64 -9.29,67.31 -3.1,24.76 -6.19,47.96 -9.29,69.61l-1461.82 0c24.74,80.44 75,154.69 150.8,222.77 75.8,68.06 172.49,102.09 290.07,102.09 58.77,0 109.05,-6.96 150.8,-20.89 41.77,-13.91 75.04,-30.16 99.79,-48.71 30.93,-18.57 55.68,-41.77 74.27,-69.63l649.69 46.43zm-974.54 -974.56c-117.59,0 -214.28,34.8 -290.07,104.41 -75.8,69.61 -126.05,150.82 -150.8,243.64l881.74 0c-24.76,-92.82 -75.04,-174.03 -150.84,-243.64 -75.8,-69.61 -172.49,-104.41 -290.03,-104.41zm2668.41 1601.05l-649.71 -951.34 0 951.34 -626.49 0 0 -2923.66 626.49 0 0 1647.46 580.1 -858.54 719.29 0 -719.29 1020.95 788.9 1113.79 -719.29 0zm1531.43 0l-626.49 0 0 -2923.66 626.49 0 0 2923.66zm232.05 -2134.74l672.9 0 464.06 1322.63 464.06 -1322.63 672.92 0 -858.54 2134.74c-108.28,266.06 -225.07,460.19 -350.37,582.4 -125.3,122.23 -286.93,183.32 -484.96,183.32 -24.76,0 -48.73,-0.8 -71.93,-2.32 -23.22,-1.57 -45.64,-3.87 -67.28,-6.96 -24.74,-3.1 -47.96,-7.74 -69.61,-13.93l0 -533.69c129.92,0 227.39,-27.04 292.35,-81.19 64.96,-54.15 114.49,-127.62 148.5,-220.45l-812.11 -2041.92z"/>
  </g>
 </g>
</svg>
