<?xml version="1.0" encoding="UTF-8"?>
<!DOCTYPE svg PUBLIC "-//W3C//DTD SVG 1.1//EN" "http://www.w3.org/Graphics/SVG/1.1/DTD/svg11.dtd">
<!-- Creator: CorelDRAW 2020 (64-Bit) -->
<svg xmlns="http://www.w3.org/2000/svg" xml:space="preserve" width="101px" height="42px" version="1.1" style="shape-rendering:geometricPrecision; text-rendering:geometricPrecision; image-rendering:optimizeQuality; fill-rule:evenodd; clip-rule:evenodd"
viewBox="0 0 126.19 52.48"
 xmlns:xlink="http://www.w3.org/1999/xlink"
 xmlns:xodm="http://www.corel.com/coreldraw/odm/2003">
 <defs>
  <style type="text/css">
   <![CDATA[
    .fil0 {fill:white;fill-rule:nonzero}
   ]]>
  </style>
 </defs>
 <g id="Слой_x0020_1">
  <metadata id="CorelCorpID_0Corel-Layer"/>
  <g id="_2294865894368">
   <polygon class="fil0" points="0,7.35 3.78,7.35 3.78,34.49 15.22,7.35 19.37,7.35 0,52.48 "/>
   <path class="fil0" d="M26.51 44.28l-3.84 0 0 -13.46 -5.64 0 -5.75 13.46 -4.15 0 19.38 -44.28 0 44.28zm-3.84 -17.24l0 -9.05 -3.94 9.05 3.94 0z"/>
   <polygon class="fil0" points="48.81,52.48 33.48,18.04 33.48,44.28 29.7,44.28 29.7,0 44.97,34.86 44.97,7.35 48.81,7.35 "/>
   <path class="fil0" d="M61.85 52.48l-11.5 -26.03 11.5 -26.45 11.39 26.45 -11.39 26.03zm0 -9.1l7.23 -16.93 -7.23 -16.92 -7.35 16.92 7.35 16.93z"/>
   <polygon class="fil0" points="82.92,52.48 72.81,29.96 77.02,29.96 79.09,34.86 79.09,7.35 82.92,7.35 "/>
   <path class="fil0" d="M103.89 44.28l-3.83 0 0 -13.46 -5.64 0 -5.75 13.46 -4.15 0 19.37 -44.28 0 44.28zm-3.83 -17.24l0 -9.05 -3.94 9.05 3.94 0z"/>
   <polygon class="fil0" points="126.19,52.48 110.87,18.04 110.87,44.28 107.09,44.28 107.09,0 122.36,34.86 122.36,7.35 126.19,7.35 "/>
  </g>
 </g>
</svg>
