<?xml version="1.0" encoding="UTF-8"?>
<!DOCTYPE svg PUBLIC "-//W3C//DTD SVG 1.1//EN" "http://www.w3.org/Graphics/SVG/1.1/DTD/svg11.dtd">
<!-- Creator: CorelDRAW 2019 (64-Bit) -->
<svg xmlns="http://www.w3.org/2000/svg" xml:space="preserve" width="60.75mm" height="47.0252mm" version="1.1" style="shape-rendering:geometricPrecision; text-rendering:geometricPrecision; image-rendering:optimizeQuality; fill-rule:evenodd; clip-rule:evenodd"
viewBox="0 0 2137.78 1654.81"
 xmlns:xlink="http://www.w3.org/1999/xlink">
 <defs>
  <style type="text/css">
   <![CDATA[
    .fil0 {fill:#76788A}
    .fil3 {fill:#D95228}
    .fil2 {fill:#DD6827}
    .fil1 {fill:#E17D2A}
    .fil4 {fill:white}
   ]]>
  </style>
 </defs>
 <g id="Слой_x0020_1">
  <metadata id="CorelCorpID_0Corel-Layer"/>
  <g id="_2543487002144">
   <path class="fil0" d="M1186.47 1141.78c-40.31,18.74 -58.45,33.62 -117.58,34.11 -57.27,0.47 -78.98,-16.01 -117.58,-34.16 0,31.72 3.94,24.36 1.12,54.14 -11.46,120.79 -48.52,308.26 -218.57,216.77 -93.98,-50.56 -238.67,-219.14 -258.2,-292.28l-10.69 0c-3.9,14.6 -10.59,22.74 -20.06,33.38l-23.24 24.87c-0.8,0.76 -1.98,1.81 -2.79,2.55 -12,11.08 -49.29,43.01 -55.46,51.43 7.51,32.23 59.73,97.07 82.4,126.03 12.26,15.67 20.81,20.85 32.92,36.56 32.21,41.78 110.47,100.15 154.01,129.24 122.33,81.76 257.08,124.28 393.02,130.37l68.93 0c170.69,-7.71 340.26,-72.09 486.56,-187.74 53.07,-41.95 177.44,-175.85 193.09,-234.47 -5.02,-6.85 -45.3,-42.39 -55.77,-51.12 -16.08,-13.42 -40.31,-40.65 -45.77,-61.11 -19.93,5.32 -33.11,41.82 -56.64,76.97 -57.86,86.42 -114.35,155.76 -206.12,210.74 -132.91,79.63 -200.97,-27.3 -217.41,-144.24 -3.47,-24.73 -4.65,-35.99 -7.34,-62.56 -2.95,-29.05 1.18,-25.85 1.18,-59.5z"/>
   <path class="fil0" d="M459.85 617.99c17.84,-40.2 38.35,-49.99 63.37,-80.17 -27.6,-19.77 -33.02,-44.99 -13.98,-78.62 37.78,-66.78 117.55,-141.54 181.22,-182.23 98.6,-63.02 218.04,-107.81 378.43,-107.91 220.68,-0.14 373.47,82.7 503.82,217.68l39.18 51.68c19.17,27.35 49.05,63.77 -0.03,99.41 21.5,26.92 50.69,39.82 60.96,80.17 67.08,1.5 78.52,94.35 118.25,112.05 26.75,11.91 58.57,-11.17 68.34,-32.41 13.82,-30.04 -2.05,-72.01 -9.05,-96.86 -35.38,-125.65 -86.15,-213.3 -156.87,-302.76 -232.8,-294.49 -643.55,-382.51 -989.83,-210.93 -87.22,43.22 -163.78,102.78 -226.72,174.12 -90.8,102.94 -143.92,181.51 -187.73,330.68 -6.2,21.12 -21.62,66.51 -15.73,94.4 4.88,23.12 37.73,52.45 65.71,46.33 42.5,-9.3 58.38,-109.53 120.65,-114.62z"/>
   <path class="fil1" d="M953.97 663.4c8.35,21.11 5.53,34.73 1.31,49.29l-45.34 -0.02c-0.68,-2.35 -4.28,-16.87 -4.05,-25.14l6.31 -25.16 41.77 1.04zm495.14 29.37c-2.07,-24.49 3.1,-30.5 25.96,-30.5 33.25,0 32.11,17.28 24.33,50.6 -48.07,6.15 -28.08,2.26 -49.01,-2.93l-1.27 -17.17zm-64.9 -25.95c50.86,-16.52 56.46,0.9 47.03,48.04l-48.95 -0.96 1.91 -47.08zm-138.71 20.63c-1.62,-22.72 5.58,-25.59 26.47,-25.59 33.4,0 32.02,20.21 23.29,48.17 -19.21,9.99 -27.5,5.29 -48.49,0.5l-1.27 -23.08zm-43 28.07c-38.87,4.79 -31.09,-48.23 -9.81,-53.62 46.99,-11.91 41.01,24.75 34.69,51.25l-24.89 2.38zm-86.2 -51.18c14.6,-4.37 28.76,-5.45 45.64,2.34l-2.64 46.74 -46.06 -0.85c-4.07,-15.31 -6.38,-32.93 3.05,-48.23zm-70.89 46.38c-11,-27.5 -9.85,-49.24 23.49,-49.2 25.42,0.03 34.52,14.39 25.67,41.82 -6.16,19.09 -34.6,13.38 -49.16,7.38zm-203.09 0.21c-12.63,-28.53 -4.57,-65.91 37.92,-48.64 13.71,5.57 26.46,56.67 -14.49,53.04l-23.43 -4.4zm-71.77 -18.17c-0.06,-26.32 -1.39,-31.73 25.77,-31.73 21.72,0 23.67,-3.45 27.24,15.86 9.84,53.17 -52.93,50.27 -53.02,15.87zm-131.16 -30.53c42.92,-2.73 48.23,-6.58 48.14,30.53 -0.07,30.04 -21.65,23.69 -48.4,18.45 -7.25,-15.29 -5.94,-32.69 0.26,-48.98zm-179.54 -44.26c40.34,0 58.88,7.25 73.88,32.72 21.06,35.76 3.99,54.67 15.17,95.54 14.76,13.38 465.37,4.79 519.99,4.79 87.39,0 477.62,-4.85 529.1,2 -0.86,-42.73 -12.67,-49.58 4.46,-93.23 10.3,-26.26 34.51,-41.82 70.38,-41.82 -10.27,-40.35 -39.46,-53.25 -60.96,-80.17 -55.21,15.95 -448.25,5.35 -542.97,5.35 -90.86,0 -181.71,0 -272.57,0 -80.05,0 -205.35,9.72 -273.1,-5.35 -25.02,30.18 -45.53,39.97 -63.37,80.17z"/>
   <path class="fil2" d="M1113.83 850.92c-4.28,-12.06 -7.51,-26.55 0.13,-50.46l43.87 1.2c6.91,20.58 6.74,28.97 0.19,51.16l-44.19 -1.9zm-203.09 0c-5.08,-12.94 -7.48,-26.34 -0.73,-51.15l44.72 1.89c7.03,23.19 3.89,37.59 -0.59,50.55l-43.4 -1.29zm569.16 3.45c-47.56,5.4 -46.37,-54.28 -4.84,-54.14 32.97,0.1 28.99,8.45 23,48.7l-18.15 5.44zm-74.32 -0.45c-26.3,2.92 -31.41,-20.37 -24,-41.45 5.21,-14.83 43.97,-24.57 51.63,3.25l-3.03 36.1 -24.6 2.1zm-64.13 -53.9c32.79,-2.12 52.45,66.93 -25.59,51.06 -2.59,-22.54 -6.33,-31.09 2.6,-49.77l22.99 -1.29zm-96.24 26.4c-2.59,-23.74 4.07,-27.83 26.73,-27.57 24.25,0.28 26.22,4.45 26.18,27.57 -0.06,35.31 -22.92,34.48 -51.03,22.73l-1.89 -22.73zm-67.9 0c-0.06,-34.74 15.33,-29.01 47.88,-23.08 8.93,18.44 4.91,27.11 0.96,48.57 -42.46,2.98 -48.79,7.34 -48.84,-25.48zm-131.38 -25.03c41.45,-3.55 48.69,-8.2 48.63,25.03 -0.04,23.86 -1.1,26.83 -25.67,26.88 -36.51,0.08 -35.3,-21.36 -22.96,-51.91zm-46.52 51.74c-25.04,-0.04 -34.04,-13.81 -25.25,-40.68 6.52,-19.91 31.59,-15.55 48.14,-9.02 12.35,29.27 13.41,49.75 -22.9,49.7zm-157.27 -50.37c28.47,-9.82 48.91,-10.99 48.85,23.66 -0.04,22.63 -1.78,26.53 -25.19,26.53 -37.31,0 -35.06,-19.53 -23.67,-50.19zm-45.81 50c-25.15,0 -34.72,-13.01 -25.81,-40.66 6.6,-20.5 32.93,-15.64 48.9,-8.47 10.68,28.97 11.55,49.13 -23.08,49.13zm-69.48 -0.1c-33.37,2.35 -27.1,-30.31 -20.86,-52.1l45.66 1.1c3.25,11.98 4.23,11.89 3.91,25.47l-5.85 24.3 -22.86 1.23zm-42.87 -52.27c7.09,26.11 11.66,50.97 -21.34,53.01 -37.13,2.3 -33.25,-18.51 -24.71,-53.54l46.05 0.54zm-176.25 116.6c17.17,15.73 22.96,11.52 58.71,11.17l1052.93 -0.05c0.54,-1.1 1.87,-3.78 2.22,-2.95l8.47 -9.33c0,-50.59 -14.41,-131.69 -32.06,-162.79 -51.48,-6.85 -441.71,-2 -529.1,-2 -54.61,0 -505.23,8.6 -519.99,-4.79 -33.61,29.01 -28.78,145.7 -41.18,170.74z"/>
   <path class="fil3" d="M1447.31 966.22c-0.16,-27.19 1.93,-28.07 27.75,-28.07 26.62,0 26.52,1.06 26.46,27.23 -0.06,31.31 -1.84,26.76 -26.46,26.76 -23.96,0 -27.6,-0.61 -27.75,-25.91zm-17.46 -25.11c9.85,33.36 5.19,67.66 -38.68,49.35 -13.76,-5.75 -24.7,-56.63 14.48,-52.94l24.2 3.59zm-68.04 -1.25c4.85,14.89 4.89,36.18 -0.99,50.18l-38.43 0.15c-0.76,-1.54 -2.83,-0.6 -4.21,-1.02 -8.9,-18.12 -6.38,-30.97 -1.66,-50.38l45.28 1.07zm-158.62 52.64l-134.3 -1.09c-171.66,-0.52 -173.96,17.06 -160.21,-52.44 43.92,-5.2 290.09,-7.46 317.62,2.67 6.29,18.47 11.1,46.49 -12.95,50.62 -1.84,0.32 -8.04,0.19 -10.16,0.23zm-430.56 -50.07c19.58,-9.85 26.4,-5.7 49.03,-0.43 1.32,23.75 6.47,42.87 -10.98,48.83 -14.49,4.96 -52.12,6.84 -38.05,-48.41zm-67.85 -3.94l49.24 1.32 -0.4 47.89c-24.21,6.08 -24.21,4.38 -50.74,-1.35l1.9 -47.85zm-20.7 47.52c-47.11,21.74 -54.9,-1.63 -47.43,-48.3l49.66 0.78 -2.22 47.52zm267.22 155.74c38.6,18.14 60.3,34.63 117.58,34.16 59.13,-0.49 77.26,-15.37 117.58,-34.11 41.17,-177.42 317.68,-47.14 459.62,-80.21 -9.17,-39.35 -16.04,-97.66 -16.04,-145.75l-8.47 9.33c-0.35,-0.83 -1.68,1.84 -2.22,2.95l-1052.93 0.05c-35.75,0.36 -41.55,4.56 -58.71,-11.17 0,103.87 -9.87,107.64 -10.69,144.59 100.41,23.39 307.94,-55.75 412.92,9.33 3.41,2.11 7.73,4.81 9.96,6.53l10.98 10.69c0.09,0.11 12.29,20.15 13.59,22.97 6.1,13.26 6.42,12.71 6.82,30.65z"/>
   <path class="fil1" d="M1792.11 1264.66c13.5,9.78 120.93,5.23 142.63,4.96l36.77 1.09c11.42,2.35 6.72,0.83 13.06,4.64 49.54,-13.75 90.84,-10.69 153.2,-10.69 -29.88,-56.47 -26.49,-58.55 -171.03,-58.8 -41.6,-0.07 -75.53,1.71 -107.13,10.45 -23.38,6.47 -64.67,22.16 -67.51,48.35z"/>
   <path class="fil1" d="M153.2 1275.35c1.31,-0.78 3.41,-3.08 4.21,-1.77 0.81,1.32 3.17,-1.34 4.32,-1.6l137.72 -2.16c26.35,0.27 34.59,3.27 46.23,-5.16 -1.84,-16.97 -6.9,-19.76 -23,-28.68 -12.99,-7.2 -28.63,-14.79 -40.37,-18.45 -66.17,-20.64 -153.12,-8.23 -218.3,-6.45 -42.86,1.17 -40.93,10 -63.99,53.58 62.36,0 103.65,-3.06 153.2,10.69z"/>
   <path class="fil4" d="M1226.3 941.64c-27.52,-10.13 -273.69,-7.88 -317.62,-2.67 -13.75,69.5 -11.45,51.91 160.21,52.44l134.3 1.09c2.11,-0.04 8.31,0.09 10.16,-0.23 24.05,-4.14 19.24,-32.15 12.95,-50.62z"/>
   <path class="fil2" d="M1795.73 1331.2c14.83,5.93 36.68,6.03 58.79,3.9 8.54,-0.36 2.54,1.71 13.84,-3.37 29.18,-13.13 18.94,-17.24 116.22,-56.38 -6.34,-3.81 -1.64,-2.29 -13.06,-4.64l-36.77 -1.09c-21.71,0.27 -129.14,4.82 -142.63,-4.96 -11.32,13.5 -8.24,40.02 -3.03,54.56 4.18,11.66 3.35,8.59 6.65,11.98z"/>
   <path class="fil2" d="M153.2 1275.35c108.22,43.54 52.89,23.51 112.93,54.7 15.27,7.93 6.33,4.59 17.13,5.05 22.11,2.13 43.96,2.03 58.79,-3.9 10.35,-10.62 13.85,-37.84 9.48,-54.25l-5.86 -12.28c-11.64,8.43 -19.88,5.43 -46.23,5.16l-137.72 2.16c-1.15,0.26 -3.51,2.92 -4.32,1.6 -0.8,-1.31 -2.9,0.99 -4.21,1.77z"/>
   <path class="fil4" d="M1475.07 992.13c24.63,0 26.4,4.55 26.46,-26.76 0.05,-26.17 0.16,-27.23 -26.46,-27.23 -25.83,0 -27.92,0.88 -27.75,28.07 0.15,25.31 3.8,25.91 27.75,25.91z"/>
   <path class="fil4" d="M999.41 853.13c36.31,0.05 35.25,-20.43 22.9,-49.7 -16.56,-6.53 -41.63,-10.89 -48.14,9.02 -8.79,26.87 0.2,40.64 25.25,40.68z"/>
   <path class="fil4" d="M1429.86 941.11l-24.2 -3.59c-39.18,-3.69 -28.24,47.19 -14.48,52.94 43.87,18.31 48.53,-15.99 38.68,-49.35z"/>
   <path class="fil4" d="M796.32 852.75c34.64,0 33.77,-20.16 23.08,-49.13 -15.96,-7.16 -42.29,-12.03 -48.9,8.47 -8.91,27.65 0.67,40.66 25.81,40.66z"/>
   <path class="fil4" d="M1045.93 801.39c-12.34,30.55 -13.55,51.99 22.96,51.91 24.57,-0.05 25.63,-3.03 25.67,-26.88 0.06,-33.23 -7.18,-28.58 -48.63,-25.03z"/>
   <path class="fil4" d="M842.32 710.95l23.43 4.4c40.95,3.63 28.2,-47.47 14.49,-53.04 -42.49,-17.27 -50.54,20.11 -37.92,48.64z"/>
   <path class="fil4" d="M1045.4 710.73c14.57,6 43,11.71 49.16,-7.38 8.85,-27.42 -0.25,-41.78 -25.67,-41.82 -33.34,-0.04 -34.49,21.69 -23.49,49.2z"/>
   <path class="fil4" d="M1245.22 826.42l1.89 22.73c28.11,11.74 50.97,12.58 51.03,-22.73 0.04,-23.13 -1.93,-27.3 -26.18,-27.57 -22.66,-0.26 -29.33,3.84 -26.73,27.57z"/>
   <path class="fil4" d="M842.14 802.76c-11.39,30.66 -13.64,50.19 23.67,50.19 23.4,0 25.14,-3.89 25.19,-26.53 0.06,-34.65 -20.38,-33.48 -48.85,-23.66z"/>
   <path class="fil4" d="M683.97 800.39l-46.05 -0.54c-8.54,35.03 -12.41,55.84 24.71,53.54 33,-2.04 28.43,-26.9 21.34,-53.01z"/>
   <path class="fil4" d="M1202.5 715.53l24.89 -2.38c6.31,-26.5 12.3,-63.16 -34.69,-51.25 -21.28,5.39 -29.07,58.42 9.81,53.62z"/>
   <path class="fil4" d="M770.55 692.78c0.08,34.4 62.86,37.3 53.02,-15.87 -3.58,-19.31 -5.52,-15.86 -27.24,-15.86 -27.17,0 -25.84,5.41 -25.77,31.73z"/>
   <path class="fil4" d="M1498.06 848.92c5.99,-40.25 9.97,-48.6 -23,-48.7 -41.53,-0.13 -42.72,59.54 4.84,54.14l18.15 -5.44z"/>
   <path class="fil4" d="M684.09 986l2.22 -47.52 -49.66 -0.78c-7.46,46.68 0.32,70.04 47.43,48.3z"/>
   <path class="fil4" d="M772.63 942.42c-14.06,55.25 23.56,53.37 38.05,48.41 17.45,-5.96 12.3,-25.08 10.98,-48.83 -22.63,-5.28 -29.45,-9.42 -49.03,0.43z"/>
   <path class="fil4" d="M639.39 662.25c-6.2,16.29 -7.51,33.69 -0.26,48.98 26.75,5.24 48.33,11.59 48.4,-18.45 0.09,-37.11 -5.22,-33.26 -48.14,-30.53z"/>
   <path class="fil4" d="M1449.11 692.78l1.27 17.17c20.93,5.19 0.94,9.08 49.01,2.93 7.78,-33.32 8.92,-50.6 -24.33,-50.6 -22.85,0 -28.03,6.01 -25.96,30.5z"/>
   <path class="fil4" d="M1318.47 801.31c-8.93,18.68 -5.19,27.24 -2.6,49.77 78.03,15.87 58.38,-53.18 25.59,-51.06l-22.99 1.29z"/>
   <path class="fil4" d="M1245.5 687.46l1.27 23.08c20.99,4.8 29.28,9.5 48.49,-0.5 8.74,-27.96 10.11,-48.17 -23.29,-48.17 -20.89,0 -28.09,2.86 -26.47,25.59z"/>
   <path class="fil4" d="M1405.59 853.91l24.6 -2.1 3.03 -36.1c-7.65,-27.81 -46.42,-18.08 -51.63,-3.25 -7.41,21.08 -2.3,44.37 24,41.45z"/>
   <path class="fil4" d="M1177.32 826.42c0.06,32.82 6.39,28.47 48.84,25.48 3.95,-21.46 7.97,-30.13 -0.96,-48.57 -32.55,-5.92 -47.94,-11.65 -47.88,23.08z"/>
   <path class="fil4" d="M1384.21 666.83l-1.91 47.08 48.95 0.96c9.42,-47.14 3.83,-64.56 -47.03,-48.04z"/>
   <path class="fil4" d="M726.84 852.66l22.86 -1.23 5.85 -24.3c0.32,-13.58 -0.67,-13.49 -3.91,-25.47l-45.66 -1.1c-6.23,21.79 -12.51,54.45 20.86,52.1z"/>
   <path class="fil4" d="M1113.83 850.92l44.19 1.9c6.55,-22.19 6.72,-30.58 -0.19,-51.16l-43.87 -1.2c-7.64,23.91 -4.41,38.4 -0.13,50.46z"/>
   <path class="fil4" d="M910.75 850.92l43.4 1.29c4.48,-12.96 7.62,-27.36 0.59,-50.55l-44.72 -1.89c-6.75,24.81 -4.35,38.21 0.73,51.15z"/>
   <path class="fil4" d="M1318.19 989.17c1.38,0.43 3.44,-0.52 4.21,1.02l38.43 -0.15c5.88,-14.01 5.83,-35.29 0.99,-50.18l-45.28 -1.07c-4.72,19.41 -7.24,32.27 1.66,50.38z"/>
   <path class="fil4" d="M702.88 986.33c26.53,5.73 26.53,7.44 50.74,1.35l0.4 -47.89 -49.24 -1.32 -1.9 47.85z"/>
   <path class="fil4" d="M1116.3 664.36c-9.43,15.29 -7.13,32.92 -3.05,48.23l46.06 0.85 2.64 -46.74c-16.88,-7.78 -31.05,-6.7 -45.64,-2.34z"/>
   <path class="fil4" d="M912.2 662.37l-6.31 25.16c-0.23,8.27 3.36,22.79 4.05,25.14l45.34 0.02c4.22,-14.55 7.04,-28.17 -1.31,-49.29l-41.77 -1.04z"/>
   <path class="fil3" d="M1854.52 1335.1c-22.11,2.13 -43.96,2.03 -58.79,-3.9 4.53,24.56 10.86,23.51 16.03,45.7 19.73,-13.21 35.51,-25.22 42.76,-41.79z"/>
   <path class="fil3" d="M283.26 1335.1c9.64,22.05 -0.05,8.41 19.1,22.92 11.22,8.5 13.18,11.86 23.66,18.88 5.17,-22.18 11.5,-21.13 16.03,-45.7 -14.83,5.93 -36.68,6.03 -58.79,3.9z"/>
  </g>
 </g>
</svg>
