<?xml version="1.0" encoding="UTF-8"?>
<!DOCTYPE svg PUBLIC "-//W3C//DTD SVG 1.1//EN" "http://www.w3.org/Graphics/SVG/1.1/DTD/svg11.dtd">
<!-- Creator: CorelDRAW 2019 (64-Bit) -->
<svg xmlns="http://www.w3.org/2000/svg" xml:space="preserve" width="5.9145mm" height="5.33mm" version="1.1" style="shape-rendering:geometricPrecision; text-rendering:geometricPrecision; image-rendering:optimizeQuality; fill-rule:evenodd; clip-rule:evenodd"
viewBox="0 0 19.44 17.52"
 xmlns:xlink="http://www.w3.org/1999/xlink">
 <defs>
  <style type="text/css">
   <![CDATA[
    .fil2 {fill:#600606}
    .fil1 {fill:#BA1313}
    .fil0 {fill:#FE1212}
   ]]>
  </style>
 </defs>
 <g id="Слой_x0020_1">
  <metadata id="CorelCorpID_0Corel-Layer"/>
  <g id="_1312201885552">
   <path class="fil0" d="M11.7 11.09c-0.67,-4.86 -0.41,-7.04 3.58,-9.6l0.02 5.06c-0,1.95 -2.85,3.13 -3.6,4.55zm-4.07 0c-0.53,-1 -2.64,-2.37 -3.25,-3.32 -0.74,-1.16 -0.36,-4.69 -0.33,-6.28 3.91,2.51 4.57,5.03 3.58,9.6zm-7.36 -5.98c1.07,1.29 0.7,1.96 4.26,5.63 1.33,1.37 3.69,4.06 5.14,4.94 1.67,-1.02 5.86,-5.7 7.51,-7.59 0.99,-1.13 1.13,-2.07 1.89,-2.98 -0.05,-2.66 -1.8,-4.09 -3.76,-4.87 -2.55,-1.02 -4.19,1.57 -5.65,2.54 -1.28,-0.86 -3.04,-3.41 -5.42,-2.63 -2.06,0.68 -3.94,2.39 -3.98,4.96z"/>
   <path class="fil1" d="M19.07 5.11c-0.76,0.92 -0.91,1.85 -1.89,2.98 -1.65,1.89 -5.84,6.58 -7.51,7.59 -1.45,-0.88 -3.81,-3.58 -5.14,-4.94 -3.56,-3.67 -3.2,-4.34 -4.26,-5.63 -0.23,0.26 -0.24,-0.01 -0.26,0.79 -0.01,0.22 0.15,1.01 0.23,1.27 0.61,2.07 2.25,3.3 3.72,4.77 1.46,1.46 4.25,4.58 5.72,5.57 1.46,-0.98 4.26,-4.1 5.72,-5.57 1,-1 1.95,-1.78 2.75,-2.89 0.44,-0.6 0.7,-1.01 0.96,-1.89 0.76,-2.57 -0.01,-2.03 -0.04,-2.06z"/>
   <path class="fil2" d="M7.63 11.09c0.99,-4.57 0.33,-7.09 -3.58,-9.6 -0.03,1.59 -0.41,5.12 0.33,6.28 0.61,0.95 2.72,2.32 3.25,3.32z"/>
   <path class="fil2" d="M11.7 11.09c0.75,-1.42 3.6,-2.59 3.6,-4.55l-0.02 -5.06c-4,2.57 -4.25,4.75 -3.58,9.6z"/>
  </g>
 </g>
</svg>
