<?xml version="1.0" encoding="UTF-8"?>
<!DOCTYPE svg PUBLIC "-//W3C//DTD SVG 1.1//EN" "http://www.w3.org/Graphics/SVG/1.1/DTD/svg11.dtd">
<!-- Creator: CorelDRAW 2019 (64-Bit) -->
<svg xmlns="http://www.w3.org/2000/svg" xml:space="preserve" width="5.6496mm" height="5.6424mm" version="1.1" style="shape-rendering:geometricPrecision; text-rendering:geometricPrecision; image-rendering:optimizeQuality; fill-rule:evenodd; clip-rule:evenodd"
viewBox="0 0 17.85 17.83"
 xmlns:xlink="http://www.w3.org/1999/xlink">
 <defs>
  <style type="text/css">
   <![CDATA[
    .fil0 {fill:#281E0B}
    .fil4 {fill:#444444}
    .fil2 {fill:#4A3616}
    .fil7 {fill:#664C1C}
    .fil5 {fill:#876526}
    .fil1 {fill:#C2C2C2}
    .fil3 {fill:#D8D8D8}
    .fil6 {fill:#FEFEFE}
   ]]>
  </style>
 </defs>
 <g id="Слой_x0020_1">
  <metadata id="CorelCorpID_0Corel-Layer"/>
  <g id="_1312201903568">
   <path class="fil0" d="M15.01 0.86c0.3,0.11 0.42,0.2 0.58,0.41 0.18,0.09 0.13,0.01 0.16,0.18 0.27,0.15 0.48,0.37 0.64,0.64 0.16,0.03 0.09,-0.02 0.18,0.16 0.42,0.33 0.84,1.16 0.51,1.91 -0.26,0.61 -0.82,1.03 -1.21,1.43l-2.63 2.6 -0.92 -0.94c-0.1,-0.06 -0.07,-0.02 -0.15,-0.11 -0.12,-0.14 -0.02,-0 -0.07,-0.16l-0.71 -0.6 -0.45 0.45c0.17,0.31 0.25,0.23 0.4,0.56l-2.75 2.77 -0.09 0.09c-0.01,0.01 -0.03,0.03 -0.05,0.04l-1.24 1.24 -1.35 1.35c-0.01,0.02 -0.04,0.02 -0.05,0.04l-1.33 1.33c-0.41,0.36 -0.76,0.75 -1.15,1.14 -0.87,0.87 -0.55,0.27 -0.72,1.64 -0.02,0.13 0.01,0.09 -0.12,0.08 -0.3,0.21 -1.08,0.05 -1.52,0.05 0.35,0.7 0.69,0.67 1.37,0.65 0.7,-0.02 0.92,-0.36 0.93,-1.12 0.01,-0.57 0.17,-0.55 0.49,-0.87l6.74 -6.74c0.42,-0.42 0.9,-0.98 1.39,-1.34l1.35 1.3 3.96 -3.92c1.35,-1.51 0.38,-2.81 -0.68,-3.88 -0.44,-0.44 -0.56,-0.59 -1.12,-0.92 -0.17,0.27 -0.23,0.21 -0.38,0.53z"/>
   <path class="fil1" d="M10.86 5.75l0.53 0.63 0.71 0.6c0.39,-0.54 3.4,-3.34 3.99,-4.07 0.31,-0.39 0.17,-0.45 0.31,-0.82 -0.15,-0.27 -0.37,-0.48 -0.64,-0.64 -0.37,0.14 -0.43,0 -0.82,0.31l-2.93 2.88c-0.35,0.35 -0.75,0.82 -1.15,1.11z"/>
   <path class="fil2" d="M0.97 17.18c0.44,0 1.22,0.16 1.52,-0.05 -0.92,0.05 -0.88,-0.08 -1.32,-0.52 -0.26,-0.26 -0.84,-0.74 -0.36,-1.36 1.38,-0.18 0.78,0.16 1.66,-0.72 0.28,-0.28 0.94,-0.87 1.11,-1.16 0.21,-0.2 1.31,-1.18 1.35,-1.35 0.01,-0.03 0.03,-0.04 0.04,-0.06l1.33 -1.32 1.35 -1.35c0.01,-0.03 0.03,-0.04 0.04,-0.05l2.81 -2.75 -0.41 -0.43c-0.39,0.22 -7.37,7.33 -8.33,8.29 -0.61,0.61 -0.79,-0.22 -1.51,0.54 -0.27,0.28 -0.28,0.42 -0.23,1.14 0.02,0.4 0.23,0.59 0.71,1l0.24 0.15z"/>
   <path class="fil3" d="M10.67 5.62c0.13,0.24 -0.01,0.11 0.19,0.13 0.4,-0.29 0.8,-0.76 1.15,-1.11l2.93 -2.88c0.39,-0.31 0.45,-0.17 0.82,-0.31 -0.03,-0.16 0.02,-0.09 -0.16,-0.18 -0.14,0.07 -1.21,-0.26 -1.79,-0.04 -0.35,0.13 -0.96,0.84 -1.21,1.09 -0.7,0.7 -1.66,1.55 -2.25,2.27 0.06,0.25 0.11,0.34 0.23,0.56 0.06,0.11 0.11,0.17 0.13,0.27l-0.03 0.2z"/>
   <path class="fil3" d="M12.09 6.98c0.04,0.16 -0.05,0.02 0.07,0.16 0.08,0.09 0.05,0.05 0.15,0.11 0.12,-0.2 -0,-0.08 0.21,-0.05 0.14,0.02 0.32,0.21 0.72,0.3 0.32,-0.26 3.21,-3.08 3.36,-3.47 0.22,-0.58 -0.11,-1.65 -0.04,-1.79 -0.09,-0.18 -0.01,-0.13 -0.18,-0.16 -0.14,0.37 -0,0.43 -0.31,0.82 -0.59,0.74 -3.59,3.53 -3.99,4.07z"/>
   <path class="fil4" d="M10.09 6.06l0.41 0.43 0.44 0.34 0.45 -0.45 -0.53 -0.63c-0.2,-0.02 -0.06,0.11 -0.19,-0.13l-1 -1.03c0.24,-0.35 0.83,-0.87 1.17,-1.21 0.42,-0.42 0.78,-0.78 1.19,-1.19 0.55,-0.55 1.62,-2.1 2.98,-1.33 0.15,-0.32 0.22,-0.26 0.38,-0.53 -1.79,-0.86 -2.45,0.09 -3.7,1.34l-2.88 2.92c0.4,0.59 1.16,0.97 1.28,1.46z"/>
   <path class="fil5" d="M7.69 9.23c0.08,0.35 0.13,0.31 0.37,0.55 0.22,0.22 0.2,0.28 0.53,0.37l2.75 -2.77c-0.15,-0.33 -0.23,-0.25 -0.4,-0.56l-0.44 -0.34 -2.81 2.75z"/>
   <path class="fil5" d="M0.79 15.24c0.13,0.32 1.48,1.68 1.81,1.8 0.18,-1.37 -0.15,-0.77 0.72,-1.64 0.39,-0.39 0.74,-0.78 1.15,-1.14 -0.12,-0.34 -0.57,-0.79 -0.92,-0.9 -0.17,0.29 -0.83,0.88 -1.11,1.16 -0.88,0.88 -0.28,0.54 -1.66,0.72z"/>
   <path class="fil6" d="M10.67 5.62l0.03 -0.2c-0.02,-0.1 -0.07,-0.16 -0.13,-0.27 -0.12,-0.22 -0.17,-0.3 -0.23,-0.56 0.59,-0.73 1.56,-1.58 2.25,-2.27 0.25,-0.25 0.87,-0.95 1.21,-1.09 0.58,-0.22 1.65,0.11 1.79,0.04 -0.16,-0.21 -0.28,-0.3 -0.58,-0.41 -1.35,-0.77 -2.42,0.78 -2.98,1.33 -0.42,0.42 -0.78,0.78 -1.19,1.19 -0.34,0.34 -0.93,0.86 -1.17,1.21l1 1.03z"/>
   <path class="fil6" d="M12.31 7.25l0.92 0.94 2.63 -2.6c0.4,-0.4 0.95,-0.83 1.21,-1.43 0.33,-0.75 -0.08,-1.58 -0.51,-1.91 -0.07,0.14 0.26,1.21 0.04,1.79 -0.15,0.39 -3.05,3.21 -3.36,3.47 -0.4,-0.09 -0.59,-0.28 -0.72,-0.3 -0.22,-0.04 -0.1,-0.15 -0.21,0.05z"/>
   <path class="fil5" d="M4.96 11.96c0.08,0.35 0.13,0.31 0.37,0.55 0.22,0.22 0.2,0.28 0.53,0.37l1.35 -1.35c-0.12,-0.34 -0.57,-0.79 -0.92,-0.9l-1.33 1.32z"/>
   <path class="fil7" d="M6.29 10.64c0.35,0.1 0.8,0.56 0.92,0.9l1.24 -1.24c0.01,-0.01 0.04,-0.03 0.05,-0.04l0.09 -0.09c-0.33,-0.09 -0.31,-0.15 -0.53,-0.37 -0.24,-0.24 -0.29,-0.2 -0.37,-0.55 -0.02,0.02 -0.04,0.02 -0.04,0.05l-1.35 1.35z"/>
   <path class="fil7" d="M3.56 13.37c0.35,0.1 0.8,0.56 0.92,0.9l1.33 -1.33c0.01,-0.03 0.03,-0.03 0.05,-0.04 -0.33,-0.09 -0.31,-0.15 -0.53,-0.37 -0.24,-0.24 -0.29,-0.2 -0.37,-0.55 -0.02,0.02 -0.04,0.02 -0.04,0.06 -0.04,0.17 -1.14,1.15 -1.35,1.35z"/>
   <path class="fil7" d="M2.48 17.12c0.13,0.01 0.1,0.04 0.12,-0.08 -0.33,-0.12 -1.68,-1.48 -1.81,-1.8 -0.47,0.61 0.1,1.1 0.36,1.36 0.44,0.44 0.4,0.58 1.32,0.52z"/>
  </g>
 </g>
</svg>
