<?xml version="1.0" encoding="UTF-8"?>
<!DOCTYPE svg PUBLIC "-//W3C//DTD SVG 1.1//EN" "http://www.w3.org/Graphics/SVG/1.1/DTD/svg11.dtd">
<!-- Creator: CorelDRAW 2019 (64-Bit) -->
<svg xmlns="http://www.w3.org/2000/svg" xml:space="preserve" width="5.8775mm" height="6.7868mm" version="1.1" style="shape-rendering:geometricPrecision; text-rendering:geometricPrecision; image-rendering:optimizeQuality; fill-rule:evenodd; clip-rule:evenodd"
viewBox="0 0 19.3 22.28"
 xmlns:xlink="http://www.w3.org/1999/xlink">
 <defs>
  <style type="text/css">
   <![CDATA[
    .fil6 {fill:#19140C}
    .fil11 {fill:#2C2314}
    .fil21 {fill:#2D2417}
    .fil9 {fill:#302719}
    .fil18 {fill:#4B2B18}
    .fil14 {fill:#4D3D24}
    .fil1 {fill:#4E3E26}
    .fil10 {fill:#582D19}
    .fil15 {fill:#604D2F}
    .fil2 {fill:#624E30}
    .fil23 {fill:#644329}
    .fil8 {fill:#745E39}
    .fil12 {fill:#766039}
    .fil22 {fill:#7C6440}
    .fil20 {fill:#9E5933}
    .fil4 {fill:#9F844D}
    .fil13 {fill:#A1824C}
    .fil17 {fill:#B07247}
    .fil0 {fill:#B4764B}
    .fil19 {fill:#B4905A}
    .fil5 {fill:#B5B5B5}
    .fil7 {fill:#B9955F}
    .fil16 {fill:#D5D5D5}
    .fil3 {fill:#D7D7D7}
   ]]>
  </style>
 </defs>
 <g id="Слой_x0020_1">
  <metadata id="CorelCorpID_0Corel-Layer"/>
  <g id="_1312055872192">
   <g>
    <g>
     <path class="fil0" d="M13.86 9.67c0,-0.32 0.01,-0.64 0.01,-0.96 -0.28,0.16 -0.56,0.32 -0.83,0.48 0.27,0.16 0.55,0.32 0.82,0.48z"/>
     <path class="fil0" d="M15.15 8.84c0.23,-0.42 0.46,-0.85 0.69,-1.27 -0.26,0.15 -0.51,0.3 -0.77,0.45 0,0.14 -0.01,0.31 -0.01,0.45 0,0.06 0,0.18 0.01,0.24 0.03,0.15 0.02,0.08 0.07,0.14z"/>
     <path class="fil0" d="M16.83 14.58c0.12,0.08 0.14,0.07 0.33,0.02 -0.05,-0.19 -0.04,-0.28 0.03,-0.49 -0.01,-0.08 -0.02,-0.15 -0.02,-0.23 -0.11,0.09 -0.23,0.17 -0.34,0.26 0,0.15 0,0.29 0.01,0.44z"/>
    </g>
    <g>
     <path class="fil1" d="M14.75 19.34c0.71,-0.41 1.41,-0.82 2.12,-1.23 0.71,-0.41 1.41,-0.82 2.12,-1.23 0.01,-0.1 0.01,-0.2 0.02,-0.3 -0.72,0.42 -1.44,0.83 -2.16,1.25 -0.72,0.41 -1.44,0.83 -2.16,1.24 0.02,0.09 0.04,0.18 0.06,0.27z"/>
     <path class="fil1" d="M11.02 17.32c-0.07,0.01 -0.14,0.02 -0.22,0.03 0.02,0.07 0.03,0.15 0.05,0.22 0.4,-0.21 0.8,-0.42 1.21,-0.64 0.26,-0.02 0.24,0.19 0.61,0.03 0.06,-0.11 0.06,-0.09 0.12,-0.23 0.01,-0.14 0.01,-0.28 0.02,-0.41 0,-0.27 0,-0.55 0.01,-0.82 -0.05,-0.01 -0.1,-0.03 -0.15,-0.05 -0.01,0.43 -0.01,0.86 -0.02,1.28 -0.39,0.22 -0.34,0.25 -0.35,-0.18 -0.42,0.26 -0.85,0.51 -1.27,0.77z"/>
     <path class="fil1" d="M14.68 11.05c0.12,-0.06 0.24,-0.13 0.35,-0.19 0.02,-0.14 0.05,-0.27 0.08,-0.41 -0.12,0.07 -0.24,0.14 -0.36,0.21 -0.02,0.13 -0.04,0.26 -0.06,0.39z"/>
     <path class="fil1" d="M9.96 19.29c0.11,-0.07 0.23,-0.13 0.34,-0.2 -0,-0.12 -0.01,-0.24 -0.01,-0.37 -0.11,0.06 -0.22,0.13 -0.33,0.19 0,0.12 0,0.25 0,0.37z"/>
     <path class="fil1" d="M9.93 13.79c0.09,-0.05 0.18,-0.1 0.28,-0.15 0.11,-0.37 0.11,-0.08 0,-0.33 -0.09,0.06 -0.18,0.11 -0.28,0.17 0,0.1 0,0.2 0,0.31z"/>
     <path class="fil1" d="M18.74 11.4c0.09,-0.06 0.19,-0.12 0.28,-0.18 -0,-0.09 -0.01,-0.18 -0.01,-0.28 -0.09,0.05 -0.18,0.1 -0.28,0.15 -0.11,0.37 -0.11,0.1 0.01,0.31z"/>
     <path class="fil1" d="M18.75 14.18c0.09,-0.04 0.17,-0.08 0.26,-0.13 -0.01,-0.11 -0.01,-0.22 -0.02,-0.32 -0.1,0.06 -0.2,0.12 -0.3,0.18 0.02,0.09 0.04,0.18 0.06,0.28z"/>
     <path class="fil1" d="M18.75 8.69c0.09,-0.05 0.17,-0.1 0.26,-0.15 -0,-0.11 -0,-0.21 -0,-0.32 -0.09,0.06 -0.17,0.11 -0.26,0.17 0,0.1 0,0.2 0,0.3z"/>
    </g>
    <g>
     <path class="fil2" d="M18.09 10.44c0,0.36 0.02,1.25 0.02,2.13 0,0.87 -0.02,1.73 -0.08,2 0.12,0.01 0.52,-0.29 0.73,-0.39 -0.02,-0.09 -0.04,-0.18 -0.06,-0.28 0.1,-0.06 0.2,-0.12 0.3,-0.18 0.01,-0.84 0.02,-1.67 0.03,-2.51 -0.09,0.06 -0.19,0.12 -0.28,0.18 -0.01,0.25 -0.03,0.5 -0.04,0.75 0,0.13 0.01,0.26 0.01,0.39 -0,0.25 -0.01,0.5 -0.01,0.74 0.03,0.58 0.06,0.35 -0.08,0.7 -0.08,0.04 -0.15,0.09 -0.23,0.13 -0.11,-0.21 -0.07,-0.23 -0.06,-0.6 -0,-0.25 -0.01,-0.5 -0.01,-0.76 0,-0.13 0.01,-0.26 0.01,-0.39 -0.01,-0.22 -0.03,-0.45 -0.04,-0.67 0.04,-0.07 0.08,-0.14 0.11,-0.21 -0.04,-0.05 -0.08,-0.1 -0.11,-0.14 0.01,-0.32 0.01,-0.65 0.02,-0.97 -0.01,-0.19 -0.01,-0.38 -0.02,-0.57 -0.06,0.07 -0.13,0.14 -0.19,0.21 -0.01,0.15 -0.01,0.3 -0.02,0.45z"/>
     <path class="fil2" d="M18.3 9.71c0,-0.26 0.01,-0.52 0.01,-0.79 0.14,-0.08 0.29,-0.15 0.43,-0.23 -0,-0.1 -0,-0.2 -0,-0.3 -0.67,0.44 -0.53,0.33 -0.94,0.2 0.21,0.16 0.25,0.09 0.27,0.55 0.02,0.51 -0.05,0.49 0.23,0.56z"/>
     <path class="fil2" d="M16.92 10.45c0.14,-0.57 0.16,-0.5 0.48,-0.91 -0.19,0.03 -0.36,0.17 -0.58,0.42 0.01,0.1 0,0.2 0.02,0.27 0.03,0.19 0.04,0.16 0.08,0.21z"/>
    </g>
    <g>
     <path class="fil3" d="M17.7 10.68c-0.42,0.24 -0.84,0.49 -1.26,0.73 0.21,0.45 0.41,0.91 0.62,1.36 0.21,0.45 0.41,0.91 0.62,1.36 0.05,-0.7 0.08,-1.32 -0.06,-1.82 -0.24,-0.83 0.05,-0.89 0.09,-1.63z"/>
     <path class="fil3" d="M10.81 17.35c0.07,-0.01 0.14,-0.02 0.22,-0.03 0.55,-0.85 0.72,-0.5 1.2,-1.03 0.09,-0.32 0.07,-0.16 -0.04,-0.34 -0.02,0.01 -0.04,0.02 -0.06,0.03 -0.22,0.13 -0.45,0.26 -0.67,0.38 -0.28,0.18 -0.25,0.14 -0.47,0.43 -0.21,0.27 -0.22,0.22 -0.18,0.55z"/>
    </g>
    <g>
     <path class="fil4" d="M16.44 9.7c0.12,-0.34 0.17,-0.43 0.52,-0.67 0.28,-0.19 0.6,-0.34 0.84,-0.43 0.41,0.13 0.27,0.24 0.94,-0.2 -0.02,-0.25 -0.04,-0.49 -0.06,-0.74 -0.39,0.26 -1.48,0.96 -1.78,0.95 -0.32,0.33 -0.44,0.36 -0.33,-0.15 -0.24,0.25 -0.64,0.49 -0.86,0.5 -0.03,0.05 -0.06,0.1 -0.09,0.15 -0.37,0.65 -0.19,0.3 -0.57,0.83 0.01,0.18 0.02,0.36 0.04,0.54 0.25,-0.14 0.49,-0.27 0.74,-0.41 0.04,-0.11 0.08,-0.21 0.12,-0.32 0.08,-0.19 -0.03,0 0.1,-0.2 0.36,-0.01 0.02,0.03 0.18,0.11 0.15,0.08 -0.09,0.13 0.21,0.05z"/>
     <path class="fil4" d="M18.11 15.25c0.09,-0.06 0.19,-0.12 0.28,-0.19 0.01,0.44 0.05,0.2 -0.14,0.43 -0.19,0 -0.17,0.11 -0.14,-0.25zm-0.58 -0.35c0,0.01 0.03,0.24 0.03,0.24 0.01,0.42 0.01,-0.41 -0,0.15 -0,0.02 -0.01,0.05 -0.01,0.07 0.03,0.15 0.07,0.3 0.1,0.45 0.01,0.02 0.02,0.04 0.03,0.06 -0.04,0.03 -0.22,0.15 -0.24,0.18 -0.2,0.22 -0.07,-0.01 -0.17,0.27 0.21,0.25 0.4,-0.18 1.06,-0.09 0.12,-0.05 0.24,-0.11 0.36,-0.16 0.02,-0.45 0.09,-0.49 0.05,-0.94 -0.04,-0.46 0.01,-0.49 0.02,-0.95 -0.21,0.1 -0.61,0.41 -0.73,0.39 -0.24,0.31 -0.11,0.19 -0.33,0.2 -0.06,0.04 -0.12,0.09 -0.17,0.13z"/>
     <path class="fil4" d="M10.26 19.77c0.65,-0.38 1.23,-0.79 1.8,-1.23 0.56,-0.44 1.26,-0.86 1.82,-1.31 -0.01,-0.07 -0.03,-0.14 -0.04,-0.21 -0.59,0.35 -1.18,0.69 -1.77,1.04 -0.59,0.34 -1.18,0.69 -1.77,1.03 -0.14,0.39 -0.05,0.28 -0.04,0.68z"/>
     <path class="fil4" d="M10.24 12.31c0.01,0.12 0.02,0.24 0.03,0.35 0.24,-0.19 0.49,-0.38 0.73,-0.57 0.08,0.08 0.04,-0.05 0.15,0.13 0.08,-0.41 -0.03,-0.15 0.16,-0.38 0.23,0.01 0.15,-0.1 0.14,0.27 0.05,-0.1 0.09,-0.21 0.14,-0.31 0.35,-0.12 0.67,-0.19 1.02,-0.38 0.41,-0.22 0.75,-0.52 1.14,-0.74 -0.13,-0.03 -0.22,-0.06 -0.32,-0.15 -0.49,0.41 -1.08,0.61 -1.59,0.82 -0.61,0.25 -0.99,0.5 -1.59,0.96z"/>
     <path class="fil4" d="M16.62 12.32c-0.12,-0.2 -0.16,-0.56 -0.32,-0.6 -0.21,0.07 -0.4,0.12 -0.55,0.14 -0.03,0.11 -0.05,0.22 -0.08,0.33 -0.31,0.15 -0.21,0.24 -0.27,-0.11 -0.11,0.05 -0.21,0.1 -0.31,0.15 -0.02,0.44 -0.11,0.59 -0.02,0.93 0.52,-0.28 1.03,-0.55 1.55,-0.83z"/>
     <path class="fil4" d="M10.86 20.48c0.01,-0.12 0.02,-0.24 0.04,-0.36 0.09,-0.03 0.17,-0.06 0.26,-0.1 0.14,-0.06 0.24,-0.12 0.38,-0.19 0.09,-0.04 0.17,-0.09 0.26,-0.13 1.6,-0.87 0.96,-0 1.81,-0.43 -0.03,-0.36 0.15,-0.31 -0.55,-0.34 -0.24,-0.01 -0.5,0.09 -0.67,0.05 -0.1,0.06 -0.2,0.11 -0.3,0.17 -0.46,0.36 -1.15,0.54 -1.53,0.97 0.07,0.43 -0.08,-0.01 0.24,0.29 0.01,0.01 0.03,0.06 0.03,0.04 0.01,-0.02 0.02,0.03 0.03,0.04z"/>
     <path class="fil4" d="M18.68 7.01c0.02,-0.25 0.04,-0.5 0.07,-0.75 -0.76,0.46 -1.52,0.93 -2.28,1.39 0.12,0.22 0.11,0.16 0.47,0.01 0.19,-0.08 0.37,-0.17 0.57,-0.21 0.5,-0.1 0.54,-0.09 1.17,-0.44z"/>
     <path class="fil4" d="M10.25 14.36c0.46,-0.26 0.92,-0.51 1.39,-0.77 0.04,-0.06 0.09,-0.11 0.13,-0.17 0.08,-0.1 0,-0.02 0.14,-0.17 0.07,-0 0.14,-0.01 0.21,-0.01 0.32,-0.17 0.48,-0.16 0.59,-0.55 -0.14,-0.06 -0.63,0.2 -1.15,0.5 -0.52,0.3 -1.07,0.66 -1.32,0.8 0,0.13 0.01,0.25 0.01,0.37z"/>
     <path class="fil4" d="M15.07 15.25c0.59,-0.21 1.21,-0.65 1.76,-0.67 -0,-0.15 -0,-0.29 -0.01,-0.44 -0.55,0.19 -1.19,0.43 -1.76,0.85 0,0.09 0,0.17 0,0.26z"/>
     <path class="fil4" d="M16.99 13.17c-0.04,-0.08 -0.07,-0.15 -0.11,-0.23 -0.48,0.22 -1.31,0.56 -1.66,0.96 0.08,0.2 -0.04,0.31 0.76,-0.13 0.34,-0.19 0.68,-0.35 1.01,-0.6z"/>
     <path class="fil4" d="M10.26 18.3c0.82,-0.7 0.79,-0.71 1.72,-1.11 0.03,-0.06 0.05,-0.19 0.08,-0.26 -0.4,0.21 -0.8,0.42 -1.21,0.64 -0.02,-0.07 -0.03,-0.15 -0.05,-0.22 -0.18,0.04 -0.36,0.07 -0.54,0.11 -0,0.28 -0,0.57 -0,0.85z"/>
     <path class="fil4" d="M18.3 9.71c-0,0.03 -0,0.05 -0.01,0.08 0,0.19 0.01,0.38 0.02,0.57 0.13,-0.08 0.26,-0.15 0.39,-0.23 -0.03,-0.27 0.01,-1.12 0.05,-1.44 -0.14,0.08 -0.29,0.16 -0.43,0.23 -0,0.26 -0.01,0.53 -0.01,0.79z"/>
     <path class="fil4" d="M15.08 16.78c-0,0.12 -0,0.24 -0,0.36 0.2,-0.11 0.4,-0.22 0.6,-0.33 0.11,-0.31 -0.08,-0.13 0.29,-0.33 0,0.12 0,0.24 0,0.36 0.03,-0.06 0.06,-0.12 0.09,-0.18 0.45,-0.85 0.36,-0.13 0.46,-0.78 -0.2,-0.02 0.03,-0.1 -0.3,0.1 -0.38,0.27 -0.76,0.53 -1.14,0.79z"/>
     <path class="fil4" d="M12.13 13.88c0.36,-0.14 0.57,0.05 1.14,-0.32 0.41,-0.27 0.25,-0.15 0.34,-0.43 -0.11,-0.03 -0.03,-0.04 -0.19,0.01 -0.1,0.03 -0.12,0.05 -0.22,0.1 -0.22,0.1 -0.17,0.13 -0.37,0.16 -0.3,0.05 -0.26,-0.07 -0.69,0.11 -0,0.13 -0,0.25 -0,0.38z"/>
     <path class="fil4" d="M10.29 15.83c0.09,0.2 0.93,-0.44 1.17,-0.59 0.01,-0.11 0.02,-0.22 0.02,-0.34 -0.21,0.24 -0.39,0.44 -0.4,0.02 -0.75,0.37 -0.59,0.1 -0.8,0.55 0.1,0.14 0,0.11 0.2,0.09 0.02,-0 0.22,-0.09 0.26,-0.1 0.12,-0.05 0.36,-0.11 0.39,-0.13 -0.28,0.16 -0.56,0.33 -0.84,0.49z"/>
     <path class="fil4" d="M15.07 11.32c0.01,0.13 0.02,0.26 0.03,0.39 0.4,-0.3 0.79,-0.6 1.19,-0.9 0,-0.12 0,-0.24 0,-0.36 -0.41,0.19 -0.79,0.55 -1.22,0.87z"/>
     <path class="fil4" d="M10.24 16.62c0.1,-0.02 0.21,-0.04 0.31,-0.06 0.08,-0.07 0.16,-0.15 0.25,-0.22 0.02,0.12 0.05,0.24 0.07,0.35 0.15,-0.32 0.09,0.24 0.14,-0.43 0.15,-0.09 0.31,-0.18 0.46,-0.27 -0,-0.12 -0.01,-0.23 -0.01,-0.35 -0.38,0.22 -0.76,0.43 -1.13,0.65 -0.03,0.11 -0.06,0.21 -0.08,0.32z"/>
     <path class="fil4" d="M18.32 16.23c-0.47,0.31 -0.94,0.61 -1.42,0.91 0.32,0.24 -0.07,0.42 1.44,-0.63 0.1,-0.44 0.07,-0.18 -0.03,-0.28z"/>
     <path class="fil4" d="M12.79 16.73c0.43,-0.21 0.7,-0.21 1.07,-0.26 0,-0.13 0,-0.27 0,-0.4 -0.32,0 -0.59,0.07 -1.05,0.24 -0.01,0.14 -0.01,0.28 -0.02,0.41z"/>
     <path class="fil4" d="M18.7 13.28c-0.12,0.08 -0.25,0.15 -0.37,0.23 -0,0.38 -0.04,0.4 0.06,0.6 0.08,-0.04 0.15,-0.09 0.23,-0.13 0.14,-0.35 0.11,-0.11 0.08,-0.7z"/>
     <path class="fil4" d="M13.86 18.13c0,-0.12 0,-0.25 0,-0.38 -0.04,0.03 -0.45,0.33 -0.46,0.34 -0.33,0.31 -0.17,0.08 -0.22,0.49 0.23,-0.15 0.46,-0.3 0.69,-0.46z"/>
     <path class="fil4" d="M13.88 12.5c-0.01,-0.11 -0.02,-0.23 -0.02,-0.34 -0.32,0.18 -0.3,0.11 -0.52,0.43 0.07,0.18 -0.14,0.21 0.17,0.13 0.04,-0.01 0.31,-0.18 0.37,-0.21z"/>
     <path class="fil4" d="M18.32 12.75c0.13,-0.07 0.26,-0.14 0.39,-0.21 -0,-0.13 -0.01,-0.26 -0.01,-0.39 -0.12,0.07 -0.25,0.14 -0.37,0.21 -0,0.13 -0.01,0.26 -0.01,0.39z"/>
     <path class="fil4" d="M11.47 14.23c0.02,-0.16 0.04,-0.31 0.07,-0.47 -0.02,0.01 -0.21,0.17 -0.21,0.18 -0.28,0.3 -0.06,0.04 -0.18,0.27 0.1,0.14 0.02,0.17 0.33,0.03z"/>
    </g>
    <g>
     <path class="fil5" d="M16.3 11.71c0.16,0.05 0.2,0.4 0.32,0.6 0.02,0.03 0.05,0.07 0.07,0.1 0.06,0.18 0.12,0.35 0.19,0.53 0.04,0.08 0.07,0.15 0.11,0.23 0.04,0.05 0.31,0.6 0.38,0.83 0.03,0.1 0.07,0.19 0.1,0.29 0.04,0.07 0.07,0.14 0.11,0.21 0.04,0.09 0.08,0.18 0.11,0.26 0.21,-0.01 0.09,0.11 0.33,-0.2 0.07,-0.27 0.08,-1.13 0.08,-2 0,-0.87 -0.02,-1.77 -0.02,-2.13 -0.13,0.08 -0.26,0.16 -0.39,0.24 -0.03,0.74 -0.32,0.8 -0.09,1.63 0.14,0.5 0.11,1.12 0.06,1.82 -0.21,-0.45 -0.41,-0.91 -0.62,-1.36 -0.21,-0.45 -0.41,-0.91 -0.62,-1.36 -0.05,0.03 -0.11,0.05 -0.16,0.08 0.01,0.08 0.01,0.15 0.02,0.23z"/>
     <path class="fil5" d="M12.19 15.95c0.11,0.17 0.12,0.02 0.04,0.34 -0.49,0.53 -0.65,0.18 -1.2,1.03 0.42,-0.26 0.85,-0.51 1.27,-0.77 0.01,0.43 -0.04,0.4 0.35,0.18 0,-0.43 0.01,-0.85 0.02,-1.28 -0.08,-0.01 -0.15,-0.02 -0.23,-0.03 -0.07,0.12 -0.08,0.14 -0.11,0.22 -0.22,0.5 0.2,-0.46 -0.06,0.15 -0.02,0.05 -0.05,0.11 -0.07,0.16z"/>
    </g>
    <g>
     <path class="fil6" d="M9.65 22.28c0.07,-0.04 0.15,-0.09 0.22,-0.13 0.01,-0.09 0.03,-0.19 0.05,-0.28 0.01,-0.86 0.03,-1.72 0.04,-2.58 -0,-0.12 -0,-0.25 -0,-0.37 -0.01,-0.85 -0.01,-1.71 -0.02,-2.56 -0,-0.86 -0.01,-1.71 -0.01,-2.57 0,-0.1 0,-0.2 0,-0.31 0.01,-0.84 0.02,-1.68 0.03,-2.52 -0.11,0.06 -0.21,0.12 -0.32,0.18 0,1.86 0,3.72 0,5.57 0,1.86 0,3.71 0,5.57z"/>
     <path class="fil6" d="M19.01 8.22c0,0.11 0,0.22 0,0.32 0,0.8 0,1.6 0,2.39 0,0.09 0.01,0.19 0.01,0.28 -0.01,0.84 -0.02,1.68 -0.03,2.51 0.01,0.11 0.01,0.22 0.02,0.32 0,0.85 0,1.69 0,2.53 -0.01,0.1 -0.01,0.2 -0.02,0.3 0.1,-0.06 0.2,-0.12 0.31,-0.18 0,-1.86 0,-3.71 0,-5.57 0,-1.86 0,-3.71 0,-5.57 -0.11,0.06 -0.21,0.12 -0.32,0.18 0.01,0.82 0.02,1.65 0.03,2.47z"/>
     <path class="fil6" d="M11.64 13.58c-0.03,0.06 -0.07,0.12 -0.1,0.17 -0.02,0.16 -0.04,0.31 -0.07,0.47 0,0.17 0,0.34 0.01,0.5 0,0.06 0,0.12 0,0.18 -0.01,0.11 -0.02,0.22 -0.02,0.34 0,0.14 0,0.27 0,0.41 0,0.12 0.01,0.23 0.01,0.35 -0,0.12 -0,0.24 -0,0.36 0.22,-0.13 0.45,-0.25 0.67,-0.38 0,-0.24 0.01,-0.48 0.01,-0.72 -0.01,-0.14 -0.01,-0.29 -0.02,-0.43 0,-0.32 0,-0.64 0,-0.96 0,-0.13 0,-0.25 0,-0.38 -0,-0.09 -0.01,-0.18 -0.01,-0.27 -0.07,0 -0.14,0.01 -0.21,0.01 -0.14,0.15 -0.06,0.07 -0.14,0.17 -0.04,0.06 -0.09,0.12 -0.13,0.17z"/>
    </g>
    <g>
     <path class="fil7" d="M18.32 16.23c0.1,0.11 0.13,-0.16 0.03,0.28 -1.51,1.04 -1.12,0.87 -1.44,0.63 0.47,-0.3 0.94,-0.61 1.42,-0.91zm-3.24 0.54c0.38,-0.26 0.76,-0.53 1.14,-0.79 0.33,-0.2 0.1,-0.12 0.3,-0.1 -0.11,0.65 -0.02,-0.07 -0.46,0.78 -0.03,0.06 -0.06,0.12 -0.09,0.18 -0.19,0.15 -0.28,0.2 -0.29,-0.03 -0.2,0.11 -0.4,0.22 -0.6,0.33 -0,0.3 -0.01,0.59 -0.01,0.89 0.02,-0 0.04,-0.04 0.04,-0.03 0,0.01 0.03,-0.02 0.04,-0.02 0.01,-0 0.03,-0.02 0.04,-0.02 0.01,-0.01 0.04,-0.02 0.05,-0.02 0.24,-0.07 0.06,-0.22 0.23,0.04 -0.14,0.33 0.03,0.05 -0.18,0.25 -0.06,0.04 -0.11,0.08 -0.17,0.12 -0,0 -0.03,0.01 -0.03,0.02 -0.01,0.13 -0.01,0.25 -0.02,0.38 0.61,-0.35 1.21,-0.7 1.82,-1.05 0.61,-0.35 1.21,-0.7 1.82,-1.06 -0.01,-0.19 -0.02,-0.37 -0.03,-0.56 -0.12,0.06 -0.24,0.11 -0.36,0.16 -0.66,-0.09 -0.85,0.34 -1.06,0.09 0.09,-0.28 -0.03,-0.05 0.17,-0.27 0.03,-0.03 0.2,-0.15 0.24,-0.18 -0,-0.02 -0.02,-0.05 -0.03,-0.06 -0.03,-0.15 -0.07,-0.3 -0.1,-0.45 0,-0.02 0.01,-0.05 0.01,-0.07 0.02,-0.55 0.01,0.27 0,-0.15 0,0 -0.03,-0.22 -0.03,-0.24 -0.41,0.24 -0.82,0.48 -1.23,0.71 -0.41,0.24 -0.82,0.47 -1.22,0.71 0,0.15 0.01,0.3 0.01,0.45z"/>
     <path class="fil7" d="M11.15 20.02c0.06,0.44 -0,0.2 -0.04,0.33 -0.09,0.04 -0.17,0.09 -0.26,0.13 -0.01,-0.01 -0.03,-0.06 -0.03,-0.04 -0.01,0.02 -0.03,-0.03 -0.03,-0.04 -0.31,-0.29 -0.16,0.14 -0.24,-0.29 0.39,-0.43 1.07,-0.61 1.53,-0.97 0.01,-0.11 0.02,-0.21 0.03,-0.32 0.31,-0.29 0.31,-0.18 0.27,0.15 0.16,0.04 0.43,-0.06 0.67,-0.05 0.71,0.03 0.52,-0.02 0.55,0.34 -0.85,0.43 -0.21,-0.44 -1.81,0.43 -0.09,0.05 -0.17,0.09 -0.26,0.13 -0.14,0.07 -0.24,0.13 -0.38,0.19zm-0.89 -0.25c-0.01,0.58 -0.01,1.16 -0.02,1.73 0.6,-0.35 1.21,-0.7 1.81,-1.05 0.6,-0.35 1.21,-0.7 1.81,-1.05 -0,-0.43 -0,-0.86 -0,-1.28 -0.23,0.15 -0.46,0.31 -0.69,0.46 0.05,-0.41 -0.11,-0.18 0.22,-0.49 0.01,-0.01 0.43,-0.32 0.46,-0.34 0.01,-0.17 0.01,-0.34 0.02,-0.52 -0.56,0.45 -1.26,0.87 -1.82,1.31 -0.57,0.44 -1.14,0.85 -1.8,1.23z"/>
     <path class="fil7" d="M10.24 13.98c0.25,-0.14 0.8,-0.5 1.32,-0.8 0.52,-0.3 1.01,-0.56 1.15,-0.5 -0.11,0.39 -0.27,0.38 -0.59,0.55 0,0.09 0.01,0.18 0.01,0.27 0.42,-0.18 0.39,-0.06 0.69,-0.11 0.2,-0.03 0.16,-0.06 0.37,-0.16 0.1,-0.05 0.11,-0.07 0.22,-0.1 0.16,-0.05 0.09,-0.03 0.19,-0.01 -0.09,0.29 0.07,0.17 -0.34,0.43 -0.57,0.37 -0.78,0.18 -1.14,0.32 0,0.32 0,0.64 0,0.96 0.58,-0.32 1.17,-0.64 1.75,-0.96 -0,-0.46 -0,-0.91 -0,-1.37 -0.06,0.04 -0.33,0.2 -0.37,0.21 -0.31,0.09 -0.1,0.06 -0.17,-0.13 0.22,-0.32 0.2,-0.24 0.52,-0.43 0.01,-0.21 0.02,-0.42 0.03,-0.63 -0.85,0.53 -0.33,0.25 -0.77,0.75 -0.4,-0.05 0.08,-0.32 -0.6,0.04 -0.77,0.44 -1.54,0.88 -2.31,1.31 0.01,0.11 0.02,0.23 0.03,0.34z"/>
     <path class="fil7" d="M10.24 12.31c0.6,-0.46 0.98,-0.71 1.59,-0.96 0.51,-0.21 1.1,-0.41 1.59,-0.82 -0.25,-0.27 -0.44,-0.17 -0.7,-0.34 -0.16,-0.1 -0.13,-0.27 -0.36,-0.15 -0.58,0.3 0.12,0.03 -0.44,0.56 -0.1,-0.02 -0.09,-0.07 -0.13,-0.08 -0.27,-0.11 -0.81,0.35 -1.49,0.74 -0.02,0.35 -0.03,0.7 -0.05,1.06z"/>
     <path class="fil7" d="M15.06 14.99c0.57,-0.42 1.21,-0.66 1.76,-0.85 0.11,-0.09 0.23,-0.17 0.34,-0.26 0.01,0.08 0.02,0.15 0.02,0.23 0.06,-0.04 0.12,-0.07 0.19,-0.11 -0.07,-0.23 -0.34,-0.79 -0.38,-0.83 -0.33,0.25 -0.67,0.41 -1.01,0.6 -0.81,0.44 -0.68,0.33 -0.76,0.13 0.36,-0.39 1.18,-0.74 1.66,-0.96 -0.06,-0.18 -0.12,-0.35 -0.19,-0.53 -0.1,0.26 0.08,0.18 -0.79,0.67 -0.25,0.14 -0.5,0.29 -0.76,0.44 -0.03,0.49 -0.06,0.98 -0.08,1.47z"/>
     <path class="fil7" d="M15.71 8.95c0.22,-0.01 0.62,-0.25 0.86,-0.5 0.27,-0.09 0.25,-0.13 0.33,0.15 0.29,0.01 1.39,-0.69 1.78,-0.95 -0,-0.21 -0.01,-0.42 -0.01,-0.64 -0.62,0.35 -0.67,0.34 -1.17,0.44 -0.2,0.04 -0.38,0.13 -0.57,0.21 -0.36,0.15 -0.35,0.22 -0.47,-0.01 -0.23,0.29 -0.63,0.97 -0.76,1.29z"/>
     <path class="fil7" d="M10.26 18.3c-0.01,0.16 -0.02,0.31 -0.03,0.47 0.59,-0.34 1.19,-0.69 1.78,-1.03 0.59,-0.34 1.19,-0.69 1.78,-1.03 0.08,-0.15 0.04,-0.04 0.06,-0.24 -0.36,0.05 -0.64,0.05 -1.07,0.26 -0.06,0.13 -0.06,0.12 -0.12,0.23 -0.36,0.16 -0.35,-0.05 -0.61,-0.03 -0.02,0.07 -0.04,0.2 -0.08,0.26 -0.92,0.4 -0.9,0.4 -1.72,1.11z"/>
     <path class="fil7" d="M12.13 15.98c0.02,-0.01 0.04,-0.02 0.06,-0.03 0.02,-0.05 0.05,-0.11 0.07,-0.16 0.26,-0.61 -0.16,0.35 0.06,-0.15 0.04,-0.08 0.04,-0.1 0.11,-0.22 0.08,0.01 0.15,0.02 0.23,0.03 0.05,0.02 0.1,0.03 0.15,0.05 -0,0.27 -0,0.55 -0.01,0.82 0.45,-0.18 0.73,-0.24 1.05,-0.24 0.01,-0.22 0.02,-0.45 0.03,-0.67 -0.03,0 -0.06,-0.01 -0.07,0.01 -0.01,0.02 -0.04,0 -0.05,0 -0.31,0 -0.2,0.07 -0.28,-0.13 0.25,-0.53 0.18,-0.2 0.34,-0.37 0.01,-0.22 0.01,-0.45 0.02,-0.68 -0.57,0.34 -1.13,0.69 -1.7,1.03 -0,0.24 -0.01,0.48 -0.01,0.72z"/>
     <path class="fil7" d="M10.27 12.66c-0.02,0.22 -0.04,0.44 -0.06,0.65 0.56,-0.35 1.12,-0.69 1.68,-1.04 0.56,-0.35 1.12,-0.69 1.68,-1.04 0.01,-0.02 0.03,-0.05 0.04,-0.07 0.08,-0.1 0.16,-0.19 0.25,-0.29 -0.04,-0.06 -0.08,-0.13 -0.11,-0.19 -0.38,0.22 -0.72,0.51 -1.14,0.74 -0.35,0.19 -0.67,0.26 -1.02,0.38 -0.05,0.1 -0.1,0.21 -0.14,0.31 -0.23,0.26 -0.17,0.19 -0.3,0.12 -0.11,-0.18 -0.06,-0.05 -0.15,-0.13 -0.25,0.19 -0.49,0.38 -0.73,0.57z"/>
     <path class="fil7" d="M10.29 15.83c0.28,-0.16 0.56,-0.33 0.84,-0.49 -0.04,0.02 -0.27,0.08 -0.39,0.13 -0.04,0.02 -0.24,0.1 -0.26,0.1 -0.19,0.02 -0.1,0.05 -0.2,-0.09 0.21,-0.46 0.05,-0.19 0.8,-0.55 0.05,-0.05 0.1,-0.11 0.15,-0.16 0.07,-0.01 0.19,-0.03 0.24,-0.03 -0,-0.17 -0.01,-0.34 -0.01,-0.5 -0.31,0.14 -0.23,0.12 -0.33,-0.03 0.12,-0.23 -0.1,0.03 0.18,-0.27 0,-0 0.2,-0.16 0.21,-0.18 0.03,-0.06 0.07,-0.11 0.1,-0.17 -0.46,0.26 -0.92,0.52 -1.39,0.77 0.01,0.49 0.02,0.98 0.04,1.47z"/>
     <path class="fil7" d="M17.58 14.51c-0.04,-0.07 -0.07,-0.14 -0.11,-0.21 -0.11,0.1 -0.21,0.21 -0.32,0.31 -0.19,0.05 -0.21,0.06 -0.33,-0.02 -0.55,0.02 -1.17,0.45 -1.76,0.67 0,0.19 0.01,0.37 0.01,0.56 1.14,-0.64 0.62,-0.3 1.13,-0.51 0.33,-0.13 1.04,-0.57 1.38,-0.8z"/>
     <path class="fil7" d="M15.1 11.71c-0,0.17 -0,0.34 -0.01,0.51 0.1,-0.05 0.21,-0.1 0.31,-0.15 0.12,-0.21 -0.03,-0 0.2,-0.23 0.05,0 0.1,0.01 0.15,0.01 0.15,-0.03 0.34,-0.07 0.55,-0.14 -0.01,-0.07 -0.01,-0.15 -0.02,-0.23 0,-0.22 0,-0.45 0,-0.67 -0.4,0.3 -0.79,0.6 -1.19,0.9z"/>
     <path class="fil7" d="M10.27 17.45c0.18,-0.04 0.36,-0.07 0.54,-0.11 -0.04,-0.33 -0.03,-0.28 0.18,-0.55 0.22,-0.29 0.19,-0.25 0.47,-0.43 0,-0.12 0,-0.24 0,-0.36 -0.15,0.09 -0.31,0.18 -0.46,0.27 -0.05,0.67 0.01,0.11 -0.14,0.43 -0.1,0.04 -0.19,0.08 -0.29,0.12 -0.01,-0.08 -0.02,-0.17 -0.03,-0.25 -0.1,0.02 -0.21,0.04 -0.31,0.06 0.01,0.28 0.02,0.55 0.03,0.83z"/>
     <path class="fil7" d="M15.07 11.32c0.42,-0.32 0.81,-0.68 1.22,-0.87 0,-0.1 0.01,-0.2 0.02,-0.3 -0.42,0.23 -0.85,0.47 -1.27,0.7 0.01,0.16 0.03,0.31 0.04,0.47z"/>
     <path class="fil7" d="M18.29 11.33c0.15,-0.08 0.3,-0.16 0.45,-0.25 -0.01,-0.32 -0.02,-0.63 -0.03,-0.95 -0.13,0.08 -0.26,0.15 -0.39,0.23 -0.01,0.32 -0.01,0.65 -0.02,0.97z"/>
     <path class="fil7" d="M16.92 10.45c0.25,-0.16 0.51,-0.32 0.76,-0.49 -0.03,-0.13 -0.06,-0.27 -0.08,-0.4 -0.07,-0.01 -0.13,-0.01 -0.2,-0.02 -0.32,0.41 -0.34,0.34 -0.48,0.91z"/>
     <path class="fil7" d="M18.33 12.36c0.12,-0.07 0.25,-0.14 0.37,-0.21 0.01,-0.25 0.03,-0.5 0.04,-0.75 -0.15,0.1 -0.3,0.19 -0.45,0.28 0.01,0.23 0.03,0.45 0.04,0.67z"/>
     <path class="fil7" d="M18.33 13.5c0.12,-0.07 0.25,-0.15 0.37,-0.23 0,-0.25 0.01,-0.49 0.01,-0.74 -0.13,0.07 -0.26,0.14 -0.39,0.21 0,0.25 0,0.5 0.01,0.76z"/>
    </g>
    <g>
     <path class="fil8" d="M10.21 13.31c0.02,-0.22 0.04,-0.43 0.06,-0.65 -0.01,-0.12 -0.02,-0.23 -0.03,-0.35 0.02,-0.35 0.03,-0.7 0.05,-1.06 0.68,-0.39 1.23,-0.85 1.49,-0.74 0.04,0.01 0.03,0.06 0.13,0.08 0.56,-0.54 -0.13,-0.26 0.44,-0.56 0.23,-0.12 0.2,0.04 0.36,0.15 0.26,0.17 0.45,0.07 0.7,0.34 0.1,0.09 0.19,0.12 0.32,0.15 0.04,0.06 0.08,0.13 0.11,0.19 -0.08,0.1 -0.17,0.19 -0.25,0.29 -0.01,0.02 -0.03,0.06 -0.04,0.07 -0.56,0.35 -1.12,0.7 -1.68,1.04 -0.56,0.35 -1.12,0.69 -1.68,1.04zm-0.28 0.17c0.09,-0.06 0.18,-0.11 0.28,-0.17 0.11,0.25 0.11,-0.04 0,0.33 0.77,-0.44 1.54,-0.88 2.31,-1.31 0.67,-0.36 0.19,-0.09 0.6,-0.04 0.44,-0.5 -0.09,-0.23 0.77,-0.75 -0.01,0.21 -0.02,0.42 -0.03,0.63 0.01,0.11 0.02,0.23 0.02,0.34 0,0.46 0,0.92 0,1.37 -0.58,0.32 -1.17,0.64 -1.75,0.96 0,0.14 0.01,0.29 0.02,0.43 0.57,-0.34 1.13,-0.69 1.7,-1.03 0.02,-0.1 0.03,-0.21 0.05,-0.31 0.38,-0.22 0.24,-0.05 0.34,-0.37 0,-0.7 0,-1.39 0,-2.09 -0.1,-0.21 0.04,-0.2 -0.35,0.02 0,-0.08 0,-0.17 0,-0.25 0.3,-0.17 0.19,-0.07 0.34,-0.28 0.03,-0.5 -0.05,-0.44 -0.28,-0.54 -0.49,-0.3 -0.98,-0.59 -1.47,-0.89 -0.42,0.24 -0.84,0.48 -1.25,0.72 -0.42,0.24 -0.84,0.48 -1.25,0.72 -0.01,0.84 -0.02,1.68 -0.03,2.52z"/>
     <path class="fil8" d="M14.69 19.07c0.72,-0.41 1.44,-0.83 2.16,-1.24 0.72,-0.41 1.44,-0.83 2.16,-1.25 -0,-0.84 -0,-1.69 -0,-2.53 -0.09,0.04 -0.17,0.09 -0.26,0.13 -0.01,0.46 -0.05,0.49 -0.02,0.95 0.03,0.46 -0.03,0.49 -0.05,0.94 0.01,0.19 0.02,0.37 0.03,0.56 -0.61,0.35 -1.22,0.7 -1.82,1.06 -0.61,0.35 -1.21,0.7 -1.82,1.05 0.01,-0.13 0.01,-0.25 0.02,-0.38 0.01,-0.01 0.03,-0.02 0.03,-0.02 0.06,-0.04 0.11,-0.08 0.17,-0.12 0.21,-0.21 0.04,0.08 0.18,-0.25 -0.17,-0.26 0.01,-0.11 -0.23,-0.04 -0.01,0 -0.04,0.02 -0.05,0.02 -0.01,0 -0.04,0.02 -0.04,0.02 -0.01,0 -0.04,0.04 -0.04,0.02 -0,-0.01 -0.03,0.02 -0.04,0.03 0,-0.3 0.01,-0.59 0.01,-0.89 0,-0.12 0,-0.24 0,-0.36 -0,-0.15 -0.01,-0.3 -0.01,-0.45 0.41,-0.24 0.82,-0.47 1.22,-0.71 0.41,-0.24 0.82,-0.47 1.23,-0.71 0.06,-0.04 0.12,-0.09 0.17,-0.13 -0.04,-0.09 -0.08,-0.17 -0.11,-0.26 -0.34,0.22 -1.06,0.66 -1.38,0.8 -0.51,0.21 0.01,-0.13 -1.13,0.51 -0,-0.19 -0.01,-0.37 -0.01,-0.56 -0,-0.09 -0,-0.17 -0,-0.26 0.03,-0.49 0.06,-0.98 0.08,-1.47 0.25,-0.15 0.5,-0.3 0.76,-0.44 0.87,-0.48 0.7,-0.41 0.79,-0.67 -0.02,-0.03 -0.05,-0.07 -0.07,-0.1 -0.52,0.28 -1.04,0.56 -1.55,0.83 -0.09,-0.34 0,-0.49 0.02,-0.93 0,-0.17 0,-0.34 0.01,-0.51 -0.01,-0.13 -0.02,-0.26 -0.03,-0.39 -0.01,-0.16 -0.03,-0.31 -0.04,-0.47 -0.12,0.06 -0.24,0.13 -0.35,0.19 0.05,0.91 0.03,1.77 0.02,2.6 -0.01,0.83 -0.02,1.65 0.03,2.48 -0.01,0.49 -0.02,0.98 -0.02,1.47 -0.01,0.49 -0.02,0.98 -0.02,1.47z"/>
     <path class="fil8" d="M9.96 18.92c0.11,-0.06 0.22,-0.13 0.33,-0.19 0,0.12 0.01,0.24 0.01,0.37 0.59,-0.34 1.18,-0.69 1.77,-1.03 0.59,-0.34 1.18,-0.69 1.77,-1.04 0.02,-0.1 0.03,-0.21 0.05,-0.32 0.3,-0.17 0.18,-0.06 0.33,-0.29 0.01,-0.82 0.01,-1.64 0.02,-2.45 -0.13,0.09 -0.26,0.17 -0.39,0.26 -0.01,0.23 -0.01,0.45 -0.02,0.68 -0.16,0.17 -0.09,-0.16 -0.34,0.37 0.08,0.2 -0.03,0.14 0.28,0.13 0.01,-0 0.05,0.02 0.05,-0 0.01,-0.02 0.04,-0.01 0.07,-0.01 -0.01,0.22 -0.02,0.45 -0.03,0.67 0,0.13 0,0.27 0,0.4 -0.02,0.2 0.01,0.09 -0.06,0.24 -0.59,0.34 -1.19,0.69 -1.78,1.03 -0.59,0.34 -1.19,0.69 -1.78,1.03 0.01,-0.16 0.02,-0.31 0.03,-0.47 0,-0.28 0,-0.56 0,-0.85 -0.01,-0.28 -0.02,-0.55 -0.03,-0.83 0.03,-0.1 0.06,-0.21 0.08,-0.32 0.38,-0.22 0.76,-0.43 1.13,-0.65 -0,-0.14 -0,-0.27 -0,-0.41 -0.24,0.15 -1.08,0.78 -1.17,0.59 -0.01,-0.49 -0.03,-0.98 -0.04,-1.47 -0,-0.12 -0.01,-0.25 -0.01,-0.37 -0.01,-0.11 -0.02,-0.23 -0.03,-0.34 -0.09,0.05 -0.18,0.1 -0.28,0.15 0,0.86 0.01,1.71 0.01,2.57 0,0.85 0.01,1.71 0.02,2.56z"/>
     <path class="fil8" d="M14.74 10.66c0.12,-0.07 0.24,-0.14 0.36,-0.21 -0.03,0.14 -0.05,0.27 -0.08,0.41 0.42,-0.23 0.85,-0.46 1.27,-0.7 -0.01,0.1 -0.01,0.2 -0.02,0.3 0.08,-0.24 0.01,-0.44 0.15,-0.76 -0.3,0.08 -0.06,0.03 -0.21,-0.05 -0.15,-0.08 0.18,-0.12 -0.18,-0.11 -0.13,0.2 -0.02,0.01 -0.1,0.2 -0.04,0.11 -0.08,0.21 -0.12,0.32 -0.25,0.14 -0.49,0.28 -0.74,0.41 -0.01,-0.18 -0.03,-0.36 -0.04,-0.54 0.38,-0.53 0.2,-0.18 0.57,-0.83 0.03,-0.05 0.06,-0.1 0.09,-0.15 0.13,-0.32 0.53,-1 0.76,-1.29 0.76,-0.46 1.52,-0.93 2.28,-1.39 -0.02,0.25 -0.04,0.5 -0.07,0.75 0,0.21 0,0.43 0.01,0.64 0.02,0.25 0.04,0.49 0.06,0.74 0.09,-0.06 0.17,-0.11 0.26,-0.17 -0.01,-0.82 -0.02,-1.64 -0.03,-2.47 -0.43,0.25 -0.86,0.5 -1.29,0.75 -0.43,0.25 -0.86,0.5 -1.29,0.74 -0.13,0.3 -0.27,0.54 -0.44,0.84 -0.19,0.32 -0.32,0.51 -0.5,0.85 -0.59,1.07 -0.82,1.17 -0.71,1.73z"/>
     <path class="fil8" d="M9.92 21.87c0.71,-0.41 1.43,-0.83 2.14,-1.24 0.71,-0.41 1.43,-0.83 2.14,-1.24 0.01,-0.87 0.01,-1.75 0.02,-2.62 -0.13,0.08 -0.26,0.17 -0.39,0.25 0.01,0.07 0.03,0.14 0.04,0.21 -0.01,0.17 -0.01,0.35 -0.02,0.52 0,0.13 0,0.25 0,0.38 0,0.43 0,0.86 0,1.28 -0.6,0.35 -1.21,0.7 -1.81,1.05 -0.6,0.35 -1.21,0.7 -1.81,1.05 0.01,-0.58 0.01,-1.15 0.02,-1.73 -0.01,-0.4 -0.1,-0.29 0.04,-0.68 -0.11,0.07 -0.23,0.13 -0.34,0.2 -0.01,0.86 -0.03,1.72 -0.04,2.58z"/>
     <path class="fil8" d="M18.71 10.13c0.01,0.32 0.02,0.64 0.03,0.95 0.09,-0.05 0.18,-0.1 0.28,-0.15 0,-0.8 0,-1.59 0,-2.39 -0.09,0.05 -0.18,0.1 -0.26,0.15 -0.04,0.32 -0.08,1.18 -0.05,1.44z"/>
     <path class="fil8" d="M17.16 14.6c0.11,-0.1 0.21,-0.2 0.32,-0.31 -0.03,-0.1 -0.07,-0.19 -0.1,-0.29 -0.06,0.04 -0.12,0.07 -0.19,0.11 -0.07,0.21 -0.08,0.3 -0.03,0.49z"/>
     <path class="fil8" d="M18.29 11.68c0.15,-0.09 0.3,-0.19 0.45,-0.28 -0.12,-0.21 -0.11,0.05 -0.01,-0.31 -0.15,0.08 -0.3,0.16 -0.45,0.25 0.04,0.05 0.08,0.1 0.11,0.14 -0.04,0.07 -0.08,0.14 -0.11,0.21z"/>
     <path class="fil8" d="M16.91 8.6c-0.08,-0.28 -0.06,-0.24 -0.33,-0.15 -0.11,0.51 0.01,0.48 0.33,0.15z"/>
     <path class="fil8" d="M11.08 14.92c0.01,0.42 0.19,0.22 0.4,-0.02 -0,-0.06 -0,-0.12 -0,-0.18 -0.06,-0 -0.17,0.02 -0.24,0.03 -0.05,0.06 -0.1,0.11 -0.15,0.16z"/>
     <path class="fil8" d="M15.41 12.07c0.06,0.35 -0.03,0.27 0.27,0.11 0.02,-0.11 0.05,-0.22 0.08,-0.33 -0.05,-0 -0.1,-0.01 -0.15,-0.01 -0.22,0.23 -0.08,0.02 -0.2,0.23z"/>
     <path class="fil8" d="M15.68 16.81c0.02,0.22 0.1,0.17 0.29,0.03 0,-0.12 0,-0.24 0,-0.36 -0.37,0.21 -0.18,0.03 -0.29,0.33z"/>
     <path class="fil8" d="M11.15 12.22c0.12,0.08 0.07,0.14 0.3,-0.12 0.01,-0.37 0.09,-0.26 -0.14,-0.27 -0.19,0.24 -0.08,-0.02 -0.16,0.38z"/>
     <path class="fil8" d="M12.08 19.14c0.1,-0.05 0.2,-0.11 0.3,-0.17 0.05,-0.33 0.04,-0.44 -0.27,-0.15 -0.01,0.11 -0.02,0.21 -0.03,0.32z"/>
     <path class="fil8" d="M10.86 20.48c0.08,-0.04 0.17,-0.09 0.26,-0.13 0.04,-0.13 0.1,0.11 0.04,-0.33 -0.09,0.03 -0.17,0.06 -0.26,0.1 -0.01,0.12 -0.03,0.24 -0.04,0.36z"/>
     <path class="fil8" d="M18.25 15.49c0.19,-0.23 0.15,0.01 0.14,-0.43 -0.09,0.06 -0.19,0.12 -0.28,0.19 -0.03,0.35 -0.05,0.25 0.14,0.25z"/>
     <path class="fil8" d="M10.55 16.57c0.01,0.08 0.02,0.17 0.03,0.25 0.1,-0.04 0.19,-0.08 0.29,-0.12 -0.02,-0.12 -0.05,-0.24 -0.07,-0.35 -0.08,0.07 -0.17,0.15 -0.25,0.22z"/>
    </g>
    <g>
     <path class="fil9" d="M13.84 14.23c0.13,-0.09 0.26,-0.17 0.39,-0.26 -0.01,0.82 -0.01,1.64 -0.02,2.45 -0.15,0.22 -0.03,0.11 -0.33,0.29 -0.02,0.11 -0.04,0.21 -0.05,0.32 0.13,-0.08 0.26,-0.17 0.39,-0.25 -0.01,0.87 -0.02,1.75 -0.02,2.62 -0.71,0.41 -1.43,0.83 -2.14,1.24 -0.71,0.41 -1.43,0.83 -2.14,1.24 -0.02,0.09 -0.03,0.19 -0.05,0.28 0.81,-0.47 1.62,-0.94 2.44,-1.41 0.81,-0.47 1.62,-0.94 2.44,-1.41 -0.02,-0.09 -0.04,-0.18 -0.06,-0.27 0.01,-0.49 0.02,-0.98 0.02,-1.47 0.01,-0.49 0.02,-0.98 0.02,-1.47 -0.05,-0.83 -0.04,-1.65 -0.03,-2.48 0.01,-0.83 0.02,-1.69 -0.02,-2.6 0.02,-0.13 0.04,-0.26 0.06,-0.39 -0.11,-0.56 0.12,-0.66 0.71,-1.73 0.18,-0.33 0.31,-0.52 0.5,-0.85 0.18,-0.29 0.31,-0.54 0.44,-0.84 -0.19,0.11 -0.37,0.21 -0.55,0.32 -0.23,0.43 -0.46,0.85 -0.69,1.27 -0.23,0.39 -0.46,0.78 -0.69,1.18 -0.2,-0.11 -0.4,-0.23 -0.6,-0.35 -0.27,-0.16 -0.55,-0.32 -0.82,-0.48 -0.19,0.11 -0.38,0.22 -0.56,0.33 0.49,0.3 0.98,0.59 1.47,0.89 0.23,0.1 0.3,0.04 0.28,0.54 -0.15,0.21 -0.04,0.11 -0.34,0.28 0,0.08 0,0.17 0,0.25 0.39,-0.22 0.25,-0.23 0.35,-0.02 0,0.7 0,1.39 0,2.09 -0.1,0.32 0.04,0.15 -0.34,0.37 -0.02,0.1 -0.03,0.21 -0.05,0.31z"/>
     <path class="fil9" d="M17.4 9.54c0.06,0.01 0.13,0.01 0.2,0.02 0.03,0.14 0.06,0.27 0.08,0.4 -0.25,0.16 -0.51,0.32 -0.76,0.49 -0.04,-0.05 -0.05,-0.02 -0.08,-0.21 -0.01,-0.08 -0.01,-0.17 -0.02,-0.27 0.22,-0.25 0.39,-0.39 0.58,-0.42zm-0.96 0.16c-0.14,0.32 -0.07,0.52 -0.15,0.76 -0,0.12 -0,0.24 -0,0.36 -0,0.22 -0,0.45 -0,0.67 0.05,-0.03 0.1,-0.05 0.16,-0.08 0.42,-0.24 0.84,-0.48 1.26,-0.73 0.13,-0.08 0.26,-0.16 0.39,-0.24 0.01,-0.15 0.01,-0.3 0.02,-0.45 0.06,-0.07 0.13,-0.14 0.19,-0.21 0,-0.03 0,-0.05 0.01,-0.08 -0.28,-0.08 -0.2,-0.06 -0.23,-0.56 -0.02,-0.46 -0.06,-0.39 -0.27,-0.55 -0.24,0.09 -0.56,0.24 -0.84,0.43 -0.36,0.24 -0.41,0.33 -0.52,0.67z"/>
    </g>
    <path class="fil10" d="M13.86 9.67c0.2,0.12 0.4,0.23 0.6,0.35 0.23,-0.39 0.46,-0.78 0.69,-1.18 -0.05,-0.06 -0.04,0.01 -0.07,-0.14 -0.01,-0.06 -0.01,-0.17 -0.01,-0.24 -0,-0.14 0.01,-0.3 0.01,-0.45 -0.4,0.23 -0.8,0.46 -1.21,0.7 -0,0.32 -0.01,0.64 -0.01,0.96z"/>
   </g>
   <g>
    <path class="fil11" d="M4.61 10.46c-0.01,0.09 -0.02,0.17 -0.03,0.26 -0,0.12 -0.01,0.23 -0.01,0.35 0,0.77 0,1.54 0,2.3 0,0.13 0,0.26 0,0.38 -0,0.81 -0,1.61 -0,2.41 -0,0.13 -0,0.26 -0,0.38 0,0.83 0,1.65 0,2.48 0,0.11 0,0.22 0,0.33 0.17,0.1 0.34,0.2 0.51,0.29 -0.02,-0.11 -0.03,-0.22 -0.05,-0.33 0,-0.84 0,-1.68 0,-2.52 0.01,-0.13 0.01,-0.25 0.02,-0.38 0.01,-0.79 0.02,-1.58 0.03,-2.37 -0.02,-0.13 -0.04,-0.25 -0.05,-0.38 0.01,-0.23 0.01,-0.46 0.02,-0.69 -0,-0.08 -0,-0.16 -0.01,-0.24 0,-0.18 0.01,-0.36 0.01,-0.54 -0,-0.09 -0.01,-0.17 -0.01,-0.26 -0,-0.22 -0.01,-0.44 -0.01,-0.65 0.02,-0.1 0.03,-0.2 0.05,-0.3 -0.01,-0.1 -0.02,-0.2 -0.03,-0.29 0.06,-0.35 0.18,-0.32 0.38,-0.42 0.18,-0.09 0.28,-0.17 0.45,-0.27 0.31,-0.19 0.63,-0.27 0.87,-0.54 -0.18,-0.1 -0.36,-0.21 -0.54,-0.31 -0.23,0.16 -0.46,0.32 -0.68,0.48 -0.01,0.01 -0.03,0.01 -0.04,0.02 -0.22,0.12 -0.43,0.23 -0.65,0.35 -0.24,-0.31 -0.44,-0.7 -0.62,-1.04 -0.27,-0.48 -0.55,-0.95 -0.82,-1.43 -0.19,-0.11 -0.37,-0.21 -0.55,-0.32 0.19,0.45 0.66,1.2 0.91,1.6 0.19,0.31 0.27,0.49 0.44,0.79 0.23,0.39 0.31,0.39 0.42,0.86z"/>
    <path class="fil7" d="M8.67 20.68c0.1,0.24 0.15,-0.07 0.03,0.34 -0.99,-0.49 -1.27,-0.47 -1.44,-1.09 0.47,0.25 0.94,0.5 1.42,0.75zm-3.24 -3.19c0.27,0.13 0.49,0.27 0.76,0.38 0.08,0.03 0.33,0.12 0.38,0.15 0.32,0.17 0.1,-0.01 0.3,0.24 -0.08,0.42 0.06,0.13 -0.27,0.16 -0.22,0.02 -0.13,0.08 -0.28,0.16 -0.19,-0.07 -0.28,-0.12 -0.3,-0.37 -0.2,-0.12 -0.4,-0.24 -0.59,-0.36 0.02,0.31 0.05,0.61 0.07,0.92 0.01,0 0.03,0.02 0.04,0.02 0.32,0.24 0.12,-0.09 0.28,0.34 -0.14,0.17 0.03,0.08 -0.18,0.05 -0.06,-0.03 -0.11,-0.05 -0.17,-0.07 -0.01,-0 -0.03,-0.02 -0.03,-0.02 -0.01,0.12 -0.01,0.23 -0.02,0.35 0.61,0.35 1.21,0.7 1.82,1.05 0.61,0.35 1.21,0.7 1.82,1.05 -0.01,-0.2 -0.02,-0.4 -0.03,-0.59 -0.12,-0.08 -0.23,-0.16 -0.35,-0.24 -0.66,-0.86 -0.85,-0.64 -1.06,-1.13 0.25,-0.36 0.87,0.65 1.43,1.03 -0.01,-0.23 -0.01,-0.46 -0.02,-0.7 -0.05,-0.03 -0.1,-0.06 -0.14,-0.09 -0.03,0.43 0.01,0.06 -0.11,0.16 -0.21,-0.05 -0.17,-0.02 -0.34,-0.23 -0.25,-0.46 -0.5,-0.44 -0.55,-0.59 -0.01,-0.04 -0.04,-0.05 -0.06,-0.08 0.08,-0.1 -0.17,-0.31 0.6,0.13 0.23,0.13 0.39,0.21 0.63,0.38 0.01,-0.14 0.02,-0.28 0.03,-0.42 -0.62,-0.36 -1.23,-0.71 -1.85,-1.07 -0.61,-0.36 -1.23,-0.71 -1.84,-1.07 0.02,0.16 0.03,0.32 0.05,0.48z"/>
    <path class="fil7" d="M1.51 16.19c0.05,0.45 -0.01,0.24 -0.04,0.29 -0.09,-0.06 -0.18,-0.12 -0.26,-0.18 -0.05,-0.1 -0.09,-0.2 -0.14,-0.3 -0.2,-0.41 -0.1,0.06 -0.17,-0.41 0.38,0.01 1.08,0.62 1.53,0.79 0.01,-0.09 0.02,-0.19 0.04,-0.28 0.32,0.07 0.32,0.18 0.27,0.47 0.16,0.22 0.65,0.64 1,1.13 0.3,0.43 0.17,0.07 0.22,0.56 -0.58,-0.37 -0.52,-0.68 -1.04,-1.14 -0.34,-0.3 -0.91,-0.58 -1.41,-0.93zm-0.89 -1.28c-0.01,0.57 -0.02,1.14 -0.02,1.71 0.6,0.35 1.21,0.7 1.81,1.04 0.6,0.35 1.21,0.7 1.81,1.05 -0,-0.43 -0,-0.86 -0,-1.29 -0.23,-0.11 -0.46,-0.22 -0.68,-0.33 0.05,-0.35 -0.11,-0.3 0.22,-0.23 0.01,0 0.42,0.17 0.46,0.19 0.01,-0.17 0.01,-0.33 0.02,-0.5 -0.56,-0.2 -1.26,-0.59 -1.82,-0.79 -0.55,-0.2 -1.17,-0.49 -1.79,-0.85z"/>
    <path class="fil12" d="M0.56 8.38c0.02,-0.19 0.04,-0.38 0.06,-0.58 -0.01,-0.13 -0.02,-0.25 -0.03,-0.38 0.02,-0.33 0.03,-0.66 0.05,-0.99 0.47,0.26 0.95,0.52 1.42,0.78 0.01,0.08 0.02,0.15 0.04,0.23 0.08,0.07 0.15,0.14 0.23,0.21 0.08,-0.06 0.16,-0.12 0.24,-0.17 0.31,0.05 0.36,0.35 0.64,0.92 0.27,0.31 0.41,0.58 0.55,0.91 0.11,0.22 0.18,0.34 0.32,0.53 0.04,0.11 0.08,0.22 0.12,0.32 -0.15,-0.05 -0.23,-0.07 -0.36,0.1 -0.55,-0.31 -1.1,-0.63 -1.64,-0.94 -0.55,-0.31 -1.09,-0.62 -1.64,-0.94zm-0.28 -0.15c0.09,0.05 0.18,0.1 0.28,0.15 0.1,0.37 0.1,0.08 0,0.34 0.52,0.32 1.03,0.6 1.55,0.91 1.73,1.04 0.84,0.43 1.36,1.09 0.39,0 -0,-0.28 0.8,0.15 -0.02,0.19 -0.04,0.38 -0.06,0.57 0.01,0.12 0.02,0.24 0.02,0.37 -0.01,0.45 -0.03,0.91 -0.04,1.36 0,-0 0,-0 0.01,-0.01 0.12,0.07 0.25,0.13 0.37,0.2 0,-0.77 0,-1.53 0,-2.3 -0.12,-0.07 -0.23,-0.14 -0.34,-0.22 0,-0.11 0,-0.23 0.01,-0.34 0.02,-0.09 0.04,-0.17 0.07,-0.26 0.1,0.07 0.21,0.14 0.31,0.21 -0.11,-0.47 -0.2,-0.47 -0.42,-0.86 -0.17,-0.3 -0.26,-0.48 -0.44,-0.79 -0.25,-0.4 -0.72,-1.15 -0.91,-1.6 -0.42,-0.24 -0.84,-0.48 -1.26,-0.73 -0.42,-0.24 -0.84,-0.48 -1.26,-0.73 -0.01,0.83 -0.02,1.65 -0.03,2.48z"/>
    <path class="fil7" d="M6.33 12.35c0.19,0.11 0.38,0.22 0.56,0.33 0.19,0.01 0.05,-0.07 0.31,0.14 0.07,0.29 -0,0.27 -0,0.26 -0,-0.01 -0.02,0.03 -0.04,0.08 -0.09,-0.08 -0.17,-0.15 -0.26,-0.23 -0.23,0.04 -1.15,-0.38 -1.47,-0.51 0,-0.01 0,-0.03 0,-0.04 -0,0.2 -0,0.39 -0,0.59 -0,-0.02 -0,-0.03 -0,-0.04 0.11,0.08 0.22,0.15 0.34,0.23 0.12,-0.07 -0.03,-0.04 0.2,-0.01 0.05,0.07 0.1,0.13 0.16,0.2 0.43,0.4 0.77,0.73 1.35,1.11 0.71,0.47 1.06,0.5 1.33,0.96 -0.24,0.14 -0.94,-0.38 -1.26,-0.58 -0.41,-0.26 -0.82,-0.53 -1.24,-0.79 0.47,0.58 0.87,0.83 1.3,1.05 0.42,0.22 0.87,0.41 1.45,0.87 0,-0.31 0,-0.62 0,-0.93 -0.43,-0.25 -0.72,-0.34 -0.95,-0.67 0.14,-0.28 0.11,-0.18 0.94,0.29 -0.01,-0.14 -0.01,-0.28 -0.02,-0.42 -0.39,-0.21 -0.95,-0.46 -1.2,-0.82 0.06,-0.07 -0.15,-0.29 0.53,0.1 0.23,0.14 0.47,0.27 0.7,0.41 0.01,-0.09 0.01,-0.17 0.02,-0.26 -0.46,-0.27 -0.92,-0.54 -1.38,-0.8 -0.46,-0.27 -0.92,-0.54 -1.38,-0.8 0,0.1 0.01,0.2 0.01,0.3z"/>
    <path class="fil7" d="M5.42 15.67c0.4,0.17 0.77,0.44 1.15,0.7 0.48,0.35 0.64,0.6 1,0.86 0.08,0.07 0.16,0.13 0.24,0.2 -0.01,0.07 -0.01,0.14 -0.02,0.21 -0,-0.04 -0.01,-0.09 -0.01,-0.14 0.42,0.21 0.84,0.43 1.26,0.64 0,-0.24 0.01,-0.49 0.01,-0.73 -0.7,-0.41 -0.93,-0.61 -1.2,-0.85 -0.27,-0.23 -0.6,-0.5 -1.51,-1.05 -0.92,-0.56 -0.71,-0.55 -0.76,-0.75 0.27,0.02 0.94,0.47 1.64,0.97 0.7,0.5 1.43,1.06 1.82,1.28 0.01,-0.24 0.01,-0.47 0.02,-0.7 0,0 0,0 0,0 -0.6,-0.34 -1.2,-0.69 -1.8,-1.03 -0.6,-0.34 -1.2,-0.69 -1.8,-1.03 -0.01,0.48 -0.03,0.95 -0.04,1.42z"/>
    <path class="fil12" d="M0.31 13.71c0.11,0.06 0.21,0.12 0.32,0.19 0.01,0.13 0.01,0.26 0.02,0.38 0.58,0.34 1.17,0.68 1.76,1.02 0.58,0.34 1.17,0.68 1.76,1.02 0.01,-0.12 0.02,-0.24 0.03,-0.36 0.12,0.07 0.25,0.14 0.37,0.21 0,-0.8 0,-1.61 0,-2.41 -0.11,-0.09 -0.22,-0.17 -0.33,-0.26 -0.22,-0.19 -0.05,-0.11 -0.32,-0.23 -0.24,-0.1 -0.1,-0.09 -0.2,-0 0.17,0.1 0.35,0.2 0.52,0.3 -0,0.23 -0,0.46 -0.01,0.69 -0.23,-0.22 -0.18,-0.13 -0.37,-0.37 0.1,0.36 0.21,0.51 -0.06,0.49 0.14,0.08 0.28,0.16 0.42,0.24 -0.01,0.27 -0.02,0.55 -0.02,0.82 0,0.11 0,0.22 0,0.33 -0.02,0.18 0.02,0.11 -0.06,0.17 -0.59,-0.34 -1.19,-0.68 -1.78,-1.03 -0.59,-0.34 -1.19,-0.69 -1.78,-1.03 0.01,-0.14 0.02,-0.29 0.03,-0.43 0,-0.28 0,-0.56 0,-0.85 -0.01,-0.29 -0.02,-0.58 -0.03,-0.87 0.03,-0.07 0.06,-0.14 0.09,-0.21 0.46,0.25 0.91,0.49 1.37,0.74 0.04,-0.05 0.08,-0.09 0.12,-0.14 0.36,0.2 0.71,0.4 1.07,0.6 -0.44,-0.44 -0.83,-0.41 -1.35,-0.92 -0.24,-0.19 -1.15,-0.47 -1.24,-0.81 -0.01,-0.51 -0.03,-1.01 -0.04,-1.52 -0,-0.13 -0.01,-0.26 -0.01,-0.38 -0.01,-0.13 -0.02,-0.25 -0.03,-0.38 -0.09,-0.06 -0.19,-0.11 -0.28,-0.17 0,0.86 0.01,1.72 0.01,2.58 0,0.86 0.01,1.72 0.01,2.58z"/>
    <path class="fil6" d="M-0 16.71c0.1,0.06 0.2,0.12 0.31,0.18 0,-0.1 0,-0.2 0,-0.31 0,-0.84 0,-1.67 0,-2.51 -0,-0.12 -0,-0.24 -0,-0.36 -0,-0.86 -0.01,-1.72 -0.01,-2.58 -0,-0.86 -0.01,-1.72 -0.01,-2.58 0,-0.11 0,-0.21 0,-0.32 0.01,-0.83 0.02,-1.65 0.03,-2.48 -0.11,-0.06 -0.21,-0.12 -0.32,-0.18 0,1.86 0,3.72 0,5.57 0,1.86 0,3.71 0,5.57z"/>
    <path class="fil6" d="M9.36 13.46c0,0.11 0,0.23 0,0.34 0,0.79 0,1.59 0,2.38 0,0.11 0,0.21 0,0.32 -0.01,0.81 -0.02,1.62 -0.03,2.42 0.01,0.13 0.02,0.25 0.03,0.38 0,0.84 0,1.68 0,2.53 -0.01,0.1 -0.01,0.19 -0.02,0.29 0.1,0.06 0.2,0.12 0.3,0.17 0,-1.86 0,-3.71 0,-5.57 0,-1.86 0,-3.71 0,-5.57 -0.11,-0.06 -0.21,-0.12 -0.32,-0.18 0.01,0.83 0.02,1.67 0.03,2.5z"/>
    <path class="fil12" d="M5.05 16.41c0.36,0.21 0.29,0.06 0.35,0.37 0.34,0.2 0.68,0.39 1.01,0.59 0.23,0.14 0.7,0.32 0.82,0.56 -0.62,-0.36 -1.23,-0.71 -1.85,-1.07 0,0.05 0.01,0.09 0.01,0.14 0.61,0.36 1.23,0.71 1.84,1.07 0.61,0.36 1.23,0.71 1.85,1.07 0,-0.04 0.01,-0.09 0.01,-0.13 -0.42,-0.24 -1.18,-0.55 -1.47,-0.94 0.48,0.27 1.01,0.65 1.47,0.78 0.08,0.02 0.16,0.05 0.24,0.07 0.01,-0.81 0.02,-1.62 0.03,-2.42 -0.11,-0.06 -0.21,-0.12 -0.32,-0.18 -0.01,0.23 -0.01,0.47 -0.02,0.7 0,0.13 0.01,0.27 0.01,0.4 -0,0.24 -0.01,0.49 -0.01,0.73 0.01,0.13 0.01,0.26 0.02,0.39 -0.04,0.24 0.04,0.09 -0.08,0.16 -0.63,-0.36 -1.26,-0.71 -1.88,-1.07 -0.82,-0.47 -0.53,-0.45 -1.66,-1.12 -0,-0.19 -0.01,-0.38 -0.01,-0.57 -0,-0.09 -0,-0.17 -0,-0.26 0.01,-0.47 0.03,-0.95 0.04,-1.42 -0.13,-0.07 -0.25,-0.14 -0.38,-0.21 -0.01,0.79 -0.02,1.58 -0.03,2.37z"/>
    <path class="fil11" d="M1.86 10.3c-0.11,0.25 -0.13,0.35 -0.12,0.84 0.03,0.11 0.05,0.23 0.08,0.34 0.02,0.11 0.04,0.22 0.07,0.33 0.52,0.51 0.91,0.48 1.35,0.92 0.05,0.09 0.1,0.18 0.15,0.27 0.08,0.06 0.17,0.11 0.25,0.17 -0.02,-0.28 -0.07,-0.35 -0.03,-0.57 0.1,-0.58 0.3,-0.74 -0.31,-1.71 -0.07,-0.04 -0.14,-0.07 -0.21,-0.11 0.03,0.13 0.05,0.11 -0.06,0.05 -0,0.16 -0,0.31 -0.01,0.47 0,0.1 0.01,0.29 -0,0.38 -0.03,0.26 0.02,0.16 -0.1,0.21 -0.05,0.17 0.1,0.13 -0.13,0.09 -0.1,-0.06 -0.2,-0.13 -0.29,-0.19 -0.03,-0.22 -0.06,-0.44 -0.09,-0.66 0,-0.12 0,-0.25 0.01,-0.37 -0,-0.09 -0,-0.18 -0,-0.28 -0.33,-0.42 -0.28,-0.2 -0.55,-0.18z"/>
    <path class="fil12" d="M5.04 10.69c0.13,0.08 0.27,0.15 0.4,0.23 0.01,-0.34 0.06,-0.29 0.24,-0.28 0.11,-0.08 0.22,-0.16 0.34,-0.24 0.01,-0.03 0.03,-0.02 0.04,-0.02 0.13,-0.17 0.53,-0.39 0.76,-0.41 0.76,0.41 1.52,0.82 2.27,1.23 -0.02,0.22 -0.05,0.45 -0.07,0.67 0,0.22 0,0.43 0.01,0.65 0,0.12 0,0.25 0,0.37 0.01,0.13 0.03,0.27 0.04,0.4 0.09,0.06 0.19,0.11 0.28,0.17 -0.01,-0.83 -0.02,-1.66 -0.03,-2.5 -0.43,-0.25 -0.86,-0.5 -1.29,-0.75 -0.43,-0.25 -0.86,-0.5 -1.29,-0.75 -0.24,0.27 -0.56,0.35 -0.87,0.54 -0.17,0.1 -0.27,0.18 -0.45,0.27 -0.21,0.1 -0.33,0.07 -0.38,0.42z"/>
    <path class="fil12" d="M5.03 19.31c0.72,0.42 1.44,0.84 2.17,1.25 0.72,0.42 1.44,0.84 2.17,1.25 -0,-0.84 -0,-1.68 -0,-2.53 -0.09,-0.05 -0.19,-0.1 -0.28,-0.15 -0.01,0.14 -0.02,0.28 -0.03,0.42 -0.01,0.1 -0.02,0.21 -0.02,0.31 0.01,0.23 0.01,0.46 0.02,0.7 -0.01,0.12 -0.01,0.23 -0.02,0.35 0.01,0.2 0.02,0.4 0.03,0.59 -0.61,-0.35 -1.21,-0.7 -1.82,-1.05 -0.61,-0.35 -1.21,-0.7 -1.82,-1.05 0.01,-0.12 0.01,-0.23 0.02,-0.35 0.01,-0 0.03,0.02 0.03,0.02 0.06,0.02 0.11,0.05 0.17,0.07 0.21,0.03 0.04,0.13 0.18,-0.05 -0.16,-0.43 0.04,-0.1 -0.28,-0.34 -0.01,-0.01 -0.04,-0.02 -0.04,-0.02 -0.02,-0.31 -0.05,-0.61 -0.07,-0.92 0,-0.12 0,-0.23 0,-0.35 -0.02,-0.16 -0.03,-0.32 -0.05,-0.48 -0.12,-0.07 -0.24,-0.14 -0.36,-0.21 0,0.84 0,1.68 0,2.52z"/>
    <path class="fil7" d="M6.06 10.38c0.22,0.24 0.62,0.47 0.86,0.49 0.28,0.23 0.26,0.16 0.34,0.54 0.26,0.3 1.41,0.92 1.77,1.1 -0,-0.22 -0.01,-0.43 -0.01,-0.65 -0.62,-0.37 -0.66,-0.43 -1.16,-0.9 -0.2,-0.19 -0.38,-0.31 -0.57,-0.45 -0.36,-0.26 -0.35,-0.19 -0.47,-0.55 -0.23,0.03 -0.62,0.25 -0.76,0.41z"/>
    <path class="fil12" d="M0.31 16.58c0.71,0.41 1.42,0.81 2.13,1.22 0.71,0.41 1.42,0.81 2.13,1.22 0,-0.82 0,-1.65 0,-2.48 -0.13,-0.08 -0.27,-0.15 -0.4,-0.23 0.02,0.08 0.04,0.15 0.06,0.23 -0.01,0.17 -0.01,0.33 -0.02,0.5 0,0.12 0,0.25 0,0.37 0,0.43 0,0.86 0,1.29 -0.6,-0.35 -1.21,-0.7 -1.81,-1.05 -0.6,-0.35 -1.21,-0.7 -1.81,-1.04 0.01,-0.57 0.01,-1.14 0.02,-1.71 -0.01,-0.41 -0.1,-0.4 0.04,-0.63 -0.11,-0.07 -0.23,-0.14 -0.34,-0.2 -0,0.84 -0,1.67 -0,2.51z"/>
    <path class="fil13" d="M5.42 13.21c-0.01,0.22 -0.02,0.45 -0.03,0.67 0.01,0.01 0.01,0.02 0.02,0.04 0.61,0.35 1.21,0.7 1.82,1.05 0.61,0.35 1.21,0.7 1.82,1.05 -0,-0.02 -0,-0.05 -0,-0.07 -0.58,-0.46 -1.03,-0.65 -1.45,-0.87 -0.42,-0.22 -0.82,-0.47 -1.3,-1.05 0.41,0.27 0.82,0.53 1.24,0.79 0.32,0.2 1.02,0.72 1.26,0.58 -0.27,-0.46 -0.62,-0.5 -1.33,-0.96 -0.58,-0.38 -0.92,-0.7 -1.35,-1.11 -0.03,0.08 -0.05,0.16 -0.08,0.24 -0.31,-0.2 -0.22,-0 -0.27,-0.43 -0.11,-0.08 -0.22,-0.15 -0.34,-0.23 -0,0.1 -0,0.19 -0,0.29z"/>
    <path class="fil7" d="M0.62 13.44c-0.01,0.14 -0.02,0.29 -0.03,0.43 0.59,0.34 1.19,0.69 1.78,1.03 0.59,0.34 1.19,0.69 1.78,1.03 0.08,-0.06 0.04,0.01 0.06,-0.17 -0.61,-0.63 -1.16,-1.17 -1.91,-1.53 -0.08,-0.06 -0.15,-0.11 -0.22,-0.17 -0.27,-0.13 -0.62,-0.36 -0.86,-0.46 -0.17,-0.07 -0.4,-0.1 -0.59,-0.15z"/>
    <path class="fil7" d="M0.62 7.81c-0.02,0.19 -0.04,0.39 -0.06,0.58 0.55,0.31 1.09,0.63 1.64,0.94 0.55,0.31 1.1,0.63 1.64,0.94 0.13,-0.18 0.21,-0.15 0.36,-0.1 -0.04,-0.11 -0.08,-0.22 -0.12,-0.32 -0.37,-0.22 -0.74,-0.33 -1.13,-0.57 -0.37,-0.22 -0.66,-0.51 -1.02,-0.8 -0.05,0.05 -0.09,0.1 -0.14,0.15 -0.23,-0.01 -0.18,-0.01 -0.3,-0.23 -0.12,-0.36 -0.03,-0.08 -0.14,-0.3 -0.24,-0.09 -0.49,-0.19 -0.73,-0.28z"/>
    <path class="fil7" d="M0.59 7.42c0.61,0.24 1.2,0.64 1.73,1.02 0.53,0.38 1.02,0.73 1.44,0.86 -0.15,-0.33 -0.29,-0.6 -0.55,-0.91 -0.47,-0.34 -1.64,-0.84 -2,-1.16 -0.17,-0.14 -0.07,-0.05 -0.18,-0.21 0.14,-0.26 0.35,-0.08 1.07,0.4 -0.01,-0.08 -0.02,-0.15 -0.04,-0.23 -0.47,-0.26 -0.95,-0.52 -1.42,-0.78 -0.02,0.33 -0.03,0.66 -0.05,0.99z"/>
    <path class="fil13" d="M0.62 14.91c0.63,0.36 1.25,0.65 1.79,0.85 0.56,0.2 1.26,0.59 1.82,0.79 -0.02,-0.08 -0.04,-0.15 -0.06,-0.23 -0.59,-0.34 -1.17,-0.68 -1.76,-1.02 -0.58,-0.34 -1.17,-0.68 -1.76,-1.02 -0.14,0.23 -0.05,0.22 -0.04,0.63z"/>
    <path class="fil14" d="M4.2 8.96c0.18,0.34 0.39,0.72 0.62,1.04 0.22,-0.12 0.43,-0.24 0.65,-0.35 0.01,-0 0.03,-0.01 0.04,-0.02 -0.08,-0.16 -0.04,-0 -0.08,-0.23 -0.01,-0.06 -0.01,-0.19 -0.02,-0.25 -0,-0.13 0.01,-0.3 0.01,-0.44 -0.4,-0.23 -0.81,-0.46 -1.21,-0.7 -0.01,0.32 -0.01,0.63 -0.02,0.95z"/>
    <path class="fil7" d="M5.44 10.92c-0.01,0.07 -0.02,0.14 -0.02,0.2 0.25,0.15 0.51,0.3 0.76,0.45 0.08,-0.13 -0.03,-0.29 0.3,-0.19 0.08,0.18 0.15,0.35 0.23,0.53 0.79,0.46 1.58,0.92 2.37,1.38 -0.01,-0.13 -0.03,-0.26 -0.04,-0.4 -0.38,-0.2 -1.55,-0.82 -1.87,-1.08 -0.27,-0.22 -0.34,-0.46 -0.62,-0.68 -0.27,-0.21 -0.6,-0.39 -0.87,-0.49 -0.18,-0.01 -0.23,-0.06 -0.24,0.28z"/>
    <path class="fil7" d="M0.59 9.1c0.46,0.27 0.91,0.52 1.37,0.78 0.2,0.11 0.41,0.23 0.61,0.35 0.38,0.23 0.39,0.15 0.52,0.54 0.07,0.04 0.14,0.07 0.21,0.11 0.11,0.08 0.22,0.17 0.33,0.25 0.19,0.11 0.39,0.21 0.58,0.32 0.02,-0.19 0.04,-0.38 0.06,-0.57 -0.8,-0.43 -0.41,-0.14 -0.8,-0.15 -0.51,-0.66 0.37,-0.05 -1.36,-1.09 -0.52,-0.31 -1.03,-0.59 -1.55,-0.91 0.01,0.13 0.02,0.25 0.03,0.38z"/>
    <path class="fil5" d="M2.05 12.26c-0.06,0.08 -0.14,0.18 -0.2,0.3 -0.09,0.46 0.09,0.83 0.24,1.19 0.03,0.04 0.06,0.07 0.09,0.11 0.09,0.01 0.18,0.02 0.26,0.03 -0.28,-0.15 -0.3,-0.15 -0.37,-0.49 -0.05,-0.23 -0.04,-0.5 0.06,-0.62 0.12,-0.16 0.63,-0.17 0.51,0.35 0.08,0.05 0.15,0.1 0.23,0.15 0.05,0.05 0.09,0.1 0.14,0.15 0.06,-0.28 -0,-0.13 0.15,-0.11 0.19,0.22 0.19,0.12 0.2,0.57 0,0.04 -0.01,0.25 -0.02,0.28 -0.11,0.37 -0.01,0.14 -0.18,0.16 -0.05,-0.11 -0.1,-0.22 -0.15,-0.33 -0.1,0.05 -0.08,-0.22 -0.08,0.15 0.05,0.08 0.11,0.17 0.16,0.25 0.28,0.11 0.45,-0.01 0.51,-0.32 0.07,-0.36 -0.12,-0.75 -0.22,-1.08 -0.05,-0.09 -0.1,-0.18 -0.15,-0.27 -0.36,-0.2 -0.71,-0.4 -1.07,-0.6 -0.04,0.05 -0.08,0.09 -0.12,0.14z"/>
    <path class="fil14" d="M0.31 16.89c0.71,0.41 1.42,0.82 2.13,1.23 0.71,0.41 1.42,0.82 2.13,1.23 -0,-0.11 -0,-0.22 -0,-0.33 -0.71,-0.41 -1.42,-0.81 -2.13,-1.22 -0.71,-0.41 -1.42,-0.81 -2.13,-1.22 -0,0.1 -0,0.2 -0,0.31z"/>
    <path class="fil14" d="M5.08 19.64c0.71,0.41 1.42,0.82 2.13,1.23 0.71,0.41 1.42,0.82 2.13,1.23 0,-0.1 0.01,-0.19 0.02,-0.29 -0.72,-0.42 -1.45,-0.84 -2.17,-1.25 -0.72,-0.42 -1.44,-0.84 -2.17,-1.25 0.02,0.11 0.03,0.22 0.05,0.33z"/>
    <path class="fil7" d="M9.05 18.53c-0.5,-0.28 -1,-0.56 -1.51,-0.84 -0.4,-0.34 -0.45,-0.57 -0.97,-0.95 -0.38,-0.27 -0.81,-0.54 -1.15,-0.81 0,0.19 0,0.38 0.01,0.57 1.12,0.67 0.83,0.64 1.66,1.12 0.63,0.36 1.25,0.71 1.88,1.07 0.12,-0.08 0.04,0.07 0.08,-0.16z"/>
    <path class="fil13" d="M9.04 17.41c-0,-0.13 -0.01,-0.27 -0.01,-0.4 -0.39,-0.23 -1.12,-0.78 -1.82,-1.28 -0.7,-0.5 -1.37,-0.95 -1.64,-0.97 0.06,0.2 -0.16,0.19 0.76,0.75 0.91,0.55 1.23,0.82 1.51,1.05 0.27,0.23 0.5,0.44 1.2,0.85z"/>
    <path class="fil7" d="M0.64 11c0.28,0.16 0.56,0.32 0.84,0.48 -0.04,-0.02 -0.27,-0.23 -0.39,-0.33 -0.43,-0.33 -0.35,-0.23 -0.46,-0.51 0.21,-0.22 0.05,-0.13 0.79,0.36 0.1,0.04 0.21,0.09 0.31,0.13 -0.01,-0.49 0.01,-0.59 0.12,-0.84 -0.13,-0.19 0.09,0 -0.27,-0.25 -0.06,-0.04 -0.23,-0.13 -0.3,-0.17 -0.23,-0.13 -0.45,-0.26 -0.68,-0.39 0.01,0.51 0.03,1.01 0.04,1.52z"/>
    <path class="fil13" d="M5.68 10.64c0.26,0.1 0.6,0.28 0.87,0.49 0.28,0.22 0.36,0.46 0.62,0.68 0.31,0.26 1.49,0.88 1.87,1.08 -0,-0.12 -0,-0.25 -0,-0.37 -0.36,-0.18 -1.51,-0.79 -1.77,-1.1 -0.32,-0.04 -0.45,-0.14 -0.34,-0.54 -0.24,-0.03 -0.64,-0.25 -0.86,-0.49 -0.02,0.01 -0.04,-0 -0.04,0.02 -0.11,0.08 -0.22,0.16 -0.34,0.24z"/>
    <path class="fil12" d="M5.42 11.12c-0.01,0.04 -0.01,0.08 -0.02,0.12 0.28,0.25 0.45,0.26 0.54,0.46 -0.19,-0.11 -0.38,-0.22 -0.57,-0.33 0,0.04 0,0.08 0,0.13 0.2,0.11 0.39,0.23 0.59,0.34 0.12,0.07 0.23,0.13 0.35,0.2 0.46,0.27 0.92,0.54 1.38,0.8 0.46,0.27 0.92,0.54 1.38,0.8 0,-0.04 0.01,-0.09 0.01,-0.13 -0.11,-0.07 -0.77,-0.42 -1.42,-0.79 -0.64,-0.37 -1.27,-0.76 -1.33,-0.89 0.46,0.27 0.91,0.53 1.37,0.8 0.46,0.26 0.91,0.53 1.37,0.79 -0,-0.05 -0.01,-0.1 -0.01,-0.15 -0.79,-0.46 -1.58,-0.92 -2.37,-1.38 -0.08,-0.18 -0.15,-0.35 -0.23,-0.53 -0.33,-0.1 -0.22,0.06 -0.3,0.19 -0.25,-0.15 -0.51,-0.3 -0.76,-0.45z"/>
    <path class="fil15" d="M3.38 13c0.1,0.32 0.29,0.71 0.22,1.08 -0.06,0.31 -0.23,0.43 -0.51,0.32 0.04,0.12 0.08,0.24 0.11,0.36 0.25,0.09 0.11,0.06 0.25,0.04 0.04,-0.02 0.09,-0.03 0.14,-0.05 0.01,-0 0.03,-0.02 0.04,-0.02 0.05,-0.13 0.03,-0.04 0.09,-0.16 0.08,-0.15 0.04,0 0.07,-0.21 0.26,0.02 0.15,-0.13 0.06,-0.49 -0.05,-0.2 -0.1,-0.41 -0.15,-0.61 0.11,-0.08 -0.03,-0.1 0.2,0 0.27,0.12 0.11,0.03 0.32,0.23 -0.02,-0.11 -0.03,-0.22 -0.05,-0.32 -0,0 -0,0.01 -0.01,0.01 -0.13,-0.08 -0.26,-0.15 -0.39,-0.23 0.14,-0.49 0.17,-0.54 0.13,-1.19 -0.1,-0.19 -0.07,-0.17 -0.16,-0.35 -0.04,-0.07 -0.07,-0.14 -0.11,-0.21 -0.01,-0.03 -0.03,-0.05 -0.04,-0.07 -0.11,-0.08 -0.22,-0.16 -0.33,-0.25 0.61,0.97 0.41,1.13 0.31,1.71 -0.04,0.22 0.01,0.29 0.03,0.57 -0.08,-0.06 -0.17,-0.11 -0.25,-0.17z"/>
    <path class="fil13" d="M1.21 16.3c0.01,-0.11 0.03,-0.21 0.04,-0.32 0.09,0.07 0.18,0.14 0.26,0.21 0.49,0.35 1.06,0.63 1.41,0.93 0.52,0.46 0.46,0.76 1.04,1.14 -0.04,-0.49 0.09,-0.14 -0.22,-0.56 -0.35,-0.48 -0.84,-0.91 -1,-1.13 -0.1,-0.06 -0.2,-0.12 -0.31,-0.19 -0.45,-0.17 -1.15,-0.78 -1.53,-0.79 0.07,0.48 -0.03,0 0.17,0.41 0.05,0.1 0.09,0.2 0.14,0.3z"/>
    <path class="fil13" d="M0.59 7.42c0.01,0.13 0.02,0.26 0.03,0.38 0.24,0.09 0.49,0.19 0.73,0.28 0.11,0.22 0.02,-0.06 0.14,0.3 0.08,-0.32 -0.03,-0.18 0.16,-0.2 0.23,0.28 0.16,0.08 0.14,0.44 0.05,-0.05 0.09,-0.1 0.14,-0.15 0.37,0.29 0.65,0.58 1.02,0.8 0.39,0.23 0.75,0.34 1.13,0.57 -0.14,-0.19 -0.22,-0.3 -0.32,-0.53 -0.42,-0.13 -0.91,-0.49 -1.44,-0.86 -0.53,-0.38 -1.12,-0.78 -1.73,-1.02z"/>
    <path class="fil15" d="M5.45 14.25c0.6,0.34 1.2,0.69 1.8,1.03 0.6,0.34 1.2,0.69 1.8,1.03 0,-0.1 0.01,-0.2 0.01,-0.29 -0.61,-0.35 -1.22,-0.7 -1.82,-1.05 -0.61,-0.35 -1.21,-0.7 -1.82,-1.05 0.01,0.11 0.03,0.22 0.04,0.34z"/>
    <path class="fil7" d="M0.62 12.6c0.29,0.23 0.32,0.35 0.56,0.55 0.23,0.2 0.57,0.36 0.83,0.53 0.03,0.02 0.06,0.05 0.09,0.07 -0.15,-0.36 -0.33,-0.73 -0.24,-1.19 -0.13,-0.08 -0.34,-0.25 -0.45,-0.24 -0.11,0.01 -0.13,0.19 -0.15,0.15 -0.01,-0.02 -0.02,0.04 -0.04,0.06 -0.1,-0.07 -0.2,-0.14 -0.29,-0.21 -0.01,-0.1 -0.02,-0.19 -0.03,-0.29 -0.1,-0.1 -0.21,-0.2 -0.31,-0.3 0.01,0.29 0.02,0.58 0.03,0.87z"/>
    <path class="fil13" d="M9.02 11.87c0.02,-0.22 0.05,-0.45 0.07,-0.67 -0.76,-0.41 -1.52,-0.82 -2.27,-1.23 0.13,0.36 0.11,0.28 0.47,0.55 0.19,0.14 0.37,0.26 0.57,0.45 0.5,0.47 0.54,0.54 1.16,0.9z"/>
    <path class="fil13" d="M0.6 9.48c0.23,0.13 0.45,0.26 0.68,0.39 0.07,0.04 0.24,0.13 0.3,0.17 0.37,0.25 0.15,0.06 0.27,0.25 0.27,-0.03 0.22,-0.25 0.55,0.18 0.2,0.12 0.41,0.23 0.61,0.35 0.11,0.06 0.09,0.08 0.06,-0.05 -0.12,-0.39 -0.13,-0.31 -0.52,-0.54 -0.2,-0.12 -0.41,-0.24 -0.61,-0.35 -0.46,-0.26 -0.9,-0.51 -1.37,-0.78 0,0.13 0.01,0.26 0.01,0.38z"/>
    <path class="fil13" d="M2.1 7.45c-0.72,-0.48 -0.93,-0.66 -1.07,-0.4 0.1,0.15 0.01,0.06 0.18,0.21 0.36,0.32 1.53,0.82 2,1.16 -0.29,-0.57 -0.33,-0.87 -0.64,-0.92 -0.08,0.06 -0.16,0.12 -0.24,0.17 -0.08,-0.07 -0.16,-0.14 -0.23,-0.21z"/>
    <path class="fil13" d="M5.42 15.94c0.33,0.27 0.77,0.53 1.15,0.81 0.52,0.38 0.58,0.61 0.97,0.95 -0.03,-0.08 -0.07,-0.16 -0.1,-0.24 0.05,-0.09 0.06,-0.13 0.12,-0.21 -0.35,-0.26 -0.52,-0.51 -1,-0.86 -0.37,-0.27 -0.75,-0.54 -1.15,-0.7 0,0.09 0,0.18 0,0.26z"/>
    <path class="fil12" d="M9.06 13.91c-0.01,0.1 -0.02,0.2 -0.03,0.31 0.01,0.14 0.01,0.28 0.02,0.42 0,0.13 0.01,0.26 0.01,0.38 -0,0.31 -0,0.62 -0,0.93 0.1,0.08 0.21,0.15 0.31,0.22 0,-0.79 0,-1.59 0,-2.38 -0.1,-0.05 -0.19,-0.09 -0.28,-0.14 -0.01,0.09 -0.01,0.17 -0.02,0.26z"/>
    <path class="fil13" d="M2.25 14.14c0.02,0.03 0.03,0.06 0.05,0.09 0.75,0.36 1.3,0.9 1.91,1.53 -0,-0.11 -0,-0.22 -0,-0.33 -0.21,-0.39 -0.32,-0.36 -0.56,-0.7 -0.02,0.01 -0.03,0.02 -0.04,0.02 -0.05,0.02 -0.09,0.03 -0.14,0.05 -0.14,0.01 0,0.05 -0.25,-0.04 -0.04,-0.12 -0.08,-0.24 -0.11,-0.36 -0.05,-0.08 -0.11,-0.16 -0.16,-0.25 -0.01,-0.37 -0.02,-0.1 0.08,-0.15 0,-0.19 0,-0.38 0.01,-0.57 -0.05,-0.05 -0.1,-0.1 -0.14,-0.15 -0.05,0.43 -0.09,0.13 -0.12,0.51 -0.03,0.31 0,0.3 -0.09,0.48 -0.14,-0.04 -0.28,-0.09 -0.41,-0.14z"/>
    <path class="fil13" d="M0.62 13.44c0.19,0.05 0.42,0.08 0.59,0.15 0.24,0.1 0.59,0.33 0.86,0.46 -0.07,-0.2 -0.06,-0.15 -0.07,-0.38 -0.26,-0.18 -0.6,-0.34 -0.83,-0.53 -0.23,-0.2 -0.27,-0.31 -0.56,-0.55 -0,0.28 -0,0.56 -0,0.85z"/>
    <path class="fil13" d="M5.97 12.25c-0.18,-0.08 -0.37,-0.15 -0.55,-0.23 -0,0.04 -0.01,0.07 -0.01,0.11 0,0.1 0,0.2 0.01,0.3 0.33,0.13 1.25,0.55 1.47,0.51 -0,-0.09 -0,-0.17 -0,-0.26 -0.19,-0.11 -0.38,-0.22 -0.56,-0.33 -0.03,0.04 0.06,0.34 -0.36,-0.1z"/>
    <path class="fil13" d="M5.44 17.48c-0,0.12 -0,0.24 -0,0.35 0.2,0.12 0.4,0.24 0.59,0.36 0.11,-0.18 -0.08,-0.22 0.3,0.01 0,0.12 0,0.24 0,0.36 0.15,-0.08 0.05,-0.15 0.28,-0.16 0.33,-0.03 0.19,0.26 0.27,-0.16 -0.2,-0.25 0.02,-0.07 -0.3,-0.24 -0.05,-0.02 -0.3,-0.12 -0.38,-0.15 -0.27,-0.11 -0.49,-0.25 -0.76,-0.38z"/>
    <path class="fil13" d="M8.67 20.68c0.12,0.08 0.23,0.16 0.35,0.24 0.01,-0.12 0.01,-0.23 0.02,-0.35 -0.56,-0.38 -1.18,-1.39 -1.43,-1.03 0.21,0.5 0.4,0.28 1.06,1.13z"/>
    <path class="fil13" d="M0.59 11.73c0.1,0.1 0.21,0.2 0.31,0.3 0.08,0.02 0.17,0.04 0.25,0.06 0.18,0.42 0.06,0.12 0.07,0.44 0.02,-0.02 0.03,-0.08 0.04,-0.06 0.01,0.04 0.03,-0.14 0.15,-0.15 0.11,-0.01 0.32,0.16 0.45,0.24 0.05,-0.12 0.13,-0.22 0.2,-0.3 -0.46,-0.25 -0.91,-0.49 -1.37,-0.74 -0.03,0.07 -0.06,0.14 -0.09,0.21z"/>
    <path class="fil13" d="M0.64 11c0.1,0.33 1,0.62 1.24,0.81 -0.02,-0.11 -0.05,-0.22 -0.07,-0.33 -0.24,-0.04 -0.38,-0.05 -0.39,-0.48 -0.75,-0.49 -0.58,-0.58 -0.79,-0.36 0.11,0.28 0.03,0.18 0.46,0.51 0.12,0.09 0.36,0.3 0.39,0.33 -0.28,-0.16 -0.56,-0.32 -0.84,-0.48z"/>
    <path class="fil13" d="M8.67 20.68c-0.47,-0.25 -0.94,-0.5 -1.42,-0.75 0.17,0.63 0.46,0.61 1.44,1.09 0.12,-0.42 0.08,-0.1 -0.03,-0.34z"/>
    <path class="fil13" d="M7.78 17.64c-0.08,0.02 -0.16,0.04 -0.24,0.06 0.5,0.28 1,0.56 1.51,0.84 -0.01,-0.13 -0.02,-0.26 -0.02,-0.39 -0.42,-0.21 -0.84,-0.43 -1.26,-0.64 0,0.05 0.01,0.09 0.01,0.14z"/>
    <path class="fil15" d="M2.45 13.89c-0.09,-0.01 -0.18,-0.02 -0.26,-0.03 0.02,0.09 0.04,0.19 0.06,0.28 0.14,0.05 0.28,0.09 0.41,0.14 0.09,-0.19 0.06,-0.18 0.09,-0.48 0.04,-0.39 0.08,-0.09 0.12,-0.51 -0.08,-0.05 -0.15,-0.1 -0.23,-0.15 -0.09,-0 -0.17,-0.01 -0.26,-0.01 0.02,0.26 0.04,0.52 0.06,0.78z"/>
    <path class="fil16" d="M2.45 13.89c-0.02,-0.26 -0.04,-0.52 -0.06,-0.78 0.09,0 0.17,0.01 0.26,0.01 0.12,-0.52 -0.39,-0.51 -0.51,-0.35 -0.1,0.13 -0.11,0.39 -0.06,0.62 0.07,0.35 0.09,0.34 0.37,0.49z"/>
    <path class="fil7" d="M4.19 13.17c0.01,-0.45 0.03,-0.91 0.04,-1.36 -0.2,-0.12 -0.26,-0.22 -0.3,-0.05 0.04,0.65 0.01,0.69 -0.13,1.19 0.13,0.08 0.26,0.15 0.39,0.23z"/>
    <path class="fil0" d="M4.2 8.96c0,-0.32 0.01,-0.63 0.02,-0.95 -0.28,-0.16 -0.56,-0.32 -0.84,-0.48 0.27,0.48 0.55,0.96 0.82,1.43z"/>
    <path class="fil13" d="M8.43 19.72c0.05,-0.37 -0.09,-0.32 0.24,-0.19 0.16,0.32 0.06,0.03 0.1,0.42 0.13,-0.1 0.09,0.27 0.11,-0.16 0.05,0.03 0.1,0.06 0.14,0.09 0.01,-0.1 0.02,-0.21 0.02,-0.31 -0.24,-0.17 -0.4,-0.25 -0.63,-0.38 -0.77,-0.44 -0.52,-0.23 -0.6,-0.13 0.02,0.03 0.05,0.04 0.06,0.08 0.05,0.15 0.3,0.12 0.55,0.59z"/>
    <path class="fil13" d="M9.03 14.22c0.01,-0.1 0.02,-0.2 0.03,-0.31 -0.23,-0.14 -0.47,-0.27 -0.7,-0.41 -0.68,-0.4 -0.48,-0.17 -0.53,-0.1 0.25,0.36 0.81,0.6 1.2,0.82z"/>
    <path class="fil0" d="M5.52 9.63c0.23,-0.16 0.46,-0.32 0.68,-0.48 -0.26,-0.15 -0.52,-0.3 -0.77,-0.45 0,0.14 -0.01,0.31 -0.01,0.44 0,0.06 0,0.19 0.02,0.25 0.04,0.23 0,0.07 0.08,0.23z"/>
    <path class="fil13" d="M9.05 15.02c-0,-0.13 -0.01,-0.26 -0.01,-0.38 -0.82,-0.48 -0.8,-0.57 -0.94,-0.29 0.22,0.34 0.52,0.43 0.95,0.67z"/>
    <path class="fil7" d="M3.64 14.72c0.24,0.34 0.35,0.31 0.56,0.7 0.01,-0.27 0.02,-0.55 0.02,-0.82 -0.14,-0.08 -0.28,-0.16 -0.42,-0.24 -0.03,0.21 0,0.05 -0.07,0.21 -0.06,0.12 -0.04,0.03 -0.09,0.16z"/>
    <path class="fil16" d="M3.02 13.42c-0,0.19 -0,0.38 -0.01,0.57 0.05,0.11 0.1,0.22 0.15,0.33 0.18,-0.02 0.07,0.21 0.18,-0.16 0.01,-0.03 0.02,-0.24 0.02,-0.28 -0.01,-0.44 -0.01,-0.35 -0.2,-0.57 -0.15,-0.01 -0.08,-0.17 -0.15,0.11z"/>
    <path class="fil15" d="M9.09 13.52c0,-0.03 0,-0.06 0,-0.09 -0.46,-0.26 -0.91,-0.53 -1.37,-0.79 -0.46,-0.26 -0.91,-0.53 -1.37,-0.8 0.05,0.13 0.68,0.52 1.33,0.89 0.64,0.37 1.3,0.72 1.42,0.79z"/>
    <path class="fil7" d="M3.86 13.87c0.19,0.25 0.14,0.15 0.37,0.37 0,-0.23 0,-0.46 0.01,-0.69 -0.17,-0.1 -0.35,-0.2 -0.52,-0.3 0.05,0.2 0.1,0.41 0.15,0.61z"/>
    <path class="fil12" d="M5.02 13.67c0.12,0.07 0.25,0.14 0.37,0.21 0.01,-0.22 0.02,-0.45 0.03,-0.67 -0.13,-0.08 -0.25,-0.16 -0.38,-0.24 -0.01,0.23 -0.01,0.46 -0.02,0.69z"/>
    <path class="fil13" d="M2.4 11.12c0.23,0.16 0.37,0.33 0.55,0.5 -0.01,0.09 -0.03,0.17 -0.04,0.26 0.11,-0.05 0.06,0.05 0.1,-0.21 0.01,-0.09 0,-0.28 0,-0.38 -0.23,-0.24 -0.29,-0.33 -0.61,-0.54 -0,0.12 -0,0.25 -0.01,0.37z"/>
    <path class="fil7" d="M2.92 11.89c0.01,-0.09 0.03,-0.17 0.04,-0.26 -0.18,-0.17 -0.32,-0.34 -0.55,-0.5 0.03,0.22 0.06,0.44 0.09,0.66 0.1,0.06 0.19,0.13 0.29,0.19 0.23,0.05 0.08,0.09 0.13,-0.09z"/>
    <path class="fil7" d="M5.43 12.02c0.18,0.08 0.36,0.15 0.55,0.23 -0,-0.13 -0,-0.27 -0,-0.4 -0.2,-0.11 -0.39,-0.23 -0.59,-0.34 0.01,0.17 0.03,0.34 0.04,0.51z"/>
    <path class="fil12" d="M5.03 11.94c0.13,0.06 0.25,0.12 0.38,0.18 0,-0.04 0.01,-0.07 0.01,-0.11 -0.01,-0.17 -0.03,-0.34 -0.04,-0.51 -0.12,-0.07 -0.24,-0.14 -0.36,-0.22 0,0.22 0.01,0.44 0.01,0.65z"/>
    <path class="fil13" d="M4.21 17.42c-0,-0.13 -0,-0.25 -0,-0.37 -0.04,-0.02 -0.45,-0.19 -0.46,-0.19 -0.33,-0.07 -0.17,-0.12 -0.22,0.23 0.23,0.11 0.46,0.22 0.68,0.33z"/>
    <path class="fil12" d="M5.03 12.73c0.13,0.08 0.26,0.15 0.38,0.23 0,-0.2 0,-0.39 0,-0.59 -0.13,-0.06 -0.25,-0.12 -0.38,-0.18 -0,0.18 -0.01,0.36 -0.01,0.54z"/>
    <path class="fil7" d="M2.41 10.75c0.32,0.21 0.38,0.31 0.61,0.54 0,-0.16 0,-0.31 0.01,-0.47 -0.21,-0.12 -0.41,-0.23 -0.61,-0.35 0,0.09 0,0.19 0,0.28z"/>
    <path class="fil15" d="M5.38 16.86c0.61,0.35 1.23,0.71 1.85,1.07 -0.12,-0.24 -0.59,-0.43 -0.82,-0.56 -0.34,-0.2 -0.68,-0.39 -1.01,-0.59 -0,0.03 -0.01,0.05 -0.01,0.08z"/>
    <path class="fil13" d="M3.93 11.75c0.04,-0.17 0.1,-0.06 0.3,0.05 -0.01,-0.12 -0.02,-0.24 -0.02,-0.37 -0.19,-0.1 -0.39,-0.21 -0.58,-0.32 0.01,0.02 0.03,0.04 0.04,0.07 0.04,0.07 0.07,0.14 0.11,0.21 0.09,0.19 0.06,0.16 0.16,0.35z"/>
    <path class="fil0" d="M5.97 12.25c0.41,0.45 0.32,0.14 0.36,0.1 -0,-0.1 -0.01,-0.2 -0.01,-0.3 -0.12,-0.07 -0.23,-0.13 -0.35,-0.2 0,0.13 0,0.27 0,0.4z"/>
    <path class="fil15" d="M9.09 19.01c0,-0.05 0,-0.11 0,-0.16 -0.46,-0.13 -0.99,-0.5 -1.47,-0.78 0.29,0.39 1.05,0.7 1.47,0.94z"/>
    <path class="fil14" d="M4.17 16.32c0.13,0.08 0.27,0.15 0.4,0.23 0,-0.13 0,-0.26 0,-0.38 -0.13,-0.07 -0.25,-0.14 -0.37,-0.21 -0.01,0.12 -0.02,0.24 -0.03,0.36z"/>
    <path class="fil14" d="M5.03 16.79c0.12,0.07 0.24,0.14 0.36,0.21 -0,-0.05 -0.01,-0.09 -0.01,-0.14 0,-0.03 0.01,-0.05 0.01,-0.08 -0.06,-0.31 0.01,-0.16 -0.35,-0.37 -0.01,0.13 -0.01,0.25 -0.02,0.38z"/>
    <path class="fil14" d="M5.08 14.04c0.13,0.07 0.25,0.14 0.38,0.21 -0.01,-0.11 -0.03,-0.22 -0.04,-0.34 -0.01,-0.01 -0.02,-0.02 -0.02,-0.04 -0.12,-0.07 -0.25,-0.14 -0.37,-0.21 0.02,0.12 0.04,0.25 0.05,0.38z"/>
    <path class="fil12" d="M7.26 11.42c-0.08,-0.38 -0.06,-0.32 -0.34,-0.54 -0.11,0.4 0.02,0.51 0.34,0.54z"/>
    <path class="fil14" d="M0.31 14.08c0.11,0.07 0.23,0.14 0.34,0.2 -0.01,-0.13 -0.02,-0.26 -0.02,-0.38 -0.11,-0.06 -0.21,-0.12 -0.32,-0.19 0,0.12 0,0.24 0,0.36z"/>
    <path class="fil14" d="M4.57 11.06c0,-0.12 0.01,-0.23 0.01,-0.35 -0.12,-0.07 -0.23,-0.14 -0.35,-0.21 -0,0.11 -0.01,0.23 -0.01,0.34 0.11,0.07 0.23,0.14 0.34,0.22z"/>
    <path class="fil14" d="M4.24 13.49c0.11,0.09 0.22,0.17 0.33,0.26 -0,-0.13 -0,-0.26 -0,-0.38 -0.12,-0.07 -0.25,-0.13 -0.37,-0.2 0.02,0.11 0.03,0.22 0.05,0.32z"/>
    <path class="fil15" d="M5.07 10.98c0.11,0.08 0.22,0.17 0.33,0.25 0,-0.04 0.01,-0.08 0.02,-0.12 0.01,-0.07 0.02,-0.14 0.02,-0.2 -0.13,-0.08 -0.27,-0.15 -0.4,-0.23 0.01,0.1 0.02,0.2 0.03,0.29z"/>
    <path class="fil12" d="M8.43 19.72c0.17,0.21 0.13,0.17 0.34,0.23 -0.04,-0.39 0.06,-0.09 -0.1,-0.42 -0.32,-0.13 -0.19,-0.18 -0.24,0.19z"/>
    <path class="fil12" d="M1.43 11c0.01,0.43 0.15,0.43 0.39,0.48 -0.03,-0.11 -0.05,-0.23 -0.08,-0.34 -0.11,-0.04 -0.21,-0.09 -0.31,-0.13z"/>
    <path class="fil12" d="M6.89 12.67c0,0.09 0,0.17 0,0.26 0.09,0.08 0.17,0.15 0.26,0.23 0.02,-0.05 0.04,-0.1 0.04,-0.08 0,0.01 0.07,0.03 0,-0.26 -0.26,-0.22 -0.12,-0.14 -0.31,-0.14z"/>
    <path class="fil12" d="M5.75 13.15c0.06,0.43 -0.04,0.23 0.27,0.43 0.03,-0.08 0.05,-0.16 0.08,-0.24 -0.05,-0.06 -0.1,-0.13 -0.16,-0.2 -0.23,-0.03 -0.08,-0.07 -0.2,0.01z"/>
    <path class="fil14" d="M9.05 16.31c-0,-0 -0,-0 -0,-0 0.11,0.06 0.21,0.12 0.32,0.18 0,-0.11 0,-0.21 0,-0.32 -0.1,-0.07 -0.21,-0.15 -0.31,-0.22 0,0.02 0,0.05 0,0.07 -0,0.1 -0.01,0.19 -0.01,0.29z"/>
    <path class="fil12" d="M7.54 17.69c0.08,-0.02 0.16,-0.04 0.24,-0.06 0.01,-0.07 0.01,-0.14 0.02,-0.21 -0.08,-0.06 -0.16,-0.13 -0.24,-0.2 -0.06,0.08 -0.06,0.12 -0.12,0.21 0.03,0.08 0.07,0.16 0.1,0.24z"/>
    <path class="fil14" d="M5.02 11.29c0.12,0.07 0.24,0.15 0.36,0.22 -0,-0.04 -0,-0.08 -0,-0.13 0.01,-0.05 0.02,-0.09 0.02,-0.14 -0.11,-0.09 -0.22,-0.17 -0.33,-0.25 -0.02,0.1 -0.03,0.2 -0.05,0.3z"/>
    <path class="fil12" d="M6.03 18.2c0.02,0.25 0.11,0.3 0.3,0.37 0,-0.12 0,-0.24 0,-0.36 -0.38,-0.23 -0.19,-0.19 -0.3,-0.01z"/>
    <path class="fil12" d="M0.9 12.03c0.01,0.1 0.02,0.19 0.03,0.29 0.1,0.07 0.2,0.14 0.29,0.21 -0.01,-0.32 0.1,-0.01 -0.07,-0.44 -0.08,-0.02 -0.17,-0.04 -0.25,-0.06z"/>
    <path class="fil12" d="M1.5 8.38c0.12,0.22 0.07,0.22 0.3,0.23 0.01,-0.35 0.09,-0.15 -0.14,-0.44 -0.19,0.02 -0.08,-0.11 -0.16,0.2z"/>
    <path class="fil14" d="M0.28 8.55c0.09,0.06 0.18,0.11 0.28,0.17 0.1,-0.26 0.1,0.04 0,-0.34 -0.09,-0.05 -0.19,-0.1 -0.28,-0.15 0,0.11 0,0.21 0,0.32z"/>
    <path class="fil12" d="M2.43 16.37c0.1,0.06 0.2,0.13 0.31,0.19 0.05,-0.29 0.05,-0.4 -0.27,-0.47 -0.01,0.09 -0.02,0.19 -0.04,0.28z"/>
    <path class="fil14" d="M9.09 13.52c-0,0.04 -0.01,0.09 -0.01,0.13 0.09,0.05 0.19,0.09 0.28,0.14 -0,-0.11 -0,-0.22 -0,-0.34 -0.09,-0.06 -0.19,-0.12 -0.28,-0.17 0,0.05 0.01,0.1 0.01,0.15 0,0.03 0,0.06 0,0.09z"/>
    <path class="fil12" d="M1.21 16.3c0.09,0.06 0.18,0.12 0.26,0.18 0.02,-0.05 0.09,0.16 0.04,-0.29 -0.09,-0.07 -0.18,-0.14 -0.26,-0.21 -0.01,0.11 -0.03,0.21 -0.04,0.32z"/>
    <path class="fil15" d="M4.23 10.51c0.12,0.07 0.23,0.14 0.35,0.21 0.01,-0.08 0.02,-0.17 0.03,-0.26 -0.11,-0.07 -0.21,-0.14 -0.31,-0.21 -0.02,0.09 -0.04,0.17 -0.07,0.26z"/>
    <path class="fil15" d="M5.04 12.2c0.13,0.06 0.25,0.12 0.38,0.18 -0,0.02 -0,0.03 -0,0.04 -0,-0.1 -0,-0.2 -0.01,-0.3 -0.13,-0.06 -0.25,-0.12 -0.38,-0.18 0,0.09 0.01,0.17 0.01,0.26z"/>
    <path class="fil15" d="M5.04 12.97c0.13,0.08 0.25,0.16 0.38,0.24 0,-0.09 0,-0.19 0,-0.29 0,0.02 0,0.03 0,0.04 -0.13,-0.08 -0.26,-0.15 -0.38,-0.23 0,0.08 0,0.16 0.01,0.24z"/>
    <path class="fil14" d="M9.09 19.01c-0,0.04 -0.01,0.09 -0.01,0.13 0.09,0.05 0.19,0.1 0.28,0.15 -0.01,-0.13 -0.02,-0.25 -0.03,-0.38 -0.08,-0.02 -0.16,-0.05 -0.24,-0.07 0,0.05 0,0.11 0,0.16z"/>
    <path class="fil12" d="M2.07 14.06c0.07,0.06 0.15,0.12 0.22,0.17 -0.02,-0.03 -0.03,-0.06 -0.05,-0.09 -0.02,-0.09 -0.04,-0.19 -0.06,-0.28 -0.03,-0.04 -0.06,-0.07 -0.09,-0.11 -0.03,-0.02 -0.06,-0.05 -0.09,-0.07 0.01,0.23 0,0.18 0.07,0.38z"/>
    <path class="fil15" d="M5.38 11.38c0.19,0.11 0.38,0.22 0.57,0.33 -0.09,-0.21 -0.26,-0.22 -0.54,-0.46 -0.01,0.05 -0.02,0.09 -0.02,0.14z"/>
   </g>
   <g>
    <path class="fil17" d="M9.47 2.34c0.06,-0.03 0.12,-0.07 0.18,-0.1 0.96,0.56 1.93,1.11 2.89,1.67 0.96,0.56 1.93,1.11 2.89,1.67 -0.76,0.44 -1.52,0.88 -2.27,1.31 -0.76,0.44 -1.51,0.87 -2.27,1.31 -0.67,0.38 -1.16,0.82 -1.48,0.65 -0.32,-0.06 -1.55,-0.75 -2.81,-1.49 -1.26,-0.74 -2.55,-1.53 -2.99,-1.79 0.87,-0.5 1.74,-1.01 2.61,-1.51 0.87,-0.5 1.74,-1.01 2.61,-1.51 0.58,-0.34 0.52,-0.25 0.66,-0.22zm-6.09 4.49c0.68,0.39 1.36,0.79 2.04,1.18 0.68,0.39 1.36,0.79 2.04,1.18 0.58,0.07 1.51,0.01 2.18,0.01 0.54,-0 1.66,0.05 2.18,-0.02 0.67,-0.38 1.34,-0.77 2.01,-1.15 0.67,-0.38 1.34,-0.77 2.01,-1.16 0.09,-0.17 0.09,-2.43 0,-2.6 -0.66,-0.38 -1.32,-0.76 -1.97,-1.14 -0.66,-0.38 -1.32,-0.76 -1.98,-1.14 -0.47,-0.08 -1.73,-0.02 -2.25,-0.02 -0.61,-0.01 -1.77,-0.06 -2.25,0.02 -0.67,0.39 -1.33,0.77 -2,1.16 -0.67,0.39 -1.33,0.77 -2,1.16 -0.12,0.29 -0.03,0.96 -0.03,1.26 0.01,0.34 -0.1,0.94 0.01,1.26z"/>
    <path class="fil18" d="M12.23 5.12c0.24,-0.13 0.49,-0.27 0.73,-0.4 0.31,0.17 0.62,0.35 0.94,0.52 0.19,0.11 0.38,0.22 0.58,0.34 -0.5,0.29 -1.01,0.58 -1.51,0.87 -0.5,-0.29 -1,-0.58 -1.51,-0.87 0.26,-0.15 0.51,-0.3 0.77,-0.45zm-2.16 1.75c-0.13,-0.08 -0.26,-0.16 -0.39,-0.25 0.49,-0.28 0.98,-0.57 1.48,-0.85 0.34,0.19 0.67,0.38 1.01,0.57 0.16,0.09 0.32,0.19 0.48,0.28 -0.5,0.29 -0.99,0.58 -1.49,0.87 -0.36,-0.21 -0.73,-0.42 -1.09,-0.62zm-1.04 1.48c-0.07,-0.04 -0.14,-0.08 -0.21,-0.12 -0.33,-0.19 -0.66,-0.38 -0.99,-0.57 0.5,-0.28 1.01,-0.57 1.51,-0.85 0.5,0.28 1.01,0.57 1.51,0.85 -0.21,0.12 -0.43,0.24 -0.64,0.36 -0.15,0.09 -0.29,0.18 -0.44,0.26 -0.14,0.08 -0.29,0.16 -0.43,0.25 -0.11,-0.06 -0.21,-0.12 -0.32,-0.19zm0.64 -3.82c0.5,-0.29 0.99,-0.58 1.49,-0.87 0.5,0.29 1.01,0.58 1.51,0.87 -0.5,0.29 -1.01,0.57 -1.51,0.86 -0.5,-0.29 -0.99,-0.57 -1.49,-0.86zm-1.83 1.04c0.5,-0.29 1,-0.58 1.51,-0.87 0.5,0.29 1,0.58 1.51,0.87 -0.5,0.29 -1,0.58 -1.51,0.87 -0.5,-0.29 -1,-0.58 -1.51,-0.87zm-1.81 1.04c0.5,-0.29 1.01,-0.57 1.51,-0.86 0.5,0.29 0.99,0.57 1.49,0.86 -0.49,0.29 -0.99,0.58 -1.48,0.87 -0.5,-0.29 -1.01,-0.58 -1.51,-0.87zm2.52 -2.71c-0.23,-0.14 -0.46,-0.28 -0.69,-0.42 0.42,-0.24 0.84,-0.49 1.26,-0.73 0.08,-0.05 0.16,-0.09 0.23,-0.14 0.5,0.29 1.01,0.58 1.51,0.87 -0.5,0.29 -1.01,0.59 -1.51,0.88 -0.27,-0.16 -0.53,-0.31 -0.8,-0.47zm-1.68 1.1c-0.28,-0.16 -0.56,-0.31 -0.84,-0.47 0.5,-0.29 1.01,-0.58 1.51,-0.87 0.5,0.29 0.99,0.58 1.49,0.87 -0.13,0.08 -0.26,0.15 -0.4,0.23 -0.36,0.21 -0.73,0.42 -1.09,0.62 -0.22,-0.13 -0.44,-0.25 -0.66,-0.38zm-2.4 0.42c0.42,-0.24 0.84,-0.48 1.26,-0.72 0.28,0.17 0.57,0.33 0.85,0.5 0.21,0.13 0.42,0.25 0.63,0.37 -0.49,0.29 -0.99,0.58 -1.48,0.87 -0.5,-0.29 -1,-0.58 -1.51,-0.87 0.08,-0.05 0.17,-0.1 0.25,-0.15zm4.92 3.43c0.95,-0.55 1.89,-1.09 2.84,-1.64 0.95,-0.55 1.89,-1.09 2.84,-1.64 -0.93,-0.54 -1.87,-1.08 -2.8,-1.62 -0.93,-0.54 -1.87,-1.08 -2.8,-1.62 -0.14,-0.03 -0.08,-0.12 -0.66,0.22 -0.87,0.5 -1.74,1.01 -2.61,1.51 -0.87,0.5 -1.74,1.01 -2.61,1.51 0.44,0.25 1.73,1.05 2.99,1.79 1.26,0.74 2.49,1.43 2.81,1.49z"/>
    <path class="fil17" d="M9.35 6.44c0.5,-0.29 1,-0.58 1.51,-0.87 -0.5,-0.29 -1,-0.58 -1.51,-0.87 -0.5,0.29 -1,0.58 -1.51,0.87 0.5,0.29 1,0.58 1.51,0.87z"/>
    <path class="fil17" d="M7.54 7.49c0.5,-0.29 0.99,-0.58 1.48,-0.87 -0.49,-0.29 -0.99,-0.57 -1.49,-0.86 -0.5,0.29 -1.01,0.57 -1.51,0.86 0.5,0.29 1.01,0.58 1.51,0.87z"/>
    <path class="fil17" d="M11.16 5.39c0.5,-0.29 1.01,-0.57 1.51,-0.86 -0.5,-0.29 -1,-0.58 -1.51,-0.87 -0.5,0.29 -0.99,0.58 -1.49,0.87 0.5,0.29 0.99,0.57 1.49,0.86z"/>
    <path class="fil19" d="M9.4 8.85c0.32,0.17 0.82,-0.27 1.48,-0.65 0.76,-0.44 1.51,-0.87 2.27,-1.31 0.76,-0.44 1.52,-0.88 2.27,-1.31 -0.96,-0.56 -1.93,-1.11 -2.89,-1.67 -0.96,-0.56 -1.93,-1.11 -2.89,-1.67 -0.06,0.03 -0.12,0.07 -0.18,0.1 0.93,0.54 1.87,1.08 2.8,1.62 0.93,0.54 1.87,1.08 2.8,1.62 -0.95,0.55 -1.89,1.09 -2.84,1.64 -0.95,0.55 -1.89,1.09 -2.84,1.64z"/>
    <path class="fil20" d="M8.82 8.23c0.51,-0.29 0.88,-0.32 1.39,-0.2 0.21,-0.12 0.43,-0.24 0.64,-0.36 -0.5,-0.28 -1.01,-0.57 -1.51,-0.85 -0.5,0.28 -1.01,0.56 -1.51,0.85 0.33,0.19 0.66,0.38 0.99,0.57z"/>
    <path class="fil21" d="M2.77 4.31c0.01,0.12 0.02,0.24 0.02,0.36 0,0.6 0,1.2 0,1.8 -0.01,0.12 -0.02,0.24 -0.02,0.36 0.01,0.12 0.01,0.23 0.02,0.35 0.17,0.1 0.35,0.2 0.52,0.3 0.02,-0.1 0.05,-0.2 0.08,-0.31 -0,-0.11 -0,-0.23 -0,-0.34 -0.11,-0.32 -0.01,-0.92 -0.01,-1.26 -0,-0.3 -0.09,-0.97 0.03,-1.26 -0,-0.11 -0,-0.23 -0.01,-0.34 -0.03,-0.1 -0.06,-0.21 -0.08,-0.31 -0.17,0.1 -0.35,0.2 -0.52,0.3 -0.01,0.12 -0.01,0.23 -0.02,0.35z"/>
    <path class="fil21" d="M6.86 9.53c0.2,0 0.4,0.01 0.6,0.01 0.21,-0 0.42,-0.01 0.62,-0.01 1.04,0 2.08,0 3.12,0 0.21,0 0.42,0.01 0.62,0.01 0.2,-0 0.4,-0.01 0.61,-0.01 0.17,-0.1 0.35,-0.2 0.52,-0.3 -0.18,-0.02 -0.36,-0.03 -0.53,-0.05 -0.2,-0 -0.39,-0 -0.59,-0 -0.52,0.07 -1.64,0.02 -2.18,0.02 -0.67,0 -1.6,0.06 -2.18,-0.01 -0.2,0 -0.4,0 -0.6,-0 -0.18,0.02 -0.36,0.03 -0.53,0.05 0.17,0.1 0.35,0.2 0.52,0.3z"/>
    <path class="fil20" d="M13.9 5.24c-0.06,0.07 -0.12,0.14 -0.18,0.22 -0.72,-0.19 -0.76,0.04 -1.49,-0.33 -0.26,0.15 -0.51,0.3 -0.77,0.45 0.5,0.29 1,0.58 1.51,0.87 0.5,-0.29 1.01,-0.58 1.51,-0.87 -0.19,-0.11 -0.38,-0.22 -0.58,-0.34z"/>
    <path class="fil21" d="M15.84 3.93c0,0.11 0,0.23 0.01,0.34 0.09,0.17 0.09,2.43 0,2.6 0,0.11 0,0.22 0,0.34 0.1,0.18 0.06,0.13 0.08,0.31 0.17,-0.1 0.34,-0.2 0.52,-0.3 0,-0.12 0.01,-0.23 0.01,-0.35 -0.02,-0.08 -0.02,-0.12 -0.03,-0.21 -0,-0.04 -0.01,-0.09 -0.01,-0.13 -0,-0.03 -0,-0.06 -0,-0.1 0,-0.57 0,-1.15 0,-1.72 -0,-0.07 0,-0.06 0.01,-0.14 0,-0.02 0.01,-0.07 0.01,-0.09 0.01,-0.09 0.01,-0.13 0.03,-0.2 -0,-0.12 -0.01,-0.23 -0.01,-0.35 -0.17,-0.1 -0.34,-0.2 -0.52,-0.3 -0.03,0.1 -0.06,0.2 -0.09,0.3z"/>
    <path class="fil21" d="M6.82 1.99c0.19,0 0.39,0 0.58,0 0.48,-0.09 1.64,-0.03 2.25,-0.02 0.52,0.01 1.77,-0.06 2.25,0.02 0.2,0 0.4,0 0.59,0 0.17,-0.02 0.35,-0.03 0.53,-0.05 -0.17,-0.1 -0.34,-0.2 -0.52,-0.3 -0.2,-0 -0.41,-0 -0.61,-0.01 -0.13,0.01 -0.2,0.01 -0.35,0.02 -0.13,0 -0.27,0.01 -0.4,0.01 -0.99,0 -1.99,0 -2.98,0 -0.25,-0.01 -0.5,-0.02 -0.75,-0.03 -0.2,0 -0.41,0 -0.61,0.01 -0.17,0.1 -0.34,0.2 -0.52,0.3 0.31,0.01 0.22,-0.01 0.54,0.05z"/>
    <path class="fil6" d="M7.4 1.64c0.75,-0.43 1.5,-0.86 2.25,-1.29 0.75,0.43 1.49,0.86 2.24,1.29 0.2,0 0.41,0 0.61,0.01 -0.47,-0.27 -0.95,-0.55 -1.43,-0.82 -0.47,-0.27 -0.95,-0.55 -1.43,-0.82 -0.48,0.27 -0.95,0.55 -1.43,0.82 -0.47,0.27 -0.95,0.55 -1.42,0.82 0.2,-0 0.4,-0 0.61,-0.01z"/>
    <path class="fil6" d="M16.46 4.28c0.75,0.43 1.49,0.86 2.24,1.3 -0.75,0.43 -1.49,0.86 -2.24,1.3 -0,0.12 -0.01,0.23 -0.01,0.35 0.47,-0.27 0.95,-0.55 1.43,-0.82 0.47,-0.27 0.95,-0.55 1.43,-0.82 -0.47,-0.27 -0.95,-0.55 -1.42,-0.82 -0.47,-0.27 -0.95,-0.55 -1.43,-0.82 0,0.12 0.01,0.23 0.01,0.35z"/>
    <path class="fil6" d="M2.79 7.18c-0.01,-0.12 -0.01,-0.23 -0.02,-0.35 -0.72,-0.42 -1.44,-0.84 -2.17,-1.26 0.72,-0.42 1.44,-0.84 2.17,-1.26 0.01,-0.12 0.01,-0.23 0.02,-0.35 -0.47,0.27 -0.93,0.54 -1.39,0.8 -0.46,0.27 -0.93,0.54 -1.39,0.8 0.46,0.27 0.93,0.54 1.4,0.81 0.46,0.27 0.93,0.54 1.39,0.8z"/>
    <path class="fil6" d="M9.65 11.14c0.46,-0.27 0.93,-0.54 1.39,-0.8 0.46,-0.27 0.93,-0.54 1.39,-0.81 -0.2,0 -0.4,0.01 -0.61,0.01 -0.73,0.42 -1.46,0.83 -2.18,1.25 -0.73,-0.42 -1.46,-0.83 -2.18,-1.25 -0.2,-0 -0.4,-0.01 -0.6,-0.01 0.46,0.27 0.93,0.54 1.39,0.81 0.46,0.27 0.93,0.54 1.39,0.8z"/>
    <path class="fil17" d="M8.55 3.9c0.27,0.16 0.53,0.31 0.8,0.47 0.5,-0.29 1.01,-0.59 1.51,-0.88 -0.5,-0.29 -1,-0.58 -1.51,-0.87 -0.08,0.05 -0.16,0.09 -0.23,0.14 0.28,0.22 0.11,0.28 0.08,0.52 -0.06,0.36 0.13,0.29 0.25,0.45 -0.27,0.05 -0.6,0.13 -0.89,0.19z"/>
    <path class="fil17" d="M7.17 4.9c-0.6,-0.27 -0.63,-0.46 0.06,-0.76 0.59,0.26 0.37,0.12 0.33,0.39 -0.02,0.15 0.08,0.45 -0.4,0.37zm-0.3 0.1c0.1,-0.03 0.2,-0.06 0.3,-0.1 0.31,0.08 0.4,0.03 0.72,-0.05 0.05,-0.01 0.38,-0.1 0.39,-0.1 0.36,-0.05 0.07,-0.03 0.35,0.01 0.13,-0.08 0.26,-0.15 0.4,-0.23 -0.5,-0.29 -0.99,-0.58 -1.49,-0.87 -0.5,0.29 -1.01,0.58 -1.51,0.87 0.28,0.16 0.56,0.31 0.84,0.47z"/>
    <path class="fil19" d="M16.41 6.43c0.03,-0 0.05,-0.02 0.08,-0.01 0.16,0.04 1.44,-0.76 1.6,-0.85 -0.48,-0.27 -0.96,-0.54 -1.44,-0.81 -0.24,-0.08 -0.07,-0.04 -0.24,-0.05 0,0.57 0,1.15 -0,1.72z"/>
    <path class="fil19" d="M11.14 1.67c-0.02,-0.03 -0.04,-0.06 -0.05,-0.09 -0.18,-0.19 -0.3,-0.22 -0.61,-0.4 -0.28,-0.16 -0.55,-0.32 -0.83,-0.48 -0.5,0.32 -0.99,0.65 -1.49,0.97 0.99,0 1.99,0 2.98,0z"/>
    <path class="fil17" d="M6.58 5.2c-0.24,0.51 -0.89,0.54 -0.84,0.16 0.03,-0.21 0.16,0.01 0.09,-0.28 -0.1,0 -0.1,-0.04 -0.4,0.07 -0.15,0.05 -0.27,0.13 -0.39,0.2 0.42,0.2 0.57,0.16 0.75,0.39 -0.37,0.19 -0.59,0.24 -1.31,-0.31 -0.08,0.05 -0.17,0.1 -0.25,0.15 0.5,0.29 1,0.58 1.51,0.87 0.5,-0.29 0.99,-0.58 1.48,-0.87 -0.21,-0.12 -0.42,-0.25 -0.63,-0.37z"/>
    <path class="fil22" d="M8.16 1.67c0.5,-0.32 0.99,-0.65 1.49,-0.97 0.28,0.16 0.55,0.32 0.83,0.48 0.31,0.17 0.42,0.2 0.61,0.4 0.02,0.03 0.03,0.06 0.05,0.09 0.13,-0 0.27,-0 0.4,-0.01 0.15,-0.01 0.22,-0.01 0.35,-0.02 -0.75,-0.43 -1.5,-0.86 -2.24,-1.29 -0.75,0.43 -1.5,0.86 -2.25,1.29 0.25,0.01 0.5,0.02 0.75,0.03z"/>
    <path class="fil19" d="M2.79 6.47c0,-0.6 0,-1.2 0,-1.8 -0.53,0.3 -1.06,0.6 -1.59,0.9 0.53,0.3 1.06,0.6 1.59,0.9z"/>
    <path class="fil19" d="M11.21 9.53c-1.04,0 -2.08,0 -3.12,0 0.52,0.31 1.04,0.61 1.56,0.92 0.52,-0.31 1.04,-0.61 1.56,-0.92z"/>
    <path class="fil22" d="M16.41 4.71c0.17,0.01 0,-0.03 0.24,0.05 0.48,0.27 0.96,0.54 1.44,0.81 -0.16,0.09 -1.44,0.89 -1.6,0.85 -0.03,-0.01 -0.05,0.01 -0.08,0.01 0,0.03 0,0.06 0,0.1 0,0.05 0.01,0.1 0.01,0.13 0.01,0.09 0.01,0.13 0.03,0.21 0.75,-0.43 1.49,-0.86 2.24,-1.3 -0.75,-0.43 -1.49,-0.86 -2.24,-1.3 -0.02,0.08 -0.02,0.12 -0.03,0.2 -0,0.02 -0.01,0.07 -0.01,0.09 -0.01,0.08 -0.01,0.08 -0.01,0.14z"/>
    <path class="fil20" d="M10.07 6.86c0.59,-0.11 0.54,0.17 1.41,-0.17 -0,-0.21 -0.1,-0.1 -0.18,-0.34 0.37,0.05 0.51,0.09 0.87,-0.01 -0.34,-0.19 -0.67,-0.38 -1.01,-0.57 -0.49,0.28 -0.98,0.57 -1.48,0.85 0.13,0.08 0.26,0.16 0.39,0.25z"/>
    <path class="fil22" d="M11.83 9.54c-0.21,-0 -0.42,-0.01 -0.62,-0.01 -0.52,0.31 -1.04,0.61 -1.56,0.92 -0.52,-0.31 -1.04,-0.61 -1.56,-0.92 -0.21,0 -0.42,0.01 -0.62,0.01 0.73,0.42 1.45,0.83 2.18,1.25 0.73,-0.42 1.46,-0.83 2.18,-1.25z"/>
    <path class="fil22" d="M2.77 6.83c0.01,-0.12 0.01,-0.24 0.02,-0.36 -0.53,-0.3 -1.06,-0.6 -1.59,-0.9 0.53,-0.3 1.06,-0.6 1.59,-0.9 -0.01,-0.12 -0.01,-0.24 -0.02,-0.36 -0.72,0.42 -1.44,0.84 -2.17,1.26 0.72,0.42 1.44,0.84 2.17,1.26z"/>
    <path class="fil23" d="M3.39 7.17c0.58,0.34 1.16,0.67 1.74,1.01 0.58,0.34 1.16,0.67 1.74,1.01 0.2,0 0.4,0 0.6,0 -0.68,-0.39 -1.36,-0.79 -2.04,-1.18 -0.68,-0.39 -1.36,-0.79 -2.04,-1.18 0,0.12 0,0.23 0,0.34z"/>
    <path class="fil23" d="M3.4 4.31c0.67,-0.39 1.33,-0.77 2,-1.16 0.67,-0.39 1.33,-0.77 2,-1.16 -0.19,0 -0.39,0 -0.58,-0 -0.57,0.33 -1.14,0.66 -1.71,0.99 -0.57,0.33 -1.14,0.66 -1.71,0.99 0,0.11 0.01,0.23 0.01,0.34z"/>
    <path class="fil23" d="M12.42 9.18c0.57,-0.33 1.14,-0.66 1.71,-0.99 0.57,-0.33 1.14,-0.66 1.71,-0.99 0,-0.11 -0,-0.22 -0,-0.34 -0.67,0.39 -1.34,0.77 -2.01,1.16 -0.67,0.39 -1.34,0.77 -2.01,1.15 0.2,0 0.4,0 0.59,0z"/>
    <path class="fil23" d="M15.85 4.27c-0,-0.11 -0.01,-0.23 -0.01,-0.34 -0.56,-0.32 -1.12,-0.64 -1.67,-0.97 -0.56,-0.32 -1.12,-0.64 -1.67,-0.97 -0.2,-0 -0.4,-0 -0.59,-0 0.66,0.38 1.32,0.76 1.98,1.14 0.66,0.38 1.32,0.76 1.97,1.14z"/>
    <path class="fil17" d="M12.17 6.34c-0.35,0.1 -0.5,0.07 -0.87,0.01 0.08,0.24 0.17,0.13 0.18,0.34 -0.87,0.34 -0.83,0.07 -1.41,0.17 0.36,0.21 0.73,0.42 1.09,0.62 0.5,-0.29 0.99,-0.58 1.49,-0.87 -0.16,-0.09 -0.32,-0.19 -0.48,-0.28z"/>
    <path class="fil6" d="M3.31 7.48c0.51,0.29 1.01,0.58 1.52,0.88 0.5,0.29 1.01,0.58 1.51,0.87 0.18,-0.01 0.35,-0.03 0.53,-0.05 -0.58,-0.34 -1.16,-0.67 -1.74,-1.01 -0.58,-0.34 -1.16,-0.67 -1.74,-1.01 -0.03,0.1 -0.05,0.21 -0.08,0.31z"/>
    <path class="fil6" d="M3.39 3.97c0.57,-0.33 1.14,-0.66 1.71,-0.99 0.57,-0.33 1.14,-0.66 1.71,-0.99 -0.32,-0.06 -0.23,-0.03 -0.54,-0.05 -0.5,0.29 -0.99,0.57 -1.49,0.86 -0.5,0.29 -0.99,0.57 -1.49,0.86 0.03,0.1 0.06,0.21 0.08,0.31z"/>
    <path class="fil6" d="M12.96 9.23c0.49,-0.29 0.99,-0.57 1.49,-0.86 0.5,-0.29 0.99,-0.57 1.49,-0.86 -0.02,-0.18 0.02,-0.12 -0.08,-0.31 -0.57,0.33 -1.14,0.66 -1.71,0.99 -0.57,0.33 -1.14,0.66 -1.71,0.99 0.18,0.02 0.36,0.03 0.53,0.05z"/>
    <path class="fil6" d="M15.84 3.93c0.03,-0.1 0.06,-0.2 0.09,-0.3 -0.49,-0.28 -0.97,-0.56 -1.46,-0.84 -0.49,-0.28 -0.97,-0.56 -1.46,-0.84 -0.18,0.02 -0.35,0.04 -0.53,0.05 0.56,0.32 1.12,0.64 1.67,0.97 0.56,0.32 1.12,0.64 1.67,0.97z"/>
    <path class="fil20" d="M6.58 5.2c-0.28,-0.16 -0.57,-0.33 -0.85,-0.5 -0.42,0.24 -0.84,0.48 -1.26,0.72 0.72,0.55 0.94,0.51 1.31,0.31 -0.18,-0.23 -0.33,-0.19 -0.75,-0.39 0.13,-0.07 0.24,-0.14 0.39,-0.2 0.3,-0.11 0.3,-0.06 0.4,-0.07 0.07,0.29 -0.06,0.07 -0.09,0.28 -0.05,0.38 0.6,0.35 0.84,-0.16z"/>
    <path class="fil17" d="M8.55 3.9c0.3,-0.06 0.63,-0.13 0.89,-0.19 -0.12,-0.16 -0.31,-0.08 -0.25,-0.45 0.04,-0.24 0.2,-0.29 -0.08,-0.52 -0.42,0.24 -0.84,0.49 -1.26,0.73 0.23,0.14 0.46,0.28 0.69,0.42z"/>
    <path class="fil17" d="M13.9 5.24c-0.31,-0.17 -0.62,-0.35 -0.94,-0.52 -0.24,0.13 -0.49,0.27 -0.73,0.4 0.73,0.38 0.77,0.14 1.49,0.33 0.06,-0.07 0.12,-0.14 0.18,-0.22z"/>
    <path class="fil20" d="M7.17 4.9c0.47,0.09 0.38,-0.22 0.4,-0.37 0.03,-0.27 0.26,-0.13 -0.33,-0.39 -0.69,0.3 -0.66,0.49 -0.06,0.76z"/>
    <path class="fil20" d="M8.63 4.76c-0.28,-0.04 0.01,-0.06 -0.35,-0.01 -0.01,0 -0.34,0.09 -0.39,0.1 -0.32,0.08 -0.41,0.13 -0.72,0.05 -0.1,0.03 -0.2,0.06 -0.3,0.1 0.22,0.13 0.44,0.26 0.66,0.38 0.36,-0.21 0.73,-0.41 1.09,-0.62z"/>
    <path class="fil17" d="M9.03 8.35c0.39,-0.09 0.39,-0.11 0.75,-0.06 0.14,-0.09 0.29,-0.17 0.44,-0.26 -0.52,-0.12 -0.88,-0.09 -1.39,0.2 0.07,0.04 0.14,0.08 0.21,0.12z"/>
    <path class="fil20" d="M9.78 8.29c-0.36,-0.05 -0.36,-0.04 -0.75,0.06 0.11,0.06 0.21,0.13 0.32,0.19 0.14,-0.08 0.29,-0.16 0.43,-0.25z"/>
   </g>
  </g>
 </g>
</svg>
