<?xml version="1.0" encoding="UTF-8"?>
<!DOCTYPE svg PUBLIC "-//W3C//DTD SVG 1.1//EN" "http://www.w3.org/Graphics/SVG/1.1/DTD/svg11.dtd">
<!-- Creator: CorelDRAW 2019 (64-Bit) -->
<svg xmlns="http://www.w3.org/2000/svg" xml:space="preserve" width="8.4141mm" height="10.9214mm" version="1.1" style="shape-rendering:geometricPrecision; text-rendering:geometricPrecision; image-rendering:optimizeQuality; fill-rule:evenodd; clip-rule:evenodd"
viewBox="0 0 41.7 54.13"
 xmlns:xlink="http://www.w3.org/1999/xlink">
 <defs>
  <style type="text/css">
   <![CDATA[
    .fil0 {fill:#2B2A29}
   ]]>
  </style>
 </defs>
 <g id="Слой_x0020_1">
  <metadata id="CorelCorpID_0Corel-Layer"/>
  <g>
   <path class="fil0" d="M16.17 0l1.45 0c1.01,0.4 1.98,0.94 2.86,1.56 0.28,1.19 0.77,2.45 0.35,3.67 -0.36,0.34 -0.86,0.47 -1.29,0.68 0.05,0.47 0.13,0.93 0.2,1.4 0.83,-0.07 1.63,-0.29 2.44,-0.44 0.11,-0.48 0.14,-1.01 0.45,-1.42 0.07,0.33 0.12,0.66 0.16,0.99 0.43,0.25 0.86,0.61 1.4,0.55 3.4,0 6.81,-0.01 10.21,0 0.37,-0.03 0.55,0.37 0.81,0.57 0.01,-0.72 0,-1.45 0.04,-2.17 0.1,0 0.3,0.01 0.4,0.01 0.02,0.64 -0.05,1.29 0.13,1.91 0.19,0.04 0.38,0.06 0.58,0.08 0.01,0.25 0.02,0.5 0.03,0.74 1.05,0.03 2.1,0.1 3.14,-0.08 0.7,-0.11 1.4,-0.03 2.11,-0.03 0.01,0.25 0.03,0.49 0.08,0.74 -0.87,0.06 -1.75,0.12 -2.61,-0.02 -1.38,-0.17 -2.77,0.12 -4.15,0.05 -0.05,0.19 -0.09,0.38 -0.13,0.56 -1.33,0.01 -2.66,-0.01 -3.98,-0 -0.44,-0.01 -0.93,0.08 -1.2,0.46 -0.39,0.49 -0.86,0.9 -1.24,1.4 -0.12,0.92 0.24,1.8 0.44,2.68 -0.31,0.11 -0.63,0.22 -0.94,0.34 -0.32,0.99 -0.19,2.26 -1.1,2.95 -0.5,0.38 -0.94,0.84 -1.52,1.11 -0.42,0.19 -0.86,-0.01 -1.28,-0.07 -1.56,-0.24 -2.85,-1.2 -4.25,-1.86 -0.09,0.38 -0.19,0.75 -0.29,1.12 0.42,0.27 0.97,0.51 1.11,1.05 0.21,0.79 0.04,1.61 0,2.42 -0.07,0.74 -0.09,1.48 -0.16,2.21 -0.07,0.72 -0.48,1.33 -0.91,1.88 -0.4,-0.1 -0.79,-0.21 -1.18,-0.32 -0.42,0.91 -0.07,2.04 0.63,2.71 1.81,1.97 2.79,4.51 3.71,6.98 0.16,0.52 0.69,0.83 0.78,1.38 0.15,0.58 0.37,1.17 0.32,1.78 -0.07,1.07 -0.15,2.15 -0.26,3.22 -0.07,0.79 -0.37,1.57 -0.19,2.36 0.13,0.65 0.21,1.33 -0.03,1.96 -0.32,0.8 -0.32,1.67 -0.32,2.51 0.01,0.56 0.05,1.17 0.43,1.61 0.46,0.56 0.9,1.15 1.45,1.63 0.68,0.44 1.61,0.45 2.16,1.09 0.17,0.35 0.05,0.76 0.05,1.13 -1.76,0.27 -3.59,0.29 -5.3,-0.26 -0.96,-0.31 -2.02,0.22 -2.94,-0.3 0.05,-1.1 0.32,-2.17 0.7,-3.2 0.16,-0.77 -0.01,-1.56 -0.03,-2.34 -0.01,-0.67 -0.36,-1.26 -0.49,-1.91 -0.38,-1.38 -0.49,-2.82 -0.55,-4.25 -0.08,-0.7 0.51,-1.23 0.53,-1.92 0.12,-0.61 0.03,-1.23 -0.34,-1.73 -0.65,-0.02 -1.53,0.15 -1.9,-0.55 -0.76,-1.13 -1.51,-2.28 -2.27,-3.41 -0.27,-0.49 -0.9,-0.37 -1.34,-0.59 -0.39,-0.36 -0.58,-0.87 -0.83,-1.33 -0.14,0.53 -0.34,1.05 -0.73,1.45 -0.61,0.62 -0.83,1.47 -1.15,2.25 -0.22,0.56 -0.42,1.14 -0.51,1.75 -0.09,0.45 -0.11,0.99 -0.51,1.29 -0.6,0.45 -0.81,1.22 -1.36,1.72 -0.41,0.39 -0.66,0.92 -0.79,1.46 -0.04,0.49 0.1,0.98 -0.03,1.46 -0.22,0.88 -0.71,1.66 -1.07,2.49 -0.25,0.58 -0.38,1.21 -0.66,1.78 -0.18,0.4 -0.66,0.53 -0.92,0.87 -0.75,1.29 -0.99,2.85 -0.72,4.32 0.22,0.58 0.37,1.19 0.24,1.82 -0.46,0.06 -0.92,0.14 -1.38,0.18l-1.43 0c-0.37,-0.08 -0.76,-0.14 -1.1,-0.31 -0.25,-0.8 -0.21,-1.67 0.02,-2.47 0.34,-1.2 0.64,-2.41 0.94,-3.61 0.2,-0.59 -0.28,-1.12 -0.24,-1.71 -0.05,-0.87 0.49,-1.59 0.88,-2.32 0.37,-0.65 0.24,-1.43 0.49,-2.11 0.58,-1.48 1.66,-2.69 2.31,-4.13 0.2,-0.59 -0.02,-1.21 0.02,-1.82 0.05,-1.15 0.28,-2.28 0.47,-3.41 0.07,-0.44 0.21,-0.9 0.04,-1.33 -0.18,-0.51 -0.31,-1.06 -0.23,-1.6 0.07,-0.5 -0.23,-1 -0.04,-1.49 0.1,-0.42 0.48,-0.65 0.79,-0.91 0.06,-1.71 -0.57,-3.39 -0.31,-5.1 0.3,-0.37 0.78,-0.5 1.19,-0.69 -0.61,-0.13 -1.22,-0.25 -1.83,-0.39 -0.02,-0.69 0.07,-1.37 0.21,-2.05 0.22,-1.05 0.1,-2.14 0.27,-3.2 0.03,-0.27 0.32,-0.36 0.55,-0.37 0.55,-0.04 1.11,-0.07 1.66,-0.2 -0.16,-1.34 -0.3,-2.7 0,-4.03 0.29,-1.57 1,-3.16 2.31,-4.13 0.91,-0.61 2.22,-0.97 3.17,-0.24 0.08,-0.05 0.23,-0.16 0.31,-0.21 -0.55,-1.49 -0.43,-3.2 0.45,-4.54 0.57,-0.91 1.56,-1.43 2.55,-1.75l0 0zm8.9 10.22c-0.05,0.39 -0.17,0.77 -0.54,0.96 0.5,-0.03 1,-0.03 1.49,-0.14 -0.01,-0.28 -0.02,-0.57 -0.03,-0.85 -0.31,0.01 -0.61,0.02 -0.91,0.03l0 0zm-1.03 1.1c-0.04,0.06 -0.13,0.16 -0.17,0.22 0.08,0.53 0.47,0.96 0.73,1.42 0.38,-0.54 0.77,-1.08 1.13,-1.63 -0.57,-0.03 -1.13,-0.06 -1.7,-0z"/>
  </g>
 </g>
</svg>
