<?xml version="1.0" encoding="UTF-8"?>
<!DOCTYPE svg PUBLIC "-//W3C//DTD SVG 1.1//EN" "http://www.w3.org/Graphics/SVG/1.1/DTD/svg11.dtd">
<!-- Creator: CorelDRAW 2019 (64-Bit) -->
<svg xmlns="http://www.w3.org/2000/svg" xml:space="preserve" width="59.0421mm" height="14.864mm" version="1.1" style="shape-rendering:geometricPrecision; text-rendering:geometricPrecision; image-rendering:optimizeQuality; fill-rule:evenodd; clip-rule:evenodd"
viewBox="0 0 3182.4 801.18"
 xmlns:xlink="http://www.w3.org/1999/xlink">
 <defs>
  <style type="text/css">
   <![CDATA[
    .fil0 {fill:#FEFEFE;fill-rule:nonzero}
   ]]>
  </style>
 </defs>
 <g id="Слой_x0020_1">
  <metadata id="CorelCorpID_0Corel-Layer"/>
  <g id="_1312238358112">
   <path class="fil0" d="M258.67 360.57c15.67,0 28.87,-2.74 39.58,-8.23 10.71,-5.49 19.72,-11.89 27.04,-19.2 7.84,-7.84 14.37,-16.98 19.59,-27.44l156.77 15.67c-7.84,35.01 -21.95,66.37 -42.33,94.06 -8.88,12.02 -19.33,23.65 -31.35,34.88 -12.02,11.23 -26.13,21.16 -42.33,29.79 -16.2,8.62 -34.75,15.67 -55.65,21.16 -20.9,5.49 -44.68,8.23 -71.33,8.23 -36.06,0 -69.89,-6.66 -101.51,-19.99 -31.61,-13.32 -59.05,-31.48 -82.3,-54.48 -23.26,-22.99 -41.55,-49.91 -54.87,-80.74 -13.32,-30.83 -19.99,-64.01 -19.99,-99.55 0,-35.01 6.66,-68.06 19.99,-99.16 13.32,-31.09 31.61,-58.13 54.87,-81.13 23.25,-22.99 50.69,-41.15 82.3,-54.48 31.62,-13.32 65.45,-19.99 101.51,-19.99 26.65,0 50.42,2.74 71.33,8.23 20.9,5.49 39.46,12.54 55.65,21.16 16.2,8.62 30.31,18.68 42.33,30.18 12.02,11.5 22.47,22.99 31.35,34.49 20.38,27.69 34.49,59.05 42.33,94.06l-156.77 15.68c-5.22,-9.93 -11.76,-19.08 -19.59,-27.44 -7.32,-6.79 -16.33,-13.07 -27.04,-18.81 -10.72,-5.75 -23.91,-8.62 -39.58,-8.62 -13.59,0 -26.52,2.74 -38.8,8.23 -12.28,5.49 -23.12,13.07 -32.53,22.73 -9.41,9.67 -16.85,20.9 -22.34,33.71 -5.48,12.8 -8.23,26.52 -8.23,41.15 0,14.63 2.74,28.35 8.23,41.15 5.49,12.8 12.94,24.04 22.34,33.7 9.41,9.67 20.25,17.25 32.53,22.74 12.28,5.49 25.21,8.23 38.8,8.23z"/>
   <path id="1" class="fil0" d="M540.85 148.93c0,-19.33 4.31,-38.02 12.93,-56.05 8.62,-18.02 21.03,-33.96 37.23,-47.81 16.2,-13.85 35.92,-24.83 59.18,-32.92 23.26,-8.1 49.51,-12.15 78.78,-12.15 32.4,0 61.27,4.31 86.62,12.93 25.34,8.62 46.64,20.38 63.88,35.27 17.24,14.89 30.44,32.4 39.58,52.52 9.14,20.12 13.72,41.41 13.72,63.88l-152.85 15.67c0,-12.02 -3.4,-21.55 -10.19,-28.61 -6.8,-7.06 -15.16,-10.58 -25.09,-10.58 -7.84,0 -14.37,1.83 -19.6,5.49 -5.22,3.66 -7.84,8.36 -7.84,14.11 0,7.84 5.49,13.98 16.46,18.42 10.97,4.44 24.82,9.01 41.54,13.72 16.73,4.7 34.62,10.32 53.7,16.85 19.08,6.53 36.97,15.54 53.7,27.04 16.72,11.5 30.57,26.52 41.54,45.07 10.97,18.55 16.46,42.19 16.46,70.93 0,20.38 -4.57,40.11 -13.72,59.18 -9.15,19.08 -22.08,35.8 -38.8,50.17 -16.73,14.37 -37.23,25.87 -61.53,34.49 -24.3,8.62 -51.6,12.93 -81.91,12.93 -33.45,0 -63.23,-4.57 -89.36,-13.72 -26.13,-9.14 -48.21,-21.55 -66.24,-37.23 -18.02,-15.68 -31.88,-33.97 -41.54,-54.87 -9.67,-20.9 -14.5,-43.11 -14.5,-66.63l152.85 -15.68c0,13.59 4.18,24.83 12.54,33.71 8.36,8.88 18.55,13.32 30.57,13.32 12.02,0 20.9,-2.61 26.65,-7.84 5.75,-5.23 8.62,-11.76 8.62,-19.6 0,-7.84 -5.49,-13.98 -16.46,-18.42 -10.97,-4.44 -24.82,-9.02 -41.55,-13.72 -16.72,-4.71 -34.62,-10.32 -53.69,-16.85 -19.08,-6.53 -36.98,-15.54 -53.7,-27.04 -16.72,-11.5 -30.57,-26.52 -41.54,-45.07 -10.97,-18.55 -16.46,-42.2 -16.46,-70.94z"/>
   <polygon id="2" class="fil0" points="1246.31,501.66 1089.54,501.66 1089.54,156.76 960.21,156.76 960.21,7.84 1375.64,7.84 1375.64,156.76 1246.31,156.76 "/>
   <path id="3" class="fil0" d="M1779.32 352.73l0 148.93 -368.4 0 0 -101.9 160.69 -168.53c7.31,-6.8 13.85,-13.59 19.59,-20.38 4.71,-5.75 9.15,-12.15 13.32,-19.2 4.18,-7.06 6.27,-13.46 6.27,-19.2 0,-7.84 -2.61,-13.72 -7.84,-17.64 -5.23,-3.92 -11.76,-5.88 -19.6,-5.88 -7.84,0 -15.02,3.53 -21.55,10.58 -6.53,7.06 -9.8,16.6 -9.8,28.61l-152.85 -15.67c1.05,-24.56 6.27,-47.29 15.68,-68.19 9.41,-20.9 22.47,-39.06 39.19,-54.48 16.72,-15.42 36.71,-27.56 59.96,-36.45 23.25,-8.88 48.99,-13.32 77.21,-13.32 29.26,0 55.52,4.18 78.78,12.54 23.26,8.37 42.98,19.6 59.18,33.71 16.2,14.11 28.61,30.7 37.23,49.77 8.62,19.08 12.93,39.33 12.93,60.75 0,21.95 -4.71,42.33 -14.11,61.14 -9.41,18.81 -19.86,35.27 -31.35,49.38 -13.58,16.73 -28.48,32.14 -44.68,46.25l-39.19 39.19 129.33 0z"/>
   <path id="4" class="fil0" d="M2116.38 254.74c0,-37.1 -6.67,-64.01 -19.99,-80.73 -13.32,-16.73 -28.87,-25.09 -46.63,-25.09 -17.77,0 -33.32,8.36 -46.64,25.09 -13.32,16.72 -19.99,43.63 -19.99,80.73 0,37.11 6.66,64.02 19.99,80.74 13.32,16.72 28.87,25.09 46.64,25.09 17.77,0 33.31,-8.37 46.63,-25.09 13.32,-16.72 19.99,-43.63 19.99,-80.74zm156.76 0c0,39.2 -5.75,74.47 -17.24,105.82 -11.5,31.35 -27.31,58.13 -47.42,80.34 -20.12,22.21 -43.77,39.19 -70.94,50.95 -27.17,11.76 -56.43,17.64 -87.79,17.64 -31.35,0 -60.62,-5.88 -87.79,-17.64 -27.17,-11.76 -50.82,-28.74 -70.94,-50.95 -20.12,-22.21 -35.92,-48.99 -47.42,-80.34 -11.5,-31.35 -17.24,-66.63 -17.24,-105.82 0,-39.19 5.75,-74.46 17.24,-105.82 11.5,-31.35 27.31,-58.13 47.42,-80.34 20.12,-22.21 43.77,-39.19 70.94,-50.95 27.17,-11.76 56.44,-17.64 87.79,-17.64 31.35,0 60.62,5.88 87.79,17.64 27.17,11.76 50.82,28.74 70.94,50.95 20.12,22.21 35.92,48.99 47.42,80.34 11.5,31.35 17.24,66.63 17.24,105.82z"/>
   <path id="5" class="fil0" d="M2688.58 352.73l0 148.93 -368.4 0 0 -101.9 160.69 -168.53c7.31,-6.8 13.85,-13.59 19.59,-20.38 4.71,-5.75 9.15,-12.15 13.32,-19.2 4.18,-7.06 6.27,-13.46 6.27,-19.2 0,-7.84 -2.61,-13.72 -7.84,-17.64 -5.23,-3.92 -11.76,-5.88 -19.6,-5.88 -7.84,0 -15.02,3.53 -21.55,10.58 -6.53,7.06 -9.8,16.6 -9.8,28.61l-152.85 -15.67c1.05,-24.56 6.27,-47.29 15.68,-68.19 9.41,-20.9 22.47,-39.06 39.19,-54.48 16.72,-15.42 36.71,-27.56 59.96,-36.45 23.25,-8.88 48.99,-13.32 77.21,-13.32 29.26,0 55.52,4.18 78.78,12.54 23.26,8.37 42.98,19.6 59.18,33.71 16.2,14.11 28.61,30.7 37.23,49.77 8.62,19.08 12.93,39.33 12.93,60.75 0,21.95 -4.71,42.33 -14.11,61.14 -9.41,18.81 -19.86,35.27 -31.35,49.38 -13.58,16.73 -28.48,32.14 -44.68,46.25l-39.19 39.19 129.33 0z"/>
   <path id="6" class="fil0" d="M3025.64 254.74c0,-37.1 -6.67,-64.01 -19.99,-80.73 -13.32,-16.73 -28.87,-25.09 -46.63,-25.09 -17.77,0 -33.32,8.36 -46.64,25.09 -13.32,16.72 -19.99,43.63 -19.99,80.73 0,37.11 6.66,64.02 19.99,80.74 13.32,16.72 28.87,25.09 46.64,25.09 17.77,0 33.31,-8.37 46.63,-25.09 13.32,-16.72 19.99,-43.63 19.99,-80.74zm156.76 0c0,39.2 -5.75,74.47 -17.24,105.82 -11.5,31.35 -27.31,58.13 -47.42,80.34 -20.12,22.21 -43.77,39.19 -70.94,50.95 -27.17,11.76 -56.43,17.64 -87.79,17.64 -31.35,0 -60.62,-5.88 -87.79,-17.64 -27.17,-11.76 -50.82,-28.74 -70.94,-50.95 -20.12,-22.21 -35.92,-48.99 -47.42,-80.34 -11.5,-31.35 -17.24,-66.63 -17.24,-105.82 0,-39.19 5.75,-74.46 17.24,-105.82 11.5,-31.35 27.31,-58.13 47.42,-80.34 20.12,-22.21 43.77,-39.19 70.94,-50.95 27.17,-11.76 56.44,-17.64 87.79,-17.64 31.35,0 60.62,5.88 87.79,17.64 27.17,11.76 50.82,28.74 70.94,50.95 20.12,22.21 35.92,48.99 47.42,80.34 11.5,31.35 17.24,66.63 17.24,105.82z"/>
   <path class="fil0" d="M458.53 763.66l-57.04 0 -12.79 35.6 -18.5 0 51.97 -136.09 15.7 0 52.06 136.09 -18.41 0 -12.98 -35.6zm-51.62 -14.74l46.28 0 -23.19 -63.61 -23.1 63.61z"/>
   <path id="1" class="fil0" d="M655.74 756.13c-1.69,14.39 -6.99,25.49 -15.95,33.31 -8.94,7.82 -20.8,11.74 -35.63,11.74 -16.08,0 -28.97,-5.77 -38.67,-17.29 -9.66,-11.55 -14.51,-26.99 -14.51,-46.32l0 -13.08c0,-12.67 2.23,-23.8 6.76,-33.4 4.53,-9.6 10.91,-16.97 19.2,-22.1 8.3,-5.14 17.89,-7.72 28.78,-7.72 14.48,0 26.06,4.02 34.77,12.09 8.74,8.07 13.81,19.24 15.25,33.53l-18.06 0c-1.53,-10.88 -4.91,-18.73 -10.11,-23.58 -5.23,-4.88 -12.5,-7.3 -21.85,-7.3 -11.45,0 -20.45,4.24 -26.96,12.73 -6.51,8.46 -9.76,20.55 -9.76,36.18l0 13.17c0,14.81 3.09,26.55 9.25,35.28 6.19,8.71 14.8,13.08 25.9,13.08 9.95,0 17.61,-2.26 22.93,-6.76 5.33,-4.5 8.87,-12.34 10.59,-23.54l18.06 0z"/>
   <path id="2" class="fil0" d="M672.9 747.81c0,-9.92 1.95,-18.82 5.84,-26.73 3.89,-7.94 9.32,-14.04 16.27,-18.34 6.92,-4.31 14.87,-6.45 23.76,-6.45 13.78,0 24.91,4.75 33.43,14.29 8.48,9.54 12.73,22.23 12.73,38.05l0 1.21c0,9.86 -1.88,18.69 -5.64,26.51 -3.77,7.82 -9.16,13.91 -16.18,18.28 -6.99,4.37 -15.06,6.54 -24.15,6.54 -13.72,0 -24.82,-4.75 -33.31,-14.29 -8.52,-9.54 -12.76,-22.17 -12.76,-37.87l0 -1.21zm17.39 2.01c0,11.2 2.58,20.23 7.78,27.02 5.2,6.8 12.19,10.18 20.9,10.18 8.77,0 15.76,-3.44 20.92,-10.33 5.17,-6.89 7.75,-16.53 7.75,-28.93 0,-11.1 -2.61,-20.07 -7.88,-26.96 -5.26,-6.89 -12.25,-10.33 -20.99,-10.33 -8.52,0 -15.41,3.38 -20.64,10.18 -5.23,6.8 -7.85,16.53 -7.85,29.19z"/>
   <path id="3" class="fil0" d="M849.06 789.31c-6.7,7.91 -16.59,11.87 -29.6,11.87 -10.79,0 -18.98,-3.13 -24.63,-9.38 -5.65,-6.28 -8.49,-15.53 -8.55,-27.82l0 -65.78 17.29 0 0 65.27c0,15.31 6.22,22.97 18.7,22.97 13.21,0 21.98,-4.92 26.35,-14.74l0 -73.5 17.29 0 0 101.06 -16.46 0 -0.38 -9.96z"/>
   <path id="4" class="fil0" d="M908.59 698.2l0.54 12.67c7.72,-9.73 17.84,-14.58 30.28,-14.58 21.37,0 32.16,12.06 32.35,36.18l0 66.8 -17.29 0 0 -66.86c-0.06,-7.28 -1.72,-12.67 -5.01,-16.14 -3.25,-3.48 -8.35,-5.23 -15.28,-5.23 -5.58,0 -10.53,1.5 -14.77,4.47 -4.21,3 -7.53,6.92 -9.89,11.77l0 72 -17.29 0 0 -101.06 16.36 0z"/>
   <path id="5" class="fil0" d="M1021.32 673.7l0 24.5 18.85 0 0 13.4 -18.85 0 0 62.69c0,4.05 0.82,7.08 2.52,9.13 1.66,2.01 4.53,3.03 8.58,3.03 2.01,0 4.75,-0.38 8.23,-1.12l0 14c-4.56,1.21 -8.96,1.85 -13.27,1.85 -7.72,0 -13.56,-2.33 -17.48,-7.02 -3.92,-4.66 -5.87,-11.29 -5.87,-19.87l0 -62.69 -18.44 0 0 -13.4 18.44 0 0 -24.5 17.29 0z"/>
   <path id="6" class="fil0" d="M1102.31 801.18c-13.69,0 -24.85,-4.5 -33.46,-13.49 -8.58,-9.03 -12.89,-21.06 -12.89,-36.15l0 -3.19c0,-10.01 1.91,-18.98 5.74,-26.86 3.83,-7.88 9.19,-14.07 16.08,-18.5 6.89,-4.47 14.35,-6.7 22.4,-6.7 13.14,0 23.35,4.34 30.65,12.98 7.28,8.68 10.95,21.09 10.95,37.23l0 7.21 -68.52 0c0.25,9.96 3.16,17.99 8.74,24.12 5.58,6.12 12.67,9.18 21.28,9.18 6.09,0 11.26,-1.25 15.5,-3.73 4.24,-2.49 7.94,-5.77 11.14,-9.86l10.56 8.23c-8.48,13.02 -21.22,19.52 -38.16,19.52zm-2.13 -90.73c-6.99,0 -12.82,2.55 -17.58,7.65 -4.72,5.1 -7.66,12.25 -8.78,21.44l50.66 0 0 -1.31c-0.51,-8.84 -2.87,-15.66 -7.11,-20.51 -4.24,-4.85 -9.99,-7.27 -17.19,-7.27z"/>
   <path id="7" class="fil0" d="M1210.59 713.61c-2.62,-0.45 -5.45,-0.67 -8.49,-0.67 -11.35,0 -19.04,4.81 -23.1,14.48l0 71.84 -17.29 0 0 -101.06 16.81 0 0.29 11.64c5.68,-9.02 13.72,-13.56 24.12,-13.56 3.38,0 5.93,0.45 7.66,1.31l0 16.01z"/>
   <polygon id="8" class="fil0" points="1262.5,748.54 1216.87,748.54 1216.87,734.38 1262.5,734.38 "/>
   <path id="9" class="fil0" d="M1322.08 738.62c-15.37,-4.44 -26.57,-9.89 -33.59,-16.33 -7.02,-6.45 -10.53,-14.42 -10.53,-23.89 0,-10.72 4.31,-19.59 12.86,-26.61 8.58,-7.02 19.72,-10.53 33.4,-10.53 9.35,0 17.71,1.82 25.01,5.42 7.34,3.61 12.98,8.58 17,14.96 4.02,6.35 6.03,13.31 6.03,20.83l-18.02 0c0,-8.23 -2.61,-14.7 -7.85,-19.43 -5.23,-4.69 -12.63,-7.05 -22.17,-7.05 -8.84,0 -15.73,1.95 -20.67,5.84 -4.98,3.92 -7.43,9.31 -7.43,16.24 0,5.55 2.33,10.27 7.05,14.09 4.69,3.83 12.69,7.34 24.02,10.53 11.29,3.19 20.16,6.69 26.54,10.53 6.38,3.83 11.1,8.3 14.2,13.43 3.09,5.1 4.62,11.14 4.62,18.06 0,11.04 -4.31,19.87 -12.89,26.51 -8.61,6.64 -20.09,9.95 -34.49,9.95 -9.35,0 -18.08,-1.78 -26.19,-5.36 -8.07,-3.61 -14.32,-8.52 -18.73,-14.74 -4.4,-6.22 -6.57,-13.3 -6.57,-21.21l18.02 0c0,8.2 3.03,14.67 9.13,19.43 6.06,4.75 14.16,7.15 24.34,7.15 9.48,0 16.72,-1.95 21.76,-5.81 5.07,-3.86 7.59,-9.13 7.59,-15.76 0,-6.67 -2.36,-11.84 -7.02,-15.47 -4.66,-3.63 -13.14,-7.24 -25.42,-10.78z"/>
   <path id="10" class="fil0" d="M1416.39 673.7l0 24.5 18.85 0 0 13.4 -18.85 0 0 62.69c0,4.05 0.82,7.08 2.52,9.13 1.66,2.01 4.53,3.03 8.58,3.03 2.01,0 4.75,-0.38 8.23,-1.12l0 14c-4.56,1.21 -8.96,1.85 -13.27,1.85 -7.72,0 -13.56,-2.33 -17.48,-7.02 -3.92,-4.66 -5.87,-11.29 -5.87,-19.87l0 -62.69 -18.44 0 0 -13.4 18.44 0 0 -24.5 17.29 0z"/>
   <path id="11" class="fil0" d="M1504.24 713.61c-2.62,-0.45 -5.45,-0.67 -8.49,-0.67 -11.35,0 -19.04,4.81 -23.1,14.48l0 71.84 -17.29 0 0 -101.06 16.81 0 0.29 11.64c5.68,-9.02 13.72,-13.56 24.12,-13.56 3.38,0 5.93,0.45 7.66,1.31l0 16.01z"/>
   <path id="12" class="fil0" d="M1538.98 799.26l-17.29 0 0 -101.06 17.29 0 0 101.06zm-18.69 -127.95c0,-2.81 0.86,-5.2 2.55,-7.15 1.72,-1.95 4.27,-2.9 7.62,-2.9 3.38,0 5.93,0.95 7.66,2.9 1.75,1.95 2.61,4.34 2.61,7.15 0,2.81 -0.86,5.17 -2.61,7.05 -1.72,1.88 -4.27,2.81 -7.66,2.81 -3.35,0 -5.9,-0.93 -7.62,-2.81 -1.69,-1.88 -2.55,-4.24 -2.55,-7.05z"/>
   <polygon id="13" class="fil0" points="1594.84,752.47 1583.99,763.76 1583.99,799.26 1566.7,799.26 1566.7,655.71 1583.99,655.71 1583.99,742.58 1593.25,731.44 1624.73,698.2 1645.78,698.2 1606.42,740.4 1650.35,799.26 1630.05,799.26 "/>
   <path id="14" class="fil0" d="M1703.71 801.18c-13.69,0 -24.85,-4.5 -33.46,-13.49 -8.58,-9.03 -12.89,-21.06 -12.89,-36.15l0 -3.19c0,-10.01 1.91,-18.98 5.74,-26.86 3.83,-7.88 9.19,-14.07 16.08,-18.5 6.89,-4.47 14.35,-6.7 22.4,-6.7 13.14,0 23.35,4.34 30.65,12.98 7.28,8.68 10.95,21.09 10.95,37.23l0 7.21 -68.52 0c0.25,9.96 3.16,17.99 8.74,24.12 5.58,6.12 12.67,9.18 21.28,9.18 6.09,0 11.26,-1.25 15.5,-3.73 4.24,-2.49 7.94,-5.77 11.14,-9.86l10.56 8.23c-8.48,13.02 -21.22,19.52 -38.16,19.52zm-2.13 -90.73c-6.99,0 -12.82,2.55 -17.58,7.65 -4.72,5.1 -7.66,12.25 -8.78,21.44l50.66 0 0 -1.31c-0.51,-8.84 -2.87,-15.66 -7.11,-20.51 -4.24,-4.85 -9.99,-7.27 -17.19,-7.27z"/>
   <polygon id="15" class="fil0" points="1903.51,677.91 1859.78,677.91 1859.78,799.26 1841.95,799.26 1841.95,677.91 1798.3,677.91 1798.3,663.18 1903.51,663.18 "/>
   <path id="16" class="fil0" d="M1907.15 747.81c0,-9.92 1.95,-18.82 5.84,-26.73 3.89,-7.94 9.32,-14.04 16.27,-18.34 6.92,-4.31 14.87,-6.45 23.76,-6.45 13.78,0 24.91,4.75 33.43,14.29 8.48,9.54 12.73,22.23 12.73,38.05l0 1.21c0,9.86 -1.88,18.69 -5.64,26.51 -3.77,7.82 -9.16,13.91 -16.18,18.28 -6.99,4.37 -15.06,6.54 -24.15,6.54 -13.72,0 -24.82,-4.75 -33.31,-14.29 -8.52,-9.54 -12.76,-22.17 -12.76,-37.87l0 -1.21zm17.39 2.01c0,11.2 2.58,20.23 7.78,27.02 5.2,6.8 12.19,10.18 20.9,10.18 8.77,0 15.76,-3.44 20.92,-10.33 5.17,-6.89 7.75,-16.53 7.75,-28.93 0,-11.1 -2.61,-20.07 -7.88,-26.96 -5.26,-6.89 -12.25,-10.33 -20.99,-10.33 -8.52,0 -15.41,3.38 -20.64,10.18 -5.23,6.8 -7.85,16.53 -7.85,29.19z"/>
   <path id="17" class="fil0" d="M2083.31 789.31c-6.7,7.91 -16.59,11.87 -29.6,11.87 -10.79,0 -18.98,-3.13 -24.63,-9.38 -5.65,-6.28 -8.49,-15.53 -8.55,-27.82l0 -65.78 17.29 0 0 65.27c0,15.31 6.22,22.97 18.7,22.97 13.21,0 21.98,-4.92 26.35,-14.74l0 -73.5 17.29 0 0 101.06 -16.46 0 -0.38 -9.96z"/>
   <path id="18" class="fil0" d="M2175.28 713.61c-2.62,-0.45 -5.45,-0.67 -8.49,-0.67 -11.35,0 -19.04,4.81 -23.1,14.48l0 71.84 -17.29 0 0 -101.06 16.81 0 0.29 11.64c5.68,-9.02 13.72,-13.56 24.12,-13.56 3.38,0 5.93,0.45 7.66,1.31l0 16.01z"/>
   <path id="19" class="fil0" d="M2207.6 698.2l0.54 12.67c7.72,-9.73 17.84,-14.58 30.28,-14.58 21.37,0 32.16,12.06 32.35,36.18l0 66.8 -17.29 0 0 -66.86c-0.06,-7.28 -1.72,-12.67 -5.01,-16.14 -3.25,-3.48 -8.35,-5.23 -15.28,-5.23 -5.58,0 -10.53,1.5 -14.77,4.47 -4.21,3 -7.53,6.92 -9.89,11.77l0 72 -17.29 0 0 -101.06 16.36 0z"/>
   <path id="20" class="fil0" d="M2359.25 799.26c-0.99,-1.98 -1.78,-5.52 -2.43,-10.62 -8.04,8.36 -17.64,12.54 -28.77,12.54 -9.99,0 -18.15,-2.81 -24.54,-8.45 -6.38,-5.65 -9.57,-12.8 -9.57,-21.44 0,-10.53 3.99,-18.73 11.99,-24.53 8.01,-5.84 19.27,-8.74 33.78,-8.74l16.81 0 0 -7.94c0,-6.03 -1.78,-10.85 -5.39,-14.45 -3.64,-3.57 -8.96,-5.36 -15.98,-5.36 -6.19,0 -11.36,1.56 -15.54,4.66 -4.18,3.13 -6.25,6.89 -6.25,11.3l-17.38 0c0,-5.04 1.78,-9.92 5.36,-14.64 3.61,-4.69 8.45,-8.42 14.61,-11.16 6.12,-2.74 12.86,-4.12 20.22,-4.12 11.64,0 20.77,2.91 27.37,8.74 6.6,5.81 10.05,13.84 10.27,24.05l0 46.54c0,9.29 1.21,16.66 3.57,22.14l0 1.5 -18.15 0zm-28.68 -12.82c5.43,0 10.56,-1.41 15.41,-4.24 4.88,-2.81 8.39,-6.51 10.56,-11.01l0 -20.93 -13.52 0c-21.18,0 -31.77,6.25 -31.77,18.76 0,5.45 1.78,9.73 5.39,12.8 3.64,3.09 8.26,4.62 13.94,4.62z"/>
   <path id="21" class="fil0" d="M2417.19 698.2l0.45 11.17c7.43,-8.71 17.42,-13.08 30.02,-13.08 14.13,0 23.77,5.42 28.87,16.27 3.35,-4.88 7.75,-8.81 13.14,-11.77 5.36,-3 11.74,-4.5 19.11,-4.5 22.17,0 33.43,11.74 33.82,35.22l0 67.76 -17.29 0 0 -66.67c0,-7.21 -1.66,-12.63 -4.94,-16.2 -3.32,-3.57 -8.84,-5.36 -16.66,-5.36 -6.41,0 -11.74,1.92 -15.98,5.75 -4.21,3.83 -6.7,8.96 -7.37,15.44l0 67.06 -17.39 0 0 -66.2c0,-14.7 -7.21,-22.05 -21.6,-22.05 -11.32,0 -19.08,4.82 -23.25,14.48l0 73.76 -17.29 0 0 -101.06 16.36 0z"/>
   <path id="22" class="fil0" d="M2610.69 801.18c-13.69,0 -24.85,-4.5 -33.46,-13.49 -8.58,-9.03 -12.89,-21.06 -12.89,-36.15l0 -3.19c0,-10.01 1.91,-18.98 5.74,-26.86 3.83,-7.88 9.19,-14.07 16.08,-18.5 6.89,-4.47 14.35,-6.7 22.4,-6.7 13.14,0 23.35,4.34 30.65,12.98 7.28,8.68 10.95,21.09 10.95,37.23l0 7.21 -68.52 0c0.25,9.96 3.16,17.99 8.74,24.12 5.58,6.12 12.67,9.18 21.28,9.18 6.09,0 11.26,-1.25 15.5,-3.73 4.24,-2.49 7.94,-5.77 11.14,-9.86l10.56 8.23c-8.48,13.02 -21.22,19.52 -38.16,19.52zm-2.13 -90.73c-6.99,0 -12.82,2.55 -17.58,7.65 -4.72,5.1 -7.66,12.25 -8.78,21.44l50.66 0 0 -1.31c-0.51,-8.84 -2.87,-15.66 -7.11,-20.51 -4.24,-4.85 -9.99,-7.27 -17.19,-7.27z"/>
   <path id="23" class="fil0" d="M2686.53 698.2l0.54 12.67c7.72,-9.73 17.84,-14.58 30.28,-14.58 21.37,0 32.16,12.06 32.35,36.18l0 66.8 -17.29 0 0 -66.86c-0.06,-7.28 -1.72,-12.67 -5.01,-16.14 -3.25,-3.48 -8.35,-5.23 -15.28,-5.23 -5.58,0 -10.53,1.5 -14.77,4.47 -4.21,3 -7.53,6.92 -9.89,11.77l0 72 -17.29 0 0 -101.06 16.36 0z"/>
   <path id="24" class="fil0" d="M2799.26 673.7l0 24.5 18.85 0 0 13.4 -18.85 0 0 62.69c0,4.05 0.82,7.08 2.52,9.13 1.66,2.01 4.53,3.03 8.58,3.03 2.01,0 4.75,-0.38 8.23,-1.12l0 14c-4.56,1.21 -8.96,1.85 -13.27,1.85 -7.72,0 -13.56,-2.33 -17.48,-7.02 -3.92,-4.66 -5.87,-11.29 -5.87,-19.87l0 -62.69 -18.44 0 0 -13.4 18.44 0 0 -24.5 17.29 0z"/>
  </g>
 </g>
</svg>
