<?xml version="1.0" encoding="UTF-8"?>
<!DOCTYPE svg PUBLIC "-//W3C//DTD SVG 1.1//EN" "http://www.w3.org/Graphics/SVG/1.1/DTD/svg11.dtd">
<!-- Creator: CorelDRAW 2019 (64-Bit) -->
<svg xmlns="http://www.w3.org/2000/svg" xml:space="preserve" width="34.3242mm" height="7.3316mm" version="1.1" style="shape-rendering:geometricPrecision; text-rendering:geometricPrecision; image-rendering:optimizeQuality; fill-rule:evenodd; clip-rule:evenodd"
viewBox="0 0 675.98 144.39"
 xmlns:xlink="http://www.w3.org/1999/xlink">
 <defs>
  <style type="text/css">
   <![CDATA[
    .fil0 {fill:#FEFEFE;fill-rule:nonzero}
   ]]>
  </style>
 </defs>
 <g id="Слой_x0020_1">
  <metadata id="CorelCorpID_0Corel-Layer"/>
  <g id="_1312187737584">
   <polygon class="fil0" points="145.11,19.65 142.7,19.65 142.7,36.28 138.43,36.28 138.43,0.34 142.7,0.34 142.7,17.08 145.01,16.36 157.07,0.34 162,0.34 149.98,15.8 147.83,17.49 150.45,19.55 163.59,36.28 158.2,36.28 "/>
   <path class="fil0" d="M168.72 12.51c1.3,-0.79 2.81,-1.37 4.54,-1.75 1.73,-0.37 3.54,-0.56 5.42,-0.56 1.78,0 3.21,0.24 4.29,0.72 1.08,0.48 1.9,1.1 2.46,1.87 0.57,0.77 0.94,1.62 1.13,2.54 0.19,0.92 0.28,1.85 0.28,2.77 0,2.05 -0.05,4.06 -0.15,6.01 -0.1,1.95 -0.15,3.8 -0.15,5.54 0,1.27 0.05,2.46 0.15,3.59 0.1,1.13 0.29,2.17 0.57,3.13l-3.03 0 -1.08 -3.6 -0.26 0c-0.31,0.48 -0.69,0.95 -1.15,1.41 -0.46,0.46 -1.02,0.87 -1.67,1.23 -0.65,0.36 -1.4,0.66 -2.26,0.9 -0.85,0.24 -1.83,0.36 -2.93,0.36 -1.09,0 -2.11,-0.17 -3.05,-0.51 -0.94,-0.34 -1.75,-0.83 -2.44,-1.46 -0.69,-0.63 -1.22,-1.4 -1.62,-2.29 -0.39,-0.89 -0.59,-1.9 -0.59,-3.03 0,-1.51 0.31,-2.76 0.93,-3.77 0.62,-1.01 1.48,-1.82 2.59,-2.41 1.11,-0.6 2.45,-1.03 4,-1.28 1.56,-0.26 3.28,-0.38 5.16,-0.38 0.48,0 0.95,0 1.41,0 0.46,0 0.93,0.04 1.41,0.1 0.1,-1.03 0.15,-1.95 0.15,-2.77 0,-1.88 -0.38,-3.2 -1.13,-3.95 -0.75,-0.75 -2.12,-1.13 -4.11,-1.13 -0.58,0 -1.21,0.04 -1.87,0.13 -0.67,0.08 -1.35,0.21 -2.05,0.36 -0.7,0.15 -1.37,0.34 -2,0.56 -0.63,0.22 -1.19,0.47 -1.67,0.74l-1.28 -3.08zm7.29 20.58c0.96,0 1.82,-0.13 2.57,-0.38 0.75,-0.26 1.4,-0.58 1.95,-0.98 0.55,-0.39 1,-0.83 1.36,-1.31 0.36,-0.48 0.62,-0.94 0.8,-1.39l0 -4.26c-0.48,-0.03 -0.97,-0.06 -1.46,-0.08 -0.49,-0.02 -0.98,-0.02 -1.46,-0.02 -1.06,0 -2.1,0.06 -3.11,0.18 -1.01,0.12 -1.9,0.34 -2.67,0.67 -0.77,0.32 -1.39,0.77 -1.85,1.33 -0.46,0.57 -0.69,1.28 -0.69,2.13 0,1.2 0.43,2.18 1.28,2.95 0.86,0.77 1.95,1.15 3.28,1.15z"/>
   <path class="fil0" d="M196.85 24.83l0 -3.34 3.6 0c0.61,0 1.22,-0.1 1.82,-0.31 0.6,-0.21 1.14,-0.49 1.62,-0.85 0.48,-0.36 0.86,-0.79 1.15,-1.28 0.29,-0.5 0.44,-1.02 0.44,-1.57 0,-1.34 -0.46,-2.28 -1.39,-2.82 -0.92,-0.55 -2.31,-0.82 -4.16,-0.82 -1.34,0 -2.56,0.21 -3.67,0.62 -1.11,0.41 -1.98,0.8 -2.59,1.18l-1.18 -3.18c1.03,-0.58 2.23,-1.1 3.62,-1.54 1.39,-0.44 3.04,-0.67 4.95,-0.67 5.68,0 8.52,2.11 8.52,6.31 0,1.2 -0.39,2.37 -1.16,3.52 -0.77,1.15 -1.87,1.96 -3.31,2.44l0 0.2c2.02,0.37 3.43,1.09 4.23,2.16 0.81,1.06 1.21,2.46 1.21,4.21 0,1.09 -0.22,2.11 -0.67,3.03 -0.45,0.93 -1.11,1.73 -2,2.41 -0.89,0.68 -2.01,1.22 -3.36,1.61 -1.35,0.4 -2.92,0.59 -4.7,0.59 -1.75,0 -3.19,-0.15 -4.34,-0.46 -1.15,-0.31 -2.18,-0.69 -3.11,-1.13l1.18 -3.39c0.79,0.44 1.74,0.79 2.85,1.02 1.11,0.24 2.32,0.36 3.62,0.36 2.09,0 3.68,-0.36 4.77,-1.08 1.09,-0.72 1.64,-1.81 1.64,-3.28 0,-1.23 -0.51,-2.2 -1.54,-2.9 -1.03,-0.7 -2.72,-1.05 -5.08,-1.05l-2.98 0z"/>
   <path class="fil0" d="M216.41 12.51c1.3,-0.79 2.81,-1.37 4.54,-1.75 1.73,-0.37 3.53,-0.56 5.42,-0.56 1.78,0 3.21,0.24 4.29,0.72 1.08,0.48 1.9,1.1 2.46,1.87 0.57,0.77 0.94,1.62 1.13,2.54 0.19,0.92 0.28,1.85 0.28,2.77 0,2.05 -0.05,4.06 -0.15,6.01 -0.1,1.95 -0.15,3.8 -0.15,5.54 0,1.27 0.05,2.46 0.15,3.59 0.1,1.13 0.29,2.17 0.57,3.13l-3.03 0 -1.08 -3.6 -0.26 0c-0.31,0.48 -0.69,0.95 -1.16,1.41 -0.46,0.46 -1.02,0.87 -1.67,1.23 -0.65,0.36 -1.4,0.66 -2.26,0.9 -0.85,0.24 -1.83,0.36 -2.93,0.36 -1.09,0 -2.11,-0.17 -3.05,-0.51 -0.94,-0.34 -1.75,-0.83 -2.44,-1.46 -0.69,-0.63 -1.22,-1.4 -1.62,-2.29 -0.39,-0.89 -0.59,-1.9 -0.59,-3.03 0,-1.51 0.31,-2.76 0.92,-3.77 0.62,-1.01 1.48,-1.82 2.59,-2.41 1.11,-0.6 2.45,-1.03 4.01,-1.28 1.56,-0.26 3.28,-0.38 5.16,-0.38 0.48,0 0.95,0 1.41,0 0.46,0 0.93,0.04 1.41,0.1 0.1,-1.03 0.15,-1.95 0.15,-2.77 0,-1.88 -0.38,-3.2 -1.13,-3.95 -0.75,-0.75 -2.12,-1.13 -4.1,-1.13 -0.58,0 -1.21,0.04 -1.87,0.13 -0.67,0.08 -1.35,0.21 -2.05,0.36 -0.7,0.15 -1.37,0.34 -2,0.56 -0.63,0.22 -1.19,0.47 -1.67,0.74l-1.28 -3.08zm7.29 20.58c0.96,0 1.81,-0.13 2.57,-0.38 0.75,-0.26 1.4,-0.58 1.95,-0.98 0.55,-0.39 1,-0.83 1.36,-1.31 0.36,-0.48 0.62,-0.94 0.8,-1.39l0 -4.26c-0.48,-0.03 -0.97,-0.06 -1.47,-0.08 -0.5,-0.02 -0.98,-0.02 -1.46,-0.02 -1.06,0 -2.1,0.06 -3.11,0.18 -1.01,0.12 -1.9,0.34 -2.67,0.67 -0.77,0.32 -1.39,0.77 -1.85,1.33 -0.46,0.57 -0.69,1.28 -0.69,2.13 0,1.2 0.43,2.18 1.28,2.95 0.86,0.77 1.95,1.15 3.29,1.15z"/>
   <polygon class="fil0" points="257.78,24.93 246.18,24.93 246.18,36.28 242.07,36.28 242.07,10.61 246.18,10.61 246.18,21.34 257.78,21.34 257.78,10.61 261.89,10.61 261.89,36.28 257.78,36.28 "/>
   <path class="fil0" d="M287.09 34.59c-1.03,0.75 -2.24,1.33 -3.65,1.72 -1.4,0.4 -2.88,0.59 -4.41,0.59 -1.99,0 -3.66,-0.32 -5.03,-0.95 -1.37,-0.63 -2.49,-1.54 -3.36,-2.72 -0.87,-1.18 -1.51,-2.6 -1.9,-4.26 -0.4,-1.66 -0.59,-3.5 -0.59,-5.52 0,-4.35 0.96,-7.67 2.88,-9.98 1.92,-2.31 4.67,-3.47 8.27,-3.47 1.64,0 3.04,0.13 4.18,0.38 1.15,0.26 2.18,0.62 3.11,1.1l-1.18 3.54c-0.79,-0.45 -1.66,-0.8 -2.62,-1.05 -0.96,-0.26 -1.98,-0.39 -3.08,-0.39 -4.86,0 -7.29,3.28 -7.29,9.85 0,1.3 0.13,2.54 0.38,3.72 0.26,1.18 0.69,2.23 1.28,3.13 0.6,0.91 1.38,1.64 2.36,2.18 0.97,0.55 2.18,0.82 3.62,0.82 1.23,0 2.33,-0.19 3.31,-0.57 0.97,-0.38 1.77,-0.8 2.39,-1.28l1.33 3.13z"/>
   <polygon class="fil0" points="298.99,24.73 296.63,24.73 296.63,36.28 292.53,36.28 292.53,10.61 296.63,10.61 296.63,22.21 298.84,21.5 307.06,10.61 311.52,10.61 303.56,20.93 301.41,22.62 304.08,24.68 312.65,36.28 307.57,36.28 "/>
   <polygon class="fil0" points="332.88,21.08 333.03,17.9 332.88,17.9 330.77,21.19 319.22,36.28 316.86,36.28 316.86,10.61 320.96,10.61 320.96,26.27 320.81,29.3 321.02,29.3 323.02,26.11 334.57,10.61 336.98,10.61 336.98,36.28 332.88,36.28 "/>
   <path class="fil0" d="M360.7 21.08l0.15 -3.18 -0.15 0 -2.11 3.29 -11.55 15.09 -2.36 0 0 -25.67 4.11 0 0 15.66 -0.16 3.03 0.21 0 2 -3.18 11.55 -15.5 2.41 0 0 25.67 -4.11 0 0 -15.2zm-10.11 -20.84c0.34,1.58 0.93,2.67 1.77,3.29 0.84,0.61 1.8,0.92 2.9,0.92 1.09,0 2.07,-0.32 2.93,-0.97 0.85,-0.65 1.44,-1.71 1.74,-3.18l3.08 0.97c-0.31,1.98 -1.19,3.51 -2.64,4.57 -1.46,1.06 -3.19,1.59 -5.21,1.59 -0.92,0 -1.84,-0.12 -2.74,-0.36 -0.91,-0.24 -1.72,-0.59 -2.44,-1.08 -0.72,-0.48 -1.34,-1.09 -1.85,-1.85 -0.51,-0.75 -0.85,-1.64 -1.02,-2.67l3.49 -1.23z"/>
   <path class="fil0" d="M149.57 85.28c-0.58,0.21 -1.19,0.32 -1.82,0.36 -0.63,0.03 -1.21,0.05 -1.72,0.05 -3.12,0 -5.51,-1.1 -7.19,-3.29 -1.68,-2.19 -2.51,-5.58 -2.51,-10.16 0,-4.38 0.92,-7.68 2.77,-9.91 1.85,-2.22 4.52,-3.34 8.01,-3.34 0.96,0 1.78,0.07 2.47,0.21l0 -10.06 3.9 0 0 10.11c0.62,-0.1 1.17,-0.17 1.64,-0.2 0.48,-0.03 0.94,-0.05 1.38,-0.05 3.39,0 5.94,0.98 7.65,2.95 1.71,1.97 2.57,5.23 2.57,9.78 0,2.15 -0.23,4.1 -0.7,5.83 -0.46,1.73 -1.14,3.19 -2.02,4.39 -0.89,1.2 -1.98,2.12 -3.26,2.77 -1.28,0.65 -2.76,0.98 -4.44,0.98 -0.31,0 -0.76,-0.03 -1.36,-0.08 -0.6,-0.05 -1.09,-0.14 -1.46,-0.28l0 10.01 -3.9 0 0 -10.06zm6.16 -22.89c-0.41,0 -0.78,0.01 -1.1,0.02 -0.32,0.02 -0.73,0.09 -1.21,0.23l0 19.51c0.34,0.07 0.73,0.11 1.15,0.13 0.43,0.02 0.9,0.03 1.41,0.03 2.19,0 3.84,-0.91 4.96,-2.72 1.11,-1.81 1.67,-4.43 1.67,-7.85 0,-2.91 -0.5,-5.19 -1.51,-6.86 -1.01,-1.66 -2.8,-2.49 -5.37,-2.49zm-8.68 19.92c0.41,0 0.82,-0.02 1.23,-0.05 0.41,-0.03 0.85,-0.1 1.33,-0.21l0 -19.46c-0.41,-0.07 -0.79,-0.12 -1.15,-0.15 -0.36,-0.03 -0.8,-0.05 -1.31,-0.05 -2.12,0 -3.77,0.8 -4.95,2.39 -1.18,1.59 -1.77,4.08 -1.77,7.47 0,1.44 0.13,2.77 0.38,4 0.26,1.23 0.66,2.3 1.21,3.21 0.55,0.91 1.24,1.61 2.08,2.1 0.84,0.5 1.82,0.75 2.95,0.75z"/>
   <path class="fil0" d="M191.46 83.02c-1.03,0.82 -2.32,1.47 -3.88,1.95 -1.56,0.48 -3.21,0.72 -4.96,0.72 -1.95,0 -3.65,-0.32 -5.08,-0.95 -1.44,-0.63 -2.62,-1.54 -3.54,-2.72 -0.92,-1.18 -1.61,-2.59 -2.05,-4.24 -0.45,-1.64 -0.67,-3.49 -0.67,-5.54 0,-4.38 0.97,-7.72 2.93,-10.01 1.95,-2.29 4.74,-3.44 8.37,-3.44 1.16,0 2.33,0.13 3.49,0.38 1.16,0.26 2.21,0.75 3.13,1.47 0.92,0.72 1.68,1.74 2.26,3.05 0.58,1.32 0.87,3.05 0.87,5.21 0,1.13 -0.1,2.38 -0.31,3.75l-16.48 0c0,1.5 0.15,2.84 0.46,4 0.31,1.16 0.79,2.15 1.44,2.95 0.65,0.81 1.5,1.42 2.54,1.85 1.04,0.43 2.32,0.64 3.82,0.64 1.16,0 2.33,-0.21 3.49,-0.62 1.16,-0.41 2.04,-0.89 2.62,-1.44l1.54 2.98zm-8.83 -20.64c-2.02,0 -3.64,0.53 -4.85,1.59 -1.21,1.06 -1.94,2.88 -2.18,5.44l12.73 0c0,-2.6 -0.5,-4.43 -1.49,-5.47 -0.99,-1.04 -2.4,-1.57 -4.21,-1.57z"/>
   <path class="fil0" d="M220.16 91.59l-2.77 0 -0.77 -6.52 -19.3 0 -0.77 6.52 -2.77 0 0 -10.11 3.03 0c0.28,-0.38 0.63,-1.05 1.08,-2.03 0.44,-0.97 0.88,-2.34 1.31,-4.11 0.43,-1.76 0.8,-3.95 1.13,-6.57 0.32,-2.62 0.52,-5.74 0.59,-9.37l15.5 0 0 22.08 3.75 0 0 10.11zm-7.85 -10.11l0 -18.48 -7.7 0c-0.07,1.44 -0.19,3 -0.36,4.7 -0.17,1.69 -0.4,3.39 -0.69,5.08 -0.29,1.69 -0.66,3.29 -1.1,4.8 -0.45,1.5 -0.96,2.8 -1.54,3.9l11.4 0z"/>
   <path class="fil0" d="M243.77 83.02c-1.02,0.82 -2.32,1.47 -3.87,1.95 -1.56,0.48 -3.21,0.72 -4.96,0.72 -1.95,0 -3.65,-0.32 -5.08,-0.95 -1.44,-0.63 -2.62,-1.54 -3.54,-2.72 -0.92,-1.18 -1.61,-2.59 -2.05,-4.24 -0.44,-1.64 -0.67,-3.49 -0.67,-5.54 0,-4.38 0.97,-7.72 2.93,-10.01 1.95,-2.29 4.74,-3.44 8.37,-3.44 1.16,0 2.33,0.13 3.49,0.38 1.16,0.26 2.21,0.75 3.13,1.47 0.93,0.72 1.68,1.74 2.26,3.05 0.58,1.32 0.87,3.05 0.87,5.21 0,1.13 -0.1,2.38 -0.31,3.75l-16.48 0c0,1.5 0.16,2.84 0.46,4 0.31,1.16 0.79,2.15 1.44,2.95 0.65,0.81 1.5,1.42 2.54,1.85 1.04,0.43 2.32,0.64 3.82,0.64 1.16,0 2.33,-0.21 3.49,-0.62 1.16,-0.41 2.04,-0.89 2.62,-1.44l1.54 2.98zm-8.83 -20.64c-2.02,0 -3.64,0.53 -4.85,1.59 -1.22,1.06 -1.94,2.88 -2.18,5.44l12.73 0c0,-2.6 -0.5,-4.43 -1.49,-5.47 -0.99,-1.04 -2.4,-1.57 -4.21,-1.57z"/>
   <path class="fil0" d="M250.9 59.4l2.83 0 0.77 3.08 0.2 0c0.79,-1.2 1.81,-2.12 3.06,-2.75 1.25,-0.63 2.68,-0.95 4.29,-0.95 3.42,0 5.97,1.01 7.65,3.03 1.68,2.02 2.51,5.32 2.51,9.91 0,2.15 -0.28,4.1 -0.84,5.83 -0.57,1.73 -1.36,3.19 -2.39,4.39 -1.03,1.2 -2.27,2.12 -3.72,2.77 -1.45,0.65 -3.07,0.98 -4.85,0.98 -1.27,0 -2.27,-0.08 -3,-0.23 -0.73,-0.15 -1.53,-0.42 -2.39,-0.8l0 10.68 -4.11 0 0 -35.94zm10.37 2.98c-1.74,0 -3.12,0.45 -4.13,1.36 -1.01,0.91 -1.72,2.28 -2.13,4.13l0 12.73c0.62,0.48 1.32,0.85 2.1,1.1 0.79,0.26 1.83,0.39 3.13,0.39 2.36,0 4.24,-0.88 5.62,-2.64 1.39,-1.76 2.08,-4.36 2.08,-7.78 0,-1.4 -0.12,-2.68 -0.36,-3.82 -0.24,-1.15 -0.63,-2.12 -1.16,-2.93 -0.53,-0.8 -1.22,-1.43 -2.05,-1.87 -0.84,-0.44 -1.88,-0.67 -3.11,-0.67z"/>
   <path class="fil0" d="M278.05 61.3c1.3,-0.79 2.82,-1.37 4.54,-1.74 1.73,-0.38 3.53,-0.57 5.42,-0.57 1.78,0 3.21,0.24 4.29,0.72 1.08,0.48 1.9,1.1 2.46,1.87 0.57,0.77 0.94,1.62 1.13,2.54 0.19,0.92 0.28,1.85 0.28,2.77 0,2.05 -0.05,4.05 -0.15,6 -0.1,1.95 -0.16,3.8 -0.16,5.54 0,1.27 0.05,2.46 0.16,3.59 0.1,1.13 0.29,2.17 0.56,3.13l-3.03 0 -1.08 -3.59 -0.26 0c-0.31,0.48 -0.69,0.95 -1.16,1.41 -0.46,0.46 -1.02,0.87 -1.67,1.23 -0.65,0.36 -1.4,0.66 -2.26,0.9 -0.86,0.24 -1.83,0.36 -2.93,0.36 -1.09,0 -2.11,-0.17 -3.06,-0.52 -0.94,-0.34 -1.75,-0.83 -2.44,-1.46 -0.68,-0.63 -1.22,-1.4 -1.62,-2.28 -0.39,-0.89 -0.59,-1.9 -0.59,-3.03 0,-1.5 0.31,-2.76 0.93,-3.77 0.62,-1.01 1.48,-1.81 2.59,-2.41 1.11,-0.6 2.45,-1.03 4,-1.28 1.56,-0.26 3.28,-0.39 5.16,-0.39 0.48,0 0.95,0 1.41,0 0.46,0 0.93,0.04 1.41,0.1 0.1,-1.02 0.15,-1.95 0.15,-2.77 0,-1.88 -0.38,-3.2 -1.13,-3.95 -0.75,-0.75 -2.12,-1.13 -4.11,-1.13 -0.58,0 -1.21,0.04 -1.87,0.13 -0.67,0.08 -1.35,0.2 -2.05,0.36 -0.71,0.15 -1.37,0.34 -2,0.57 -0.63,0.22 -1.19,0.47 -1.67,0.74l-1.28 -3.08zm7.29 20.59c0.96,0 1.82,-0.13 2.57,-0.38 0.75,-0.26 1.4,-0.58 1.95,-0.98 0.55,-0.39 1,-0.83 1.36,-1.31 0.36,-0.48 0.62,-0.94 0.8,-1.39l0 -4.26c-0.48,-0.03 -0.97,-0.06 -1.46,-0.08 -0.5,-0.02 -0.98,-0.03 -1.46,-0.03 -1.06,0 -2.1,0.06 -3.11,0.18 -1.01,0.12 -1.9,0.34 -2.67,0.67 -0.77,0.33 -1.39,0.77 -1.85,1.34 -0.46,0.56 -0.69,1.27 -0.69,2.13 0,1.2 0.43,2.18 1.29,2.95 0.85,0.77 1.95,1.15 3.28,1.15z"/>
   <path class="fil0" d="M317.53 63l-7.44 0c-0.1,1.44 -0.2,2.99 -0.31,4.64 -0.1,1.66 -0.26,3.32 -0.46,4.98 -0.2,1.66 -0.48,3.25 -0.82,4.78 -0.34,1.52 -0.78,2.87 -1.31,4.03 -0.53,1.16 -1.18,2.1 -1.95,2.8 -0.77,0.7 -1.69,1.05 -2.75,1.05 -0.65,0 -1.21,-0.03 -1.69,-0.1 -0.48,-0.07 -0.91,-0.19 -1.28,-0.36l0.62 -3.44c0.41,0.14 0.85,0.2 1.33,0.2 0.69,0 1.3,-0.29 1.85,-0.87 0.55,-0.58 1.03,-1.69 1.44,-3.31 0.41,-1.62 0.75,-3.88 1.02,-6.75 0.28,-2.87 0.46,-6.62 0.57,-11.24l15.3 0 0 25.67 -4.11 0 0 -22.07z"/>
   <path class="fil0" d="M333.44 81.48c1.26,0.2 2.48,0.31 3.65,0.31 2.15,0 3.75,-0.42 4.77,-1.26 1.03,-0.84 1.54,-2.03 1.54,-3.57 0,-1.37 -0.49,-2.5 -1.49,-3.39 -0.99,-0.89 -2.55,-1.33 -4.67,-1.33 -0.58,0 -1.21,0.02 -1.9,0.05 -0.68,0.03 -1.32,0.14 -1.9,0.31l0 8.88zm0 -12.27c0.82,-0.14 1.61,-0.23 2.36,-0.28 0.75,-0.05 1.47,-0.08 2.15,-0.08 1.78,0 3.28,0.2 4.52,0.59 1.23,0.4 2.23,0.93 3,1.62 0.77,0.68 1.32,1.5 1.67,2.44 0.34,0.94 0.51,1.94 0.51,3 0,3.11 -0.93,5.37 -2.8,6.78 -1.86,1.4 -4.77,2.1 -8.7,2.1 -2.19,0 -4.47,-0.1 -6.83,-0.31l0 -25.67 4.11 0 0 9.81z"/>
   <polygon class="fil0" points="368.65,73.73 357.05,73.73 357.05,85.07 352.94,85.07 352.94,59.4 357.05,59.4 357.05,70.13 368.65,70.13 368.65,59.4 372.76,59.4 372.76,85.07 368.65,85.07 "/>
   <path class="fil0" d="M384.56 81.48c1.27,0.2 2.48,0.31 3.64,0.31 2.16,0 3.66,-0.42 4.52,-1.26 0.86,-0.84 1.28,-2.03 1.28,-3.57 0,-1.37 -0.42,-2.5 -1.26,-3.39 -0.84,-0.89 -2.3,-1.33 -4.39,-1.33 -0.58,0 -1.22,0.02 -1.9,0.05 -0.69,0.03 -1.32,0.14 -1.9,0.31l0 8.88zm0 -12.27c0.82,-0.14 1.61,-0.23 2.36,-0.28 0.75,-0.05 1.47,-0.08 2.16,-0.08 1.74,0 3.21,0.2 4.39,0.59 1.18,0.4 2.13,0.93 2.85,1.62 0.72,0.68 1.22,1.5 1.51,2.44 0.29,0.94 0.44,1.94 0.44,3 0,3.11 -0.86,5.37 -2.59,6.78 -1.73,1.4 -4.53,2.1 -8.39,2.1 -2.19,0 -4.47,-0.1 -6.83,-0.31l0 -25.67 4.11 0 0 9.81zm17.76 -9.81l4.11 0 0 25.67 -4.11 0 0 -25.67z"/>
   <path class="fil0" d="M430.15 69.88l0.16 -3.18 -0.16 0 -2.1 3.29 -11.55 15.09 -2.36 0 0 -25.67 4.11 0 0 15.66 -0.16 3.03 0.21 0 2 -3.18 11.55 -15.51 2.41 0 0 25.67 -4.11 0 0 -15.19zm-10.11 -20.84c0.34,1.57 0.93,2.67 1.77,3.28 0.84,0.62 1.8,0.93 2.9,0.93 1.09,0 2.07,-0.32 2.93,-0.97 0.86,-0.65 1.44,-1.71 1.74,-3.18l3.08 0.97c-0.31,1.98 -1.19,3.51 -2.64,4.57 -1.45,1.06 -3.19,1.59 -5.21,1.59 -0.92,0 -1.84,-0.12 -2.75,-0.36 -0.91,-0.24 -1.72,-0.6 -2.44,-1.08 -0.72,-0.48 -1.34,-1.09 -1.85,-1.85 -0.51,-0.75 -0.86,-1.64 -1.03,-2.67l3.49 -1.23z"/>
   <path class="fil0" d="M145.57 124.83l1.44 4.93 0.26 0 1.13 -4.98 4.98 -16.58 4.16 0 -7.6 23.05c-0.58,1.68 -1.16,3.3 -1.72,4.88 -0.57,1.58 -1.19,2.98 -1.87,4.21 -0.68,1.23 -1.45,2.22 -2.31,2.95 -0.85,0.74 -1.85,1.1 -2.98,1.1 -1.23,0 -2.24,-0.17 -3.03,-0.51l0.72 -3.54c0.45,0.17 0.87,0.26 1.28,0.26 0.96,0 1.88,-0.5 2.77,-1.51 0.89,-1.01 1.63,-2.75 2.21,-5.21l-10.32 -25.67 4.72 0 6.16 16.63z"/>
   <polygon class="fil0" points="177.45,122.52 165.84,122.52 165.84,133.87 161.74,133.87 161.74,108.2 165.84,108.2 165.84,118.93 177.45,118.93 177.45,108.2 181.55,108.2 181.55,133.87 177.45,133.87 "/>
   <polygon class="fil0" points="205.27,118.67 205.42,115.49 205.27,115.49 203.16,118.77 191.61,133.87 189.25,133.87 189.25,108.2 193.36,108.2 193.36,123.85 193.2,126.88 193.41,126.88 195.41,123.7 206.96,108.2 209.38,108.2 209.38,133.87 205.27,133.87 "/>
   <path class="fil0" d="M217.07 108.25c1.2,-0.07 2.45,-0.16 3.77,-0.26 1.32,-0.1 2.95,-0.15 4.9,-0.15 3.39,0 5.82,0.52 7.29,1.56 1.47,1.05 2.21,2.63 2.21,4.75 0,1.2 -0.35,2.37 -1.05,3.52 -0.7,1.15 -1.86,2 -3.46,2.54l0 0.2c2.02,0.38 3.44,1.08 4.26,2.11 0.82,1.02 1.23,2.39 1.23,4.11 0,2.67 -0.96,4.6 -2.88,5.8 -1.92,1.2 -4.79,1.8 -8.62,1.8 -1.44,0 -2.77,-0.04 -4.01,-0.13 -1.23,-0.09 -2.45,-0.18 -3.64,-0.28l0 -25.56zm4.11 22.17c0.65,0.07 1.29,0.12 1.92,0.16 0.63,0.03 1.38,0.05 2.23,0.05 2.29,0 4,-0.32 5.11,-0.97 1.11,-0.65 1.67,-1.76 1.67,-3.34 0,-1.23 -0.47,-2.23 -1.41,-3 -0.94,-0.77 -2.61,-1.15 -5,-1.15l-4.52 0 0 8.26zm5.03 -11.4c0.61,0 1.22,-0.1 1.8,-0.31 0.58,-0.2 1.1,-0.49 1.57,-0.85 0.46,-0.36 0.84,-0.78 1.13,-1.26 0.29,-0.48 0.44,-0.99 0.44,-1.54 0,-1.37 -0.41,-2.32 -1.23,-2.85 -0.82,-0.53 -2.26,-0.8 -4.31,-0.8 -1.09,0 -1.96,0.02 -2.59,0.05 -0.63,0.03 -1.24,0.07 -1.82,0.1l0 7.44 5.03 0z"/>
   <path class="fil0" d="M261.22 131.81c-1.03,0.82 -2.32,1.47 -3.88,1.95 -1.56,0.48 -3.21,0.72 -4.96,0.72 -1.95,0 -3.64,-0.32 -5.08,-0.95 -1.44,-0.63 -2.62,-1.54 -3.54,-2.72 -0.92,-1.18 -1.61,-2.59 -2.05,-4.23 -0.45,-1.64 -0.67,-3.49 -0.67,-5.55 0,-4.38 0.98,-7.72 2.93,-10.01 1.95,-2.29 4.74,-3.44 8.37,-3.44 1.16,0 2.33,0.13 3.49,0.39 1.16,0.26 2.21,0.75 3.13,1.47 0.92,0.72 1.68,1.74 2.26,3.05 0.58,1.32 0.87,3.06 0.87,5.21 0,1.13 -0.1,2.38 -0.31,3.75l-16.48 0c0,1.51 0.15,2.84 0.46,4 0.31,1.17 0.79,2.15 1.44,2.95 0.65,0.8 1.49,1.42 2.54,1.85 1.04,0.43 2.32,0.64 3.83,0.64 1.16,0 2.33,-0.2 3.49,-0.61 1.16,-0.41 2.04,-0.89 2.62,-1.44l1.54 2.98zm-8.83 -20.64c-2.02,0 -3.64,0.53 -4.85,1.59 -1.21,1.06 -1.94,2.87 -2.18,5.44l12.73 0c0,-2.6 -0.5,-4.42 -1.49,-5.47 -0.99,-1.05 -2.4,-1.57 -4.21,-1.57z"/>
   <path class="fil0" d="M268.35 108.2l2.82 0 0.77 3.08 0.2 0c0.79,-1.2 1.8,-2.12 3.05,-2.75 1.25,-0.63 2.68,-0.95 4.29,-0.95 3.42,0 5.97,1.01 7.65,3.03 1.68,2.02 2.51,5.32 2.51,9.91 0,2.15 -0.28,4.1 -0.85,5.83 -0.57,1.73 -1.36,3.19 -2.39,4.39 -1.03,1.2 -2.27,2.12 -3.72,2.77 -1.46,0.65 -3.07,0.97 -4.85,0.97 -1.27,0 -2.27,-0.08 -3,-0.23 -0.74,-0.15 -1.53,-0.42 -2.39,-0.8l0 10.68 -4.11 0 0 -35.93zm10.37 2.98c-1.74,0 -3.12,0.45 -4.13,1.36 -1.01,0.91 -1.72,2.28 -2.13,4.13l0 12.73c0.62,0.48 1.32,0.85 2.11,1.1 0.79,0.25 1.83,0.38 3.13,0.38 2.36,0 4.24,-0.88 5.62,-2.64 1.39,-1.76 2.08,-4.35 2.08,-7.78 0,-1.4 -0.12,-2.68 -0.36,-3.82 -0.24,-1.15 -0.62,-2.12 -1.15,-2.93 -0.53,-0.8 -1.22,-1.43 -2.05,-1.87 -0.84,-0.44 -1.87,-0.67 -3.11,-0.67z"/>
   <path class="fil0" d="M313.42 132.17c-1.03,0.75 -2.24,1.33 -3.64,1.72 -1.4,0.39 -2.88,0.59 -4.42,0.59 -1.98,0 -3.66,-0.32 -5.03,-0.95 -1.37,-0.63 -2.49,-1.54 -3.36,-2.72 -0.87,-1.18 -1.51,-2.6 -1.9,-4.26 -0.39,-1.66 -0.59,-3.5 -0.59,-5.52 0,-4.34 0.96,-7.67 2.87,-9.98 1.92,-2.31 4.68,-3.47 8.27,-3.47 1.64,0 3.04,0.13 4.18,0.39 1.15,0.26 2.18,0.63 3.11,1.1l-1.18 3.54c-0.79,-0.45 -1.66,-0.8 -2.62,-1.05 -0.96,-0.26 -1.99,-0.39 -3.08,-0.39 -4.86,0 -7.29,3.28 -7.29,9.85 0,1.3 0.13,2.54 0.39,3.72 0.26,1.18 0.69,2.23 1.28,3.13 0.6,0.91 1.39,1.63 2.36,2.18 0.97,0.55 2.18,0.82 3.62,0.82 1.23,0 2.34,-0.19 3.31,-0.56 0.98,-0.38 1.77,-0.81 2.39,-1.28l1.34 3.13z"/>
   <polygon class="fil0" points="334.87,118.67 335.03,115.49 334.87,115.49 332.77,118.77 321.22,133.87 318.86,133.87 318.86,108.2 322.97,108.2 322.97,123.85 322.81,126.88 323.02,126.88 325.02,123.7 336.57,108.2 338.98,108.2 338.98,133.87 334.87,133.87 "/>
   <polygon class="fil0" points="363.06,111.79 355,111.79 355,133.87 350.89,133.87 350.89,111.79 342.83,111.79 342.83,108.2 363.06,108.2 "/>
   <path class="fil0" d="M384.82 131.81c-1.03,0.82 -2.32,1.47 -3.88,1.95 -1.56,0.48 -3.21,0.72 -4.96,0.72 -1.95,0 -3.64,-0.32 -5.08,-0.95 -1.44,-0.63 -2.62,-1.54 -3.54,-2.72 -0.92,-1.18 -1.61,-2.59 -2.05,-4.23 -0.45,-1.64 -0.67,-3.49 -0.67,-5.55 0,-4.38 0.97,-7.72 2.93,-10.01 1.95,-2.29 4.74,-3.44 8.37,-3.44 1.16,0 2.33,0.13 3.49,0.39 1.16,0.26 2.21,0.75 3.13,1.47 0.92,0.72 1.68,1.74 2.26,3.05 0.58,1.32 0.87,3.06 0.87,5.21 0,1.13 -0.1,2.38 -0.31,3.75l-16.48 0c0,1.51 0.15,2.84 0.46,4 0.31,1.17 0.79,2.15 1.44,2.95 0.65,0.8 1.5,1.42 2.54,1.85 1.05,0.43 2.32,0.64 3.82,0.64 1.16,0 2.33,-0.2 3.49,-0.61 1.16,-0.41 2.04,-0.89 2.62,-1.44l1.54 2.98zm-8.83 -20.64c-2.02,0 -3.64,0.53 -4.85,1.59 -1.22,1.06 -1.94,2.87 -2.18,5.44l12.73 0c0,-2.6 -0.5,-4.42 -1.49,-5.47 -0.99,-1.05 -2.4,-1.57 -4.21,-1.57z"/>
   <polygon class="fil0" points="408.33,111.79 400.27,111.79 400.27,133.87 396.16,133.87 396.16,111.79 388.1,111.79 388.1,108.2 408.33,108.2 "/>
   <polygon class="fil0" points="467.95,142.02 471.19,142.02 471.19,0.24 467.95,0.24 "/>
   <polygon class="fil0" points="1.95,2.19 -0,2.19 -0,0.24 7.51,0.24 7.51,2.19 5.56,2.19 5.56,15.37 7.51,15.37 7.51,17.32 -0,17.32 -0,15.37 1.95,15.37 "/>
   <polygon class="fil0" points="24.06,3.41 18.64,3.41 18.64,17.32 15.03,17.32 15.03,3.41 9.61,3.41 9.61,0.24 24.06,0.24 "/>
   <polygon class="fil0" points="38.23,17.32 26.47,17.32 26.47,0.24 30.08,0.24 30.08,14.15 38.23,14.15 "/>
   <polygon class="fil0" points="45.17,10.1 44.22,10.1 44.22,17.32 40.61,17.32 40.61,0.24 44.22,0.24 44.22,7.76 45.07,7.39 50.2,0.24 54.32,0.24 48.91,7.39 47.49,8.32 48.95,9.3 55.15,17.32 50.69,17.32 "/>
   <path class="fil0" d="M62.89 3.17c-0.34,0 -0.67,0.01 -0.99,0.02 -0.32,0.02 -0.57,0.05 -0.77,0.1l0 5.08c0.06,0.02 0.17,0.03 0.32,0.05 0.15,0.02 0.3,0.03 0.46,0.04 0.16,0.01 0.31,0.02 0.45,0.03 0.14,0.01 0.25,0.01 0.33,0.01 0.47,0 0.94,-0.03 1.41,-0.1 0.47,-0.06 0.89,-0.2 1.26,-0.41 0.37,-0.21 0.66,-0.5 0.89,-0.87 0.23,-0.37 0.34,-0.86 0.34,-1.48 0,-0.52 -0.11,-0.94 -0.32,-1.26 -0.21,-0.32 -0.49,-0.57 -0.84,-0.74 -0.35,-0.18 -0.75,-0.3 -1.19,-0.37 -0.45,-0.06 -0.9,-0.1 -1.36,-0.1zm-5.37 -2.76c0.73,-0.13 1.55,-0.23 2.44,-0.3 0.89,-0.07 1.79,-0.11 2.68,-0.11 0.91,0 1.83,0.07 2.76,0.2 0.93,0.14 1.76,0.42 2.5,0.83 0.74,0.42 1.35,0.99 1.82,1.73 0.47,0.74 0.71,1.72 0.71,2.94 0,1.08 -0.2,1.99 -0.61,2.75 -0.41,0.76 -0.95,1.37 -1.62,1.84 -0.68,0.47 -1.44,0.82 -2.31,1.04 -0.86,0.22 -1.75,0.33 -2.66,0.33 -0.08,0 -0.22,0 -0.41,0 -0.2,0 -0.4,-0 -0.62,-0.01 -0.22,-0.01 -0.43,-0.02 -0.62,-0.03 -0.2,-0.02 -0.34,-0.04 -0.44,-0.05l0 5.76 -3.61 0 0 -16.91z"/>
   <polygon class="fil0" points="73.01,0.24 84.01,0.24 84.01,3.41 76.62,3.41 76.62,7.39 83.43,7.39 83.43,10.56 76.62,10.56 76.62,17.32 73.01,17.32 "/>
   <path class="fil0" d="M96.95 0.24l3.41 0 0 10.96c0,1.11 -0.16,2.06 -0.48,2.88 -0.32,0.81 -0.77,1.48 -1.34,2 -0.58,0.52 -1.27,0.91 -2.07,1.16 -0.81,0.25 -1.69,0.38 -2.65,0.38 -2.29,0 -4.04,-0.5 -5.25,-1.5 -1.2,-1 -1.8,-2.5 -1.8,-4.5l0 -11.38 3.61 0 0 10.71c0,1.3 0.28,2.21 0.85,2.72 0.57,0.51 1.42,0.77 2.54,0.77 1.08,0 1.87,-0.27 2.39,-0.82 0.52,-0.54 0.78,-1.43 0.78,-2.67l0 -10.71z"/>
   <path class="fil0" d="M1.61 21.38l98.63 0 0 78.17 0 0.01 0 0.01 0 0.08 0 0 -0 0.24 0 0.61 -0.01 0c-0.16,4.62 -1.57,9.38 -4.02,13.95 -2.51,4.68 -6.09,9.15 -10.49,13.04 -4.62,4.09 -10.16,7.55 -16.31,9.97 -5.69,2.23 -11.91,3.56 -18.42,3.66l-0.71 0.01 -0 0c-6.46,0 -12.63,-1.16 -18.3,-3.21 -6.05,-2.18 -11.53,-5.37 -16.16,-9.22 -4.67,-3.89 -8.47,-8.44 -11.14,-13.33 -2.6,-4.75 -4.13,-9.81 -4.34,-14.86l-0.03 0 0 -79.11 1.3 0zm34.74 105.43l1.43 0 0 -4.06 0.15 -0.7 -0.49 0.61 -0.91 0.62 -0.57 -0.77 2.34 -1.89 0.75 0 0 6.18 1.4 0 0 1.13 -4.1 0 0 -1.13zm7.45 -0.63c0,-0.24 0.03,-0.45 0.09,-0.64 0.06,-0.19 0.15,-0.36 0.26,-0.51 0.11,-0.15 0.25,-0.3 0.4,-0.42 0.15,-0.12 0.32,-0.24 0.5,-0.34 -0.34,-0.21 -0.6,-0.45 -0.79,-0.73 -0.19,-0.28 -0.29,-0.62 -0.29,-1.03 0,-0.27 0.05,-0.52 0.15,-0.75 0.1,-0.23 0.24,-0.44 0.43,-0.6 0.19,-0.17 0.42,-0.3 0.68,-0.4 0.27,-0.1 0.57,-0.14 0.9,-0.14 0.31,0 0.59,0.04 0.84,0.12 0.25,0.08 0.47,0.2 0.65,0.35 0.18,0.15 0.32,0.33 0.42,0.55 0.1,0.21 0.15,0.45 0.15,0.71 0,0.4 -0.09,0.74 -0.27,1.03 -0.18,0.28 -0.45,0.54 -0.8,0.77 0.41,0.24 0.72,0.5 0.93,0.79 0.21,0.29 0.31,0.66 0.31,1.11 0,0.31 -0.06,0.59 -0.17,0.84 -0.11,0.25 -0.27,0.46 -0.48,0.64 -0.21,0.18 -0.45,0.32 -0.74,0.42 -0.29,0.1 -0.6,0.15 -0.95,0.15 -0.34,0 -0.65,-0.05 -0.93,-0.14 -0.28,-0.09 -0.51,-0.22 -0.71,-0.38 -0.19,-0.16 -0.35,-0.36 -0.45,-0.6 -0.1,-0.23 -0.16,-0.49 -0.16,-0.78zm3.31 -0.13c0,-0.16 -0.04,-0.3 -0.11,-0.43 -0.07,-0.13 -0.17,-0.25 -0.29,-0.35 -0.12,-0.11 -0.25,-0.21 -0.4,-0.3 -0.15,-0.09 -0.3,-0.17 -0.45,-0.26 -0.32,0.18 -0.54,0.39 -0.66,0.6 -0.12,0.21 -0.18,0.43 -0.18,0.64 0,0.27 0.09,0.51 0.28,0.7 0.19,0.19 0.45,0.29 0.78,0.29 0.31,0 0.56,-0.07 0.74,-0.22 0.19,-0.15 0.28,-0.38 0.28,-0.68zm-1.86 -3.52c0,0.17 0.03,0.31 0.09,0.43 0.06,0.12 0.15,0.23 0.25,0.32 0.1,0.09 0.22,0.18 0.36,0.26 0.13,0.08 0.27,0.15 0.42,0.22 0.41,-0.35 0.62,-0.73 0.62,-1.15 0,-0.29 -0.08,-0.5 -0.25,-0.65 -0.17,-0.15 -0.37,-0.22 -0.61,-0.22 -0.3,0 -0.52,0.08 -0.66,0.23 -0.14,0.16 -0.21,0.34 -0.21,0.56zm6.21 1.81c0,-1.26 0.22,-2.2 0.65,-2.81 0.43,-0.61 1.05,-0.92 1.86,-0.92 0.86,0 1.5,0.3 1.9,0.91 0.4,0.6 0.61,1.54 0.61,2.82 0,1.27 -0.22,2.21 -0.65,2.82 -0.44,0.62 -1.06,0.93 -1.87,0.93 -0.85,0 -1.48,-0.32 -1.89,-0.97 -0.4,-0.64 -0.61,-1.57 -0.61,-2.78zm1.34 0c0,0.84 0.09,1.48 0.27,1.94 0.18,0.45 0.48,0.68 0.9,0.68 0.41,0 0.7,-0.21 0.89,-0.63 0.19,-0.42 0.28,-1.08 0.28,-1.99 0,-0.83 -0.09,-1.47 -0.27,-1.92 -0.18,-0.45 -0.48,-0.68 -0.91,-0.68 -0.41,0 -0.71,0.21 -0.89,0.64 -0.18,0.42 -0.27,1.08 -0.27,1.96zm11.8 1.6l-1.13 0 0 2 -1.24 0 0 -2 -3.11 0 0 -0.76 3.26 -4.48 1.1 0 0 4.17 1.13 0 0 1.07zm-2.37 -2.64l0.09 -0.86 -0.04 0 -0.35 0.74 -1.07 1.39 -0.51 0.39 0.66 -0.08 1.22 0 0 -1.57zm-27 -72.43c-3.03,-1.71 -4.33,0.78 -7.3,1.4 -3.3,0.69 -4.18,-1.89 -5.58,-4.18 2.32,0.49 2.46,1.58 5.48,-0.5 2.23,-1.52 5.04,-0.52 6.69,1.35l-1.83 -4.93c5.47,-0.04 11.62,-0.76 17.02,0l0.68 0.11c5.77,1.14 10.12,6.08 10.12,12.33 0,4.57 -2.62,9.66 -6.45,12.36l0 0.57c5.12,-1.17 10.98,-5.47 11.51,-7.87 -0.75,-0.29 -2.55,-1.33 -2.53,-1.45 -2,-1.44 -2.87,-4.3 -2.39,-6.48 0.47,-2.17 1.48,-3.22 2.93,-4.1 0.99,-0.5 1.89,-0.81 2.97,-0.92l26.96 -3.8c0.13,0.91 0.21,1.84 0.26,2.76 0.78,16.49 -11.96,30.5 -28.45,31.28 -5.64,0.27 -12.91,-2.85 -15.47,-8.18 -0.13,0.02 -0.27,0.05 -0.4,0.06 -0.98,0.11 -1.89,0.28 -2.74,0.5 -0.86,3.58 6.47,6.37 14.98,7.74l-1.36 1.97c1.61,-0.51 3.32,-0.78 5.1,-0.78 9.35,0 16.93,7.58 16.93,16.93 0,9.35 -7.58,16.93 -16.93,16.93 -9.35,0 -16.93,-7.58 -16.93,-16.93 0,-0.96 0.08,-1.9 0.24,-2.82l0.58 0.09 10.25 0.69c-0.51,0.83 -0.8,1.81 -0.8,2.86 0,3.03 2.46,5.48 5.48,5.48 3.03,0 5.49,-2.46 5.49,-5.48 0,-2.98 -2.38,-5.41 -5.34,-5.48l-0.02 -0.06 -0.67 0.08c-0.07,0.01 -0.13,0.02 -0.2,0.02l-8.83 1.04c-3.85,0.63 -7.19,0.89 -10.04,0.79l-12.21 16.66 -1.53 -4.04c-8.63,-0.72 -5.64,3.27 -3.71,4.9 0.19,0.16 0.19,0.83 0.01,0.97 -3.17,-0.24 -5.94,-2.79 -5.94,-6.1 0,-3.31 2.75,-6.14 6.14,-6.14 2.26,0 4.24,1.22 5.31,3.05l5.55 -17.49 -0.88 0 -3.36 4.82c-1.98,-2.07 -3.52,-4.55 -4.47,-7.31l-9.37 -11.6c-0.4,0.9 -1.01,1.68 -1.76,2.29l-1.87 -4.95c-4.14,-0.2 -6.7,0.79 -4.55,3.94l0.9 0.01 -0.12 -1.56 2.6 0 -0.41 5.44 0 0.04 -0.01 0 -0.01 0.1 -1.78 0 -0.01 -0.36 -0.13 -1.75c-2.37,-0.85 -4.61,-2.71 -4.61,-5.69 0,-2.29 1.55,-4.61 3.76,-5.61l-1.2 -15.95 -2.9 -3.69 4.91 0c-0.18,-2.04 0.45,-4.25 1.65,-6.03 -1.09,0.18 -2.1,0.77 -3.07,2.38 -0.64,-3.5 2.3,-8.01 6.3,-7.33 4.02,0.68 3.65,-0.49 5.76,-2.06 -0.15,1.31 -0.17,2.62 -0.46,3.75 4.14,0.45 3.95,-1.06 6.62,-3.05 -0.48,4.11 -0.04,8.27 -5.08,9.45 -4.6,1.07 -8.04,-1.62 -11.19,2.9l6.55 0 -2.9 3.68 -1.18 15.6c0.99,0.24 1.89,0.72 2.63,1.36l7.48 4.49 1.64 6.07 0.77 0c0.78,-10.17 9.15,-18.22 19.46,-18.49l-0.4 -1 -10.36 0.05 -1.96 -5.12zm-0.46 -1.63c0.33,0.42 0.59,0.88 0.79,1.35 4.41,0.79 12.59,5.88 9.86,-1.35l-10.65 0zm7.19 -14.73l2.67 0 0 0.64 0.84 0 0 2.07c-0.54,0.22 -0.92,0.75 -0.92,1.38 0,0.66 0.43,1.21 1.02,1.41l0.01 0 0.02 0.01 0.01 0 0.01 0 0 0 0.02 0 0 0 0.01 0 0.03 0.01 0.01 0 0.01 0 0.01 0 0 0 0.01 0 0.01 0 0.01 0 0.02 0 0 0 0.01 0 0.01 0 0.01 0 0.02 0 0.01 0 0 0 0 0 0.01 0 0.01 0 0.01 0 0.01 0 0.01 0 0.01 0 0.02 0 0.01 0 0.02 0 0.02 0 0.01 0 0.02 0 0.04 0 0.04 0c0.82,0 1.48,-0.67 1.48,-1.48l0 -0.04 -0 -0.03 -0 -0.03c0,-0.02 0,-0.04 -0,-0.05l-0 -0.02 0 -0 -0 -0.02 0 -0c-0,-0.03 -0.01,-0.06 -0.02,-0.09l-0 -0.01 -0.01 -0.03 0 -0 -0.01 -0.05 -0.01 -0.02 -0 -0 -0.01 -0.03 0 -0.01 -0.01 -0.01c-0.07,-0.23 -0.2,-0.43 -0.36,-0.59l-0 -0 -0.02 -0.02 -0.02 -0.02 0 -0 -0.01 -0.01 -0.01 -0.01 -0.02 -0.02 0 -0 -0.02 -0.02 -0.01 -0.01 -0 0 -0.03 -0.02 0 0 -0 -0c-0.02,-0.01 -0.03,-0.02 -0.05,-0.04l-0 -0 -0.01 -0.01 -0.02 -0.01 -0 -0 -0.02 -0.01 -0.01 -0 -0.01 -0c-0.02,-0.01 -0.04,-0.02 -0.06,-0.04l0 0c-0.02,-0.01 -0.04,-0.02 -0.06,-0.03l-0.01 -0 -0.02 -0.01 -0 -0 -0.02 -0.01 0 -0.39c0,-1.22 1.08,-2.83 2.3,-2.87l2.27 -0.06 -3.24 8.49 -9.28 0.03 -3.24 -8.49 2.15 0.03c1.22,0.02 2.3,1.64 2.3,2.87l0 0.39c-0.3,0.14 -0.54,0.38 -0.69,0.67l-0 0 -0.01 0.02 -0 0.01 -0.01 0.03 0 0 -0 0.01 -0.01 0.02 -0.01 0.03 -0 0.01 0 0 -0.01 0.03 0 0 -0 0.01 -0.01 0.03 0 0c-0.02,0.06 -0.04,0.12 -0.05,0.18 -0.01,0.05 -0.02,0.09 -0.02,0.15l0 0c-0,0.02 -0,0.05 -0.01,0.07l0 0.01 -0 0.03 0 0.01 0 0.03c0,0.82 0.67,1.48 1.49,1.48l0.04 0 0.04 -0 0.02 0 0.01 -0 0.02 0 0.02 0 0.01 -0 0.02 -0 0.01 -0 0.01 0 0 -0 0.01 -0 0.01 0 0.01 -0 0.01 0 0 -0 0.01 -0 0.01 0 0.01 -0 0.01 0 0.01 -0 0.01 0 0.02 -0.01 0.01 -0 0.01 -0 0.01 0 0.05 -0.01 0.01 -0c0.63,-0.17 1.09,-0.75 1.09,-1.43 0,-0.62 -0.38,-1.15 -0.92,-1.38l0 -2.07 0.84 0 0 -0.64zm37.25 51.22c7.16,-2.9 13.8,-7.75 15.32,-19.84 -1.41,5.97 -4.51,9.27 -8.4,11.1 -4.16,1.95 -9.21,2.23 -14.06,2.28 3.28,1.41 5.49,3.45 7.14,6.46zm18.45 -61.76l-94.74 0 0 73.93 0.01 0 -0 0.13 -0.01 0.83 0 0.45c0,4.86 1.37,9.78 3.83,14.41 2.52,4.74 6.2,9.19 10.74,12.97 4.4,3.66 9.61,6.7 15.38,8.78 5.39,1.94 11.27,3.05 17.43,3.05l0.68 0c6.18,-0.09 12.1,-1.35 17.52,-3.48 5.85,-2.3 11.13,-5.6 15.53,-9.49 4.25,-3.76 7.69,-8.07 10.05,-12.55 2.31,-4.4 3.59,-8.96 3.59,-13.35 0,-0.19 0,-0.23 0,-0.26l0 -0.06 -0 0 0 -0.32 -0.01 -0.97 -0 -0.13 0.02 0 0 -73.93z"/>
   <polygon class="fil0" points="503.34,35.03 507.38,35.03 507.38,0.92 503.34,0.92 "/>
   <polygon class="fil0" points="538.51,4.53 527.89,4.53 527.89,35.03 523.85,35.03 523.85,4.53 513.22,4.53 513.22,0.92 538.51,0.92 "/>
   <polygon class="fil0" points="538.07,22.8 549.86,22.8 549.86,19.19 538.07,19.19 "/>
   <path class="fil0" d="M567.83 14.08l-7.06 0c-0.1,1.36 -0.19,2.83 -0.3,4.41 -0.1,1.58 -0.24,3.15 -0.44,4.72 -0.19,1.58 -0.46,3.09 -0.78,4.53 -0.32,1.45 -0.74,2.72 -1.24,3.82 -0.5,1.1 -1.12,1.99 -1.85,2.66 -0.73,0.66 -1.6,1 -2.61,1 -0.62,0 -1.15,-0.03 -1.61,-0.1 -0.45,-0.06 -0.86,-0.18 -1.22,-0.34l0.58 -3.26c0.39,0.13 0.81,0.19 1.27,0.19 0.65,0 1.23,-0.28 1.75,-0.83 0.52,-0.55 0.98,-1.6 1.36,-3.14 0.39,-1.54 0.72,-3.68 0.98,-6.4 0.26,-2.73 0.44,-6.29 0.54,-10.67l14.52 0 0 24.36 -3.9 0 0 -20.95z"/>
   <polygon class="fil0" points="594.34,20.61 594.48,17.58 594.34,17.58 592.34,20.7 581.38,35.03 579.14,35.03 579.14,10.67 583.03,10.67 583.03,25.53 582.89,28.4 583.08,28.4 584.98,25.38 595.94,10.67 598.23,10.67 598.23,35.03 594.34,35.03 "/>
   <polygon class="fil0" points="627.51,41.21 624.88,41.21 624.15,35.03 605.64,35.03 605.64,10.67 609.54,10.67 609.54,31.62 620.11,31.62 620.11,10.67 624.01,10.67 624.01,31.62 627.51,31.62 "/>
   <path class="fil0" d="M641.64 13.49c-1.91,0 -3.45,0.5 -4.6,1.51 -1.15,1.01 -1.85,2.73 -2.07,5.17l12.08 0c0,-2.47 -0.47,-4.2 -1.41,-5.19 -0.94,-0.99 -2.27,-1.49 -4,-1.49zm8.38 19.58c-0.97,0.78 -2.2,1.4 -3.68,1.85 -1.48,0.45 -3.04,0.68 -4.7,0.68 -1.85,0 -3.46,-0.3 -4.82,-0.9 -1.36,-0.6 -2.48,-1.46 -3.36,-2.58 -0.88,-1.12 -1.53,-2.46 -1.95,-4.02 -0.42,-1.56 -0.63,-3.31 -0.63,-5.26 0,-4.16 0.93,-7.33 2.78,-9.5 1.85,-2.18 4.5,-3.26 7.94,-3.26 1.1,0 2.21,0.12 3.31,0.36 1.1,0.24 2.1,0.71 2.97,1.39 0.87,0.68 1.59,1.65 2.14,2.9 0.55,1.25 0.83,2.9 0.83,4.95 0,1.07 -0.1,2.26 -0.3,3.56l-15.64 0c0,1.43 0.15,2.7 0.44,3.8 0.29,1.1 0.75,2.04 1.36,2.8 0.62,0.76 1.42,1.35 2.41,1.75 0.99,0.41 2.2,0.61 3.63,0.61 1.1,0 2.21,-0.19 3.31,-0.58 1.1,-0.39 1.93,-0.85 2.48,-1.36l1.46 2.82z"/>
   <path class="fil0" d="M662.49 0.83c0.32,1.49 0.88,2.53 1.68,3.12 0.8,0.58 1.71,0.88 2.75,0.88 1.04,0 1.97,-0.31 2.78,-0.93 0.81,-0.61 1.36,-1.62 1.66,-3.02l2.92 0.93c-0.29,1.88 -1.13,3.33 -2.51,4.33 -1.38,1.01 -3.03,1.51 -4.94,1.51 -0.88,0 -1.75,-0.11 -2.61,-0.34 -0.86,-0.23 -1.63,-0.57 -2.31,-1.02 -0.68,-0.45 -1.27,-1.04 -1.75,-1.75 -0.49,-0.71 -0.81,-1.56 -0.97,-2.53l3.31 -1.17zm9.6 19.78l0.14 -3.02 -0.14 0 -2 3.12 -10.96 14.32 -2.24 0 0 -24.36 3.9 0 0 14.86 -0.15 2.87 0.19 0 1.9 -3.02 10.96 -14.71 2.29 0 0 24.36 -3.9 0 0 -14.42z"/>
  </g>
 </g>
</svg>
